G04 #@! TF.GenerationSoftware,KiCad,Pcbnew,9.0.2*
G04 #@! TF.CreationDate,2025-09-26T20:13:01+02:00*
G04 #@! TF.ProjectId,TeslaBMBCheck,5465736c-6142-44d4-9243-6865636b2e6b,1.1*
G04 #@! TF.SameCoordinates,Original*
G04 #@! TF.FileFunction,Legend,Top*
G04 #@! TF.FilePolarity,Positive*
%FSLAX46Y46*%
G04 Gerber Fmt 4.6, Leading zero omitted, Abs format (unit mm)*
G04 Created by KiCad (PCBNEW 9.0.2) date 2025-09-26 20:13:01*
%MOMM*%
%LPD*%
G01*
G04 APERTURE LIST*
G04 Aperture macros list*
%AMRoundRect*
0 Rectangle with rounded corners*
0 $1 Rounding radius*
0 $2 $3 $4 $5 $6 $7 $8 $9 X,Y pos of 4 corners*
0 Add a 4 corners polygon primitive as box body*
4,1,4,$2,$3,$4,$5,$6,$7,$8,$9,$2,$3,0*
0 Add four circle primitives for the rounded corners*
1,1,$1+$1,$2,$3*
1,1,$1+$1,$4,$5*
1,1,$1+$1,$6,$7*
1,1,$1+$1,$8,$9*
0 Add four rect primitives between the rounded corners*
20,1,$1+$1,$2,$3,$4,$5,0*
20,1,$1+$1,$4,$5,$6,$7,0*
20,1,$1+$1,$6,$7,$8,$9,0*
20,1,$1+$1,$8,$9,$2,$3,0*%
G04 Aperture macros list end*
%ADD10C,0.120000*%
%ADD11C,0.150000*%
%ADD12C,0.250000*%
%ADD13C,0.300000*%
%ADD14C,0.125000*%
%ADD15C,0.010000*%
%ADD16C,3.000000*%
%ADD17RoundRect,0.150000X-0.587500X-0.150000X0.587500X-0.150000X0.587500X0.150000X-0.587500X0.150000X0*%
%ADD18RoundRect,0.250000X0.450000X-0.262500X0.450000X0.262500X-0.450000X0.262500X-0.450000X-0.262500X0*%
%ADD19RoundRect,0.243750X0.456250X-0.243750X0.456250X0.243750X-0.456250X0.243750X-0.456250X-0.243750X0*%
%ADD20RoundRect,0.250000X0.325000X0.650000X-0.325000X0.650000X-0.325000X-0.650000X0.325000X-0.650000X0*%
%ADD21RoundRect,0.250000X-0.250000X-0.475000X0.250000X-0.475000X0.250000X0.475000X-0.250000X0.475000X0*%
%ADD22RoundRect,0.250000X0.475000X-0.250000X0.475000X0.250000X-0.475000X0.250000X-0.475000X-0.250000X0*%
%ADD23RoundRect,0.250000X-0.450000X0.262500X-0.450000X-0.262500X0.450000X-0.262500X0.450000X0.262500X0*%
%ADD24RoundRect,0.250000X-2.000000X-0.750000X2.000000X-0.750000X2.000000X0.750000X-2.000000X0.750000X0*%
%ADD25RoundRect,0.250000X0.262500X0.450000X-0.262500X0.450000X-0.262500X-0.450000X0.262500X-0.450000X0*%
%ADD26RoundRect,0.250000X-0.650000X1.000000X-0.650000X-1.000000X0.650000X-1.000000X0.650000X1.000000X0*%
%ADD27R,1.500000X1.500000*%
%ADD28RoundRect,0.150000X0.150000X-0.512500X0.150000X0.512500X-0.150000X0.512500X-0.150000X-0.512500X0*%
%ADD29O,2.700000X3.300000*%
%ADD30RoundRect,0.250000X-0.262500X-0.450000X0.262500X-0.450000X0.262500X0.450000X-0.262500X0.450000X0*%
%ADD31R,1.200000X1.200000*%
%ADD32R,1.500000X1.600000*%
%ADD33RoundRect,0.250000X-0.475000X0.250000X-0.475000X-0.250000X0.475000X-0.250000X0.475000X0.250000X0*%
%ADD34RoundRect,0.250000X-0.325000X-0.650000X0.325000X-0.650000X0.325000X0.650000X-0.325000X0.650000X0*%
%ADD35R,1.700000X1.700000*%
%ADD36C,1.700000*%
%ADD37RoundRect,0.150000X0.150000X-0.875000X0.150000X0.875000X-0.150000X0.875000X-0.150000X-0.875000X0*%
%ADD38RoundRect,0.500000X0.500000X0.500000X-0.500000X0.500000X-0.500000X-0.500000X0.500000X-0.500000X0*%
%ADD39C,2.000000*%
%ADD40C,0.650000*%
%ADD41R,1.450000X0.600000*%
%ADD42R,1.450000X0.300000*%
%ADD43O,2.100000X1.000000*%
%ADD44O,1.600000X1.000000*%
%ADD45O,1.501140X4.000500*%
G04 APERTURE END LIST*
D10*
X152908000Y-98679000D02*
G75*
G02*
X151892000Y-98679000I-508000J0D01*
G01*
X151892000Y-98679000D02*
G75*
G02*
X152908000Y-98679000I508000J0D01*
G01*
X151384000Y-100203000D02*
G75*
G02*
X150368000Y-100203000I-508000J0D01*
G01*
X150368000Y-100203000D02*
G75*
G02*
X151384000Y-100203000I508000J0D01*
G01*
X152908000Y-103251000D02*
G75*
G02*
X151892000Y-103251000I-508000J0D01*
G01*
X151892000Y-103251000D02*
G75*
G02*
X152908000Y-103251000I508000J0D01*
G01*
X152908000Y-101727000D02*
G75*
G02*
X151892000Y-101727000I-508000J0D01*
G01*
X151892000Y-101727000D02*
G75*
G02*
X152908000Y-101727000I508000J0D01*
G01*
X153416000Y-100711000D02*
X153924000Y-100711000D01*
X149860000Y-105791000D02*
X149860000Y-97663000D01*
X153416000Y-105791000D02*
X149860000Y-105791000D01*
X153924000Y-102743000D02*
X153416000Y-102743000D01*
X151384000Y-103251000D02*
G75*
G02*
X150368000Y-103251000I-508000J0D01*
G01*
X150368000Y-103251000D02*
G75*
G02*
X151384000Y-103251000I508000J0D01*
G01*
X151384000Y-98679000D02*
G75*
G02*
X150368000Y-98679000I-508000J0D01*
G01*
X150368000Y-98679000D02*
G75*
G02*
X151384000Y-98679000I508000J0D01*
G01*
X152908000Y-104775000D02*
G75*
G02*
X151892000Y-104775000I-508000J0D01*
G01*
X151892000Y-104775000D02*
G75*
G02*
X152908000Y-104775000I508000J0D01*
G01*
X149860000Y-97663000D02*
X153416000Y-97663000D01*
X151384000Y-101727000D02*
G75*
G02*
X150368000Y-101727000I-508000J0D01*
G01*
X150368000Y-101727000D02*
G75*
G02*
X151384000Y-101727000I508000J0D01*
G01*
X152908000Y-100203000D02*
G75*
G02*
X151892000Y-100203000I-508000J0D01*
G01*
X151892000Y-100203000D02*
G75*
G02*
X152908000Y-100203000I508000J0D01*
G01*
X153416000Y-97663000D02*
X153416000Y-105791000D01*
X153924000Y-100711000D02*
X153924000Y-102743000D01*
X151384000Y-104775000D02*
G75*
G02*
X150368000Y-104775000I-508000J0D01*
G01*
X150368000Y-104775000D02*
G75*
G02*
X151384000Y-104775000I508000J0D01*
G01*
X148176660Y-103660974D02*
X147926660Y-103303831D01*
X147748089Y-103660974D02*
X147748089Y-102910974D01*
X147748089Y-102910974D02*
X148033803Y-102910974D01*
X148033803Y-102910974D02*
X148105232Y-102946688D01*
X148105232Y-102946688D02*
X148140946Y-102982402D01*
X148140946Y-102982402D02*
X148176660Y-103053831D01*
X148176660Y-103053831D02*
X148176660Y-103160974D01*
X148176660Y-103160974D02*
X148140946Y-103232402D01*
X148140946Y-103232402D02*
X148105232Y-103268117D01*
X148105232Y-103268117D02*
X148033803Y-103303831D01*
X148033803Y-103303831D02*
X147748089Y-103303831D01*
X148426660Y-102910974D02*
X148926660Y-103660974D01*
X148926660Y-102910974D02*
X148426660Y-103660974D01*
X154582375Y-99862974D02*
X155010947Y-99862974D01*
X154796661Y-100612974D02*
X154796661Y-99862974D01*
X155189518Y-99862974D02*
X155689518Y-100612974D01*
X155689518Y-99862974D02*
X155189518Y-100612974D01*
X146962375Y-98338974D02*
X147212375Y-99088974D01*
X147212375Y-99088974D02*
X147462375Y-98338974D01*
X148140946Y-99017545D02*
X148105232Y-99053260D01*
X148105232Y-99053260D02*
X147998089Y-99088974D01*
X147998089Y-99088974D02*
X147926661Y-99088974D01*
X147926661Y-99088974D02*
X147819518Y-99053260D01*
X147819518Y-99053260D02*
X147748089Y-98981831D01*
X147748089Y-98981831D02*
X147712375Y-98910402D01*
X147712375Y-98910402D02*
X147676661Y-98767545D01*
X147676661Y-98767545D02*
X147676661Y-98660402D01*
X147676661Y-98660402D02*
X147712375Y-98517545D01*
X147712375Y-98517545D02*
X147748089Y-98446117D01*
X147748089Y-98446117D02*
X147819518Y-98374688D01*
X147819518Y-98374688D02*
X147926661Y-98338974D01*
X147926661Y-98338974D02*
X147998089Y-98338974D01*
X147998089Y-98338974D02*
X148105232Y-98374688D01*
X148105232Y-98374688D02*
X148140946Y-98410402D01*
X148890946Y-99017545D02*
X148855232Y-99053260D01*
X148855232Y-99053260D02*
X148748089Y-99088974D01*
X148748089Y-99088974D02*
X148676661Y-99088974D01*
X148676661Y-99088974D02*
X148569518Y-99053260D01*
X148569518Y-99053260D02*
X148498089Y-98981831D01*
X148498089Y-98981831D02*
X148462375Y-98910402D01*
X148462375Y-98910402D02*
X148426661Y-98767545D01*
X148426661Y-98767545D02*
X148426661Y-98660402D01*
X148426661Y-98660402D02*
X148462375Y-98517545D01*
X148462375Y-98517545D02*
X148498089Y-98446117D01*
X148498089Y-98446117D02*
X148569518Y-98374688D01*
X148569518Y-98374688D02*
X148676661Y-98338974D01*
X148676661Y-98338974D02*
X148748089Y-98338974D01*
X148748089Y-98338974D02*
X148855232Y-98374688D01*
X148855232Y-98374688D02*
X148890946Y-98410402D01*
D11*
X169500779Y-93341819D02*
X169500779Y-92341819D01*
X170548397Y-93246580D02*
X170500778Y-93294200D01*
X170500778Y-93294200D02*
X170357921Y-93341819D01*
X170357921Y-93341819D02*
X170262683Y-93341819D01*
X170262683Y-93341819D02*
X170119826Y-93294200D01*
X170119826Y-93294200D02*
X170024588Y-93198961D01*
X170024588Y-93198961D02*
X169976969Y-93103723D01*
X169976969Y-93103723D02*
X169929350Y-92913247D01*
X169929350Y-92913247D02*
X169929350Y-92770390D01*
X169929350Y-92770390D02*
X169976969Y-92579914D01*
X169976969Y-92579914D02*
X170024588Y-92484676D01*
X170024588Y-92484676D02*
X170119826Y-92389438D01*
X170119826Y-92389438D02*
X170262683Y-92341819D01*
X170262683Y-92341819D02*
X170357921Y-92341819D01*
X170357921Y-92341819D02*
X170500778Y-92389438D01*
X170500778Y-92389438D02*
X170548397Y-92437057D01*
X170929350Y-93294200D02*
X171072207Y-93341819D01*
X171072207Y-93341819D02*
X171310302Y-93341819D01*
X171310302Y-93341819D02*
X171405540Y-93294200D01*
X171405540Y-93294200D02*
X171453159Y-93246580D01*
X171453159Y-93246580D02*
X171500778Y-93151342D01*
X171500778Y-93151342D02*
X171500778Y-93056104D01*
X171500778Y-93056104D02*
X171453159Y-92960866D01*
X171453159Y-92960866D02*
X171405540Y-92913247D01*
X171405540Y-92913247D02*
X171310302Y-92865628D01*
X171310302Y-92865628D02*
X171119826Y-92818009D01*
X171119826Y-92818009D02*
X171024588Y-92770390D01*
X171024588Y-92770390D02*
X170976969Y-92722771D01*
X170976969Y-92722771D02*
X170929350Y-92627533D01*
X170929350Y-92627533D02*
X170929350Y-92532295D01*
X170929350Y-92532295D02*
X170976969Y-92437057D01*
X170976969Y-92437057D02*
X171024588Y-92389438D01*
X171024588Y-92389438D02*
X171119826Y-92341819D01*
X171119826Y-92341819D02*
X171357921Y-92341819D01*
X171357921Y-92341819D02*
X171500778Y-92389438D01*
X171929350Y-93341819D02*
X171929350Y-92341819D01*
X171929350Y-92341819D02*
X172310302Y-92341819D01*
X172310302Y-92341819D02*
X172405540Y-92389438D01*
X172405540Y-92389438D02*
X172453159Y-92437057D01*
X172453159Y-92437057D02*
X172500778Y-92532295D01*
X172500778Y-92532295D02*
X172500778Y-92675152D01*
X172500778Y-92675152D02*
X172453159Y-92770390D01*
X172453159Y-92770390D02*
X172405540Y-92818009D01*
X172405540Y-92818009D02*
X172310302Y-92865628D01*
X172310302Y-92865628D02*
X171929350Y-92865628D01*
D12*
X93172428Y-97609669D02*
X93172428Y-96752527D01*
X94672428Y-97181098D02*
X93172428Y-97181098D01*
X93172428Y-96395384D02*
X94672428Y-95395384D01*
X93172428Y-95395384D02*
X94672428Y-96395384D01*
X88981428Y-97609669D02*
X90481428Y-97109669D01*
X90481428Y-97109669D02*
X88981428Y-96609669D01*
X90338571Y-95252527D02*
X90410000Y-95323955D01*
X90410000Y-95323955D02*
X90481428Y-95538241D01*
X90481428Y-95538241D02*
X90481428Y-95681098D01*
X90481428Y-95681098D02*
X90410000Y-95895384D01*
X90410000Y-95895384D02*
X90267142Y-96038241D01*
X90267142Y-96038241D02*
X90124285Y-96109670D01*
X90124285Y-96109670D02*
X89838571Y-96181098D01*
X89838571Y-96181098D02*
X89624285Y-96181098D01*
X89624285Y-96181098D02*
X89338571Y-96109670D01*
X89338571Y-96109670D02*
X89195714Y-96038241D01*
X89195714Y-96038241D02*
X89052857Y-95895384D01*
X89052857Y-95895384D02*
X88981428Y-95681098D01*
X88981428Y-95681098D02*
X88981428Y-95538241D01*
X88981428Y-95538241D02*
X89052857Y-95323955D01*
X89052857Y-95323955D02*
X89124285Y-95252527D01*
X90338571Y-93752527D02*
X90410000Y-93823955D01*
X90410000Y-93823955D02*
X90481428Y-94038241D01*
X90481428Y-94038241D02*
X90481428Y-94181098D01*
X90481428Y-94181098D02*
X90410000Y-94395384D01*
X90410000Y-94395384D02*
X90267142Y-94538241D01*
X90267142Y-94538241D02*
X90124285Y-94609670D01*
X90124285Y-94609670D02*
X89838571Y-94681098D01*
X89838571Y-94681098D02*
X89624285Y-94681098D01*
X89624285Y-94681098D02*
X89338571Y-94609670D01*
X89338571Y-94609670D02*
X89195714Y-94538241D01*
X89195714Y-94538241D02*
X89052857Y-94395384D01*
X89052857Y-94395384D02*
X88981428Y-94181098D01*
X88981428Y-94181098D02*
X88981428Y-94038241D01*
X88981428Y-94038241D02*
X89052857Y-93823955D01*
X89052857Y-93823955D02*
X89124285Y-93752527D01*
X122670855Y-103472441D02*
X122742284Y-103543869D01*
X122742284Y-103543869D02*
X122813712Y-103758155D01*
X122813712Y-103758155D02*
X122813712Y-103901012D01*
X122813712Y-103901012D02*
X122742284Y-104115298D01*
X122742284Y-104115298D02*
X122599426Y-104258155D01*
X122599426Y-104258155D02*
X122456569Y-104329584D01*
X122456569Y-104329584D02*
X122170855Y-104401012D01*
X122170855Y-104401012D02*
X121956569Y-104401012D01*
X121956569Y-104401012D02*
X121670855Y-104329584D01*
X121670855Y-104329584D02*
X121527998Y-104258155D01*
X121527998Y-104258155D02*
X121385141Y-104115298D01*
X121385141Y-104115298D02*
X121313712Y-103901012D01*
X121313712Y-103901012D02*
X121313712Y-103758155D01*
X121313712Y-103758155D02*
X121385141Y-103543869D01*
X121385141Y-103543869D02*
X121456569Y-103472441D01*
X122813712Y-102829584D02*
X121313712Y-102829584D01*
X122813712Y-102186727D02*
X122027998Y-102186727D01*
X122027998Y-102186727D02*
X121885141Y-102258155D01*
X121885141Y-102258155D02*
X121813712Y-102401012D01*
X121813712Y-102401012D02*
X121813712Y-102615298D01*
X121813712Y-102615298D02*
X121885141Y-102758155D01*
X121885141Y-102758155D02*
X121956569Y-102829584D01*
X122813712Y-100829584D02*
X122027998Y-100829584D01*
X122027998Y-100829584D02*
X121885141Y-100901012D01*
X121885141Y-100901012D02*
X121813712Y-101043869D01*
X121813712Y-101043869D02*
X121813712Y-101329584D01*
X121813712Y-101329584D02*
X121885141Y-101472441D01*
X122742284Y-100829584D02*
X122813712Y-100972441D01*
X122813712Y-100972441D02*
X122813712Y-101329584D01*
X122813712Y-101329584D02*
X122742284Y-101472441D01*
X122742284Y-101472441D02*
X122599426Y-101543869D01*
X122599426Y-101543869D02*
X122456569Y-101543869D01*
X122456569Y-101543869D02*
X122313712Y-101472441D01*
X122313712Y-101472441D02*
X122242284Y-101329584D01*
X122242284Y-101329584D02*
X122242284Y-100972441D01*
X122242284Y-100972441D02*
X122170855Y-100829584D01*
X122813712Y-100115298D02*
X121813712Y-100115298D01*
X122099426Y-100115298D02*
X121956569Y-100043869D01*
X121956569Y-100043869D02*
X121885141Y-99972441D01*
X121885141Y-99972441D02*
X121813712Y-99829583D01*
X121813712Y-99829583D02*
X121813712Y-99686726D01*
X121813712Y-98543870D02*
X123027998Y-98543870D01*
X123027998Y-98543870D02*
X123170855Y-98615298D01*
X123170855Y-98615298D02*
X123242284Y-98686727D01*
X123242284Y-98686727D02*
X123313712Y-98829584D01*
X123313712Y-98829584D02*
X123313712Y-99043870D01*
X123313712Y-99043870D02*
X123242284Y-99186727D01*
X122742284Y-98543870D02*
X122813712Y-98686727D01*
X122813712Y-98686727D02*
X122813712Y-98972441D01*
X122813712Y-98972441D02*
X122742284Y-99115298D01*
X122742284Y-99115298D02*
X122670855Y-99186727D01*
X122670855Y-99186727D02*
X122527998Y-99258155D01*
X122527998Y-99258155D02*
X122099426Y-99258155D01*
X122099426Y-99258155D02*
X121956569Y-99186727D01*
X121956569Y-99186727D02*
X121885141Y-99115298D01*
X121885141Y-99115298D02*
X121813712Y-98972441D01*
X121813712Y-98972441D02*
X121813712Y-98686727D01*
X121813712Y-98686727D02*
X121885141Y-98543870D01*
X122742284Y-97258155D02*
X122813712Y-97401012D01*
X122813712Y-97401012D02*
X122813712Y-97686727D01*
X122813712Y-97686727D02*
X122742284Y-97829584D01*
X122742284Y-97829584D02*
X122599426Y-97901012D01*
X122599426Y-97901012D02*
X122027998Y-97901012D01*
X122027998Y-97901012D02*
X121885141Y-97829584D01*
X121885141Y-97829584D02*
X121813712Y-97686727D01*
X121813712Y-97686727D02*
X121813712Y-97401012D01*
X121813712Y-97401012D02*
X121885141Y-97258155D01*
X121885141Y-97258155D02*
X122027998Y-97186727D01*
X122027998Y-97186727D02*
X122170855Y-97186727D01*
X122170855Y-97186727D02*
X122313712Y-97901012D01*
X123871485Y-104401012D02*
X123800057Y-104329584D01*
X123800057Y-104329584D02*
X123728628Y-104186727D01*
X123728628Y-104186727D02*
X123728628Y-103829584D01*
X123728628Y-103829584D02*
X123800057Y-103686727D01*
X123800057Y-103686727D02*
X123871485Y-103615298D01*
X123871485Y-103615298D02*
X124014342Y-103543869D01*
X124014342Y-103543869D02*
X124157200Y-103543869D01*
X124157200Y-103543869D02*
X124371485Y-103615298D01*
X124371485Y-103615298D02*
X125228628Y-104472441D01*
X125228628Y-104472441D02*
X125228628Y-103543869D01*
X123728628Y-102615298D02*
X123728628Y-102472441D01*
X123728628Y-102472441D02*
X123800057Y-102329584D01*
X123800057Y-102329584D02*
X123871485Y-102258156D01*
X123871485Y-102258156D02*
X124014342Y-102186727D01*
X124014342Y-102186727D02*
X124300057Y-102115298D01*
X124300057Y-102115298D02*
X124657200Y-102115298D01*
X124657200Y-102115298D02*
X124942914Y-102186727D01*
X124942914Y-102186727D02*
X125085771Y-102258156D01*
X125085771Y-102258156D02*
X125157200Y-102329584D01*
X125157200Y-102329584D02*
X125228628Y-102472441D01*
X125228628Y-102472441D02*
X125228628Y-102615298D01*
X125228628Y-102615298D02*
X125157200Y-102758156D01*
X125157200Y-102758156D02*
X125085771Y-102829584D01*
X125085771Y-102829584D02*
X124942914Y-102901013D01*
X124942914Y-102901013D02*
X124657200Y-102972441D01*
X124657200Y-102972441D02*
X124300057Y-102972441D01*
X124300057Y-102972441D02*
X124014342Y-102901013D01*
X124014342Y-102901013D02*
X123871485Y-102829584D01*
X123871485Y-102829584D02*
X123800057Y-102758156D01*
X123800057Y-102758156D02*
X123728628Y-102615298D01*
X124800057Y-101543870D02*
X124800057Y-100829585D01*
X125228628Y-101686727D02*
X123728628Y-101186727D01*
X123728628Y-101186727D02*
X125228628Y-100686727D01*
X125228628Y-99043871D02*
X123728628Y-99043871D01*
X123728628Y-99043871D02*
X124800057Y-98543871D01*
X124800057Y-98543871D02*
X123728628Y-98043871D01*
X123728628Y-98043871D02*
X125228628Y-98043871D01*
X124800057Y-97401013D02*
X124800057Y-96686728D01*
X125228628Y-97543870D02*
X123728628Y-97043870D01*
X123728628Y-97043870D02*
X125228628Y-96543870D01*
X123728628Y-96186728D02*
X125228628Y-95186728D01*
X123728628Y-95186728D02*
X125228628Y-96186728D01*
X98863428Y-96538241D02*
X98149142Y-97038241D01*
X98863428Y-97395384D02*
X97363428Y-97395384D01*
X97363428Y-97395384D02*
X97363428Y-96823955D01*
X97363428Y-96823955D02*
X97434857Y-96681098D01*
X97434857Y-96681098D02*
X97506285Y-96609669D01*
X97506285Y-96609669D02*
X97649142Y-96538241D01*
X97649142Y-96538241D02*
X97863428Y-96538241D01*
X97863428Y-96538241D02*
X98006285Y-96609669D01*
X98006285Y-96609669D02*
X98077714Y-96681098D01*
X98077714Y-96681098D02*
X98149142Y-96823955D01*
X98149142Y-96823955D02*
X98149142Y-97395384D01*
X97363428Y-96038241D02*
X98863428Y-95038241D01*
X97363428Y-95038241D02*
X98863428Y-96038241D01*
D10*
X147319518Y-101422688D02*
X147248090Y-101386974D01*
X147248090Y-101386974D02*
X147140947Y-101386974D01*
X147140947Y-101386974D02*
X147033804Y-101422688D01*
X147033804Y-101422688D02*
X146962375Y-101494117D01*
X146962375Y-101494117D02*
X146926661Y-101565545D01*
X146926661Y-101565545D02*
X146890947Y-101708402D01*
X146890947Y-101708402D02*
X146890947Y-101815545D01*
X146890947Y-101815545D02*
X146926661Y-101958402D01*
X146926661Y-101958402D02*
X146962375Y-102029831D01*
X146962375Y-102029831D02*
X147033804Y-102101260D01*
X147033804Y-102101260D02*
X147140947Y-102136974D01*
X147140947Y-102136974D02*
X147212375Y-102136974D01*
X147212375Y-102136974D02*
X147319518Y-102101260D01*
X147319518Y-102101260D02*
X147355232Y-102065545D01*
X147355232Y-102065545D02*
X147355232Y-101815545D01*
X147355232Y-101815545D02*
X147212375Y-101815545D01*
X147676661Y-102136974D02*
X147676661Y-101386974D01*
X147676661Y-101386974D02*
X148105232Y-102136974D01*
X148105232Y-102136974D02*
X148105232Y-101386974D01*
X148462375Y-102136974D02*
X148462375Y-101386974D01*
X148462375Y-101386974D02*
X148640946Y-101386974D01*
X148640946Y-101386974D02*
X148748089Y-101422688D01*
X148748089Y-101422688D02*
X148819518Y-101494117D01*
X148819518Y-101494117D02*
X148855232Y-101565545D01*
X148855232Y-101565545D02*
X148890946Y-101708402D01*
X148890946Y-101708402D02*
X148890946Y-101815545D01*
X148890946Y-101815545D02*
X148855232Y-101958402D01*
X148855232Y-101958402D02*
X148819518Y-102029831D01*
X148819518Y-102029831D02*
X148748089Y-102101260D01*
X148748089Y-102101260D02*
X148640946Y-102136974D01*
X148640946Y-102136974D02*
X148462375Y-102136974D01*
X155082375Y-101422688D02*
X155010947Y-101386974D01*
X155010947Y-101386974D02*
X154903804Y-101386974D01*
X154903804Y-101386974D02*
X154796661Y-101422688D01*
X154796661Y-101422688D02*
X154725232Y-101494117D01*
X154725232Y-101494117D02*
X154689518Y-101565545D01*
X154689518Y-101565545D02*
X154653804Y-101708402D01*
X154653804Y-101708402D02*
X154653804Y-101815545D01*
X154653804Y-101815545D02*
X154689518Y-101958402D01*
X154689518Y-101958402D02*
X154725232Y-102029831D01*
X154725232Y-102029831D02*
X154796661Y-102101260D01*
X154796661Y-102101260D02*
X154903804Y-102136974D01*
X154903804Y-102136974D02*
X154975232Y-102136974D01*
X154975232Y-102136974D02*
X155082375Y-102101260D01*
X155082375Y-102101260D02*
X155118089Y-102065545D01*
X155118089Y-102065545D02*
X155118089Y-101815545D01*
X155118089Y-101815545D02*
X154975232Y-101815545D01*
X155439518Y-102136974D02*
X155439518Y-101386974D01*
X155439518Y-101386974D02*
X155868089Y-102136974D01*
X155868089Y-102136974D02*
X155868089Y-101386974D01*
X156225232Y-102136974D02*
X156225232Y-101386974D01*
X156225232Y-101386974D02*
X156403803Y-101386974D01*
X156403803Y-101386974D02*
X156510946Y-101422688D01*
X156510946Y-101422688D02*
X156582375Y-101494117D01*
X156582375Y-101494117D02*
X156618089Y-101565545D01*
X156618089Y-101565545D02*
X156653803Y-101708402D01*
X156653803Y-101708402D02*
X156653803Y-101815545D01*
X156653803Y-101815545D02*
X156618089Y-101958402D01*
X156618089Y-101958402D02*
X156582375Y-102029831D01*
X156582375Y-102029831D02*
X156510946Y-102101260D01*
X156510946Y-102101260D02*
X156403803Y-102136974D01*
X156403803Y-102136974D02*
X156225232Y-102136974D01*
D11*
X87633350Y-55845152D02*
X87633350Y-56654676D01*
X87633350Y-56654676D02*
X87585731Y-56749914D01*
X87585731Y-56749914D02*
X87538112Y-56797533D01*
X87538112Y-56797533D02*
X87442874Y-56845152D01*
X87442874Y-56845152D02*
X87300017Y-56845152D01*
X87300017Y-56845152D02*
X87204779Y-56797533D01*
X87633350Y-56464200D02*
X87538112Y-56511819D01*
X87538112Y-56511819D02*
X87347636Y-56511819D01*
X87347636Y-56511819D02*
X87252398Y-56464200D01*
X87252398Y-56464200D02*
X87204779Y-56416580D01*
X87204779Y-56416580D02*
X87157160Y-56321342D01*
X87157160Y-56321342D02*
X87157160Y-56035628D01*
X87157160Y-56035628D02*
X87204779Y-55940390D01*
X87204779Y-55940390D02*
X87252398Y-55892771D01*
X87252398Y-55892771D02*
X87347636Y-55845152D01*
X87347636Y-55845152D02*
X87538112Y-55845152D01*
X87538112Y-55845152D02*
X87633350Y-55892771D01*
X88109541Y-56511819D02*
X88109541Y-55845152D01*
X88109541Y-55511819D02*
X88061922Y-55559438D01*
X88061922Y-55559438D02*
X88109541Y-55607057D01*
X88109541Y-55607057D02*
X88157160Y-55559438D01*
X88157160Y-55559438D02*
X88109541Y-55511819D01*
X88109541Y-55511819D02*
X88109541Y-55607057D01*
X88442874Y-55845152D02*
X88823826Y-55845152D01*
X88585731Y-55511819D02*
X88585731Y-56368961D01*
X88585731Y-56368961D02*
X88633350Y-56464200D01*
X88633350Y-56464200D02*
X88728588Y-56511819D01*
X88728588Y-56511819D02*
X88823826Y-56511819D01*
X89157160Y-56511819D02*
X89157160Y-55511819D01*
X89585731Y-56511819D02*
X89585731Y-55988009D01*
X89585731Y-55988009D02*
X89538112Y-55892771D01*
X89538112Y-55892771D02*
X89442874Y-55845152D01*
X89442874Y-55845152D02*
X89300017Y-55845152D01*
X89300017Y-55845152D02*
X89204779Y-55892771D01*
X89204779Y-55892771D02*
X89157160Y-55940390D01*
X90490493Y-55845152D02*
X90490493Y-56511819D01*
X90061922Y-55845152D02*
X90061922Y-56368961D01*
X90061922Y-56368961D02*
X90109541Y-56464200D01*
X90109541Y-56464200D02*
X90204779Y-56511819D01*
X90204779Y-56511819D02*
X90347636Y-56511819D01*
X90347636Y-56511819D02*
X90442874Y-56464200D01*
X90442874Y-56464200D02*
X90490493Y-56416580D01*
X90966684Y-56511819D02*
X90966684Y-55511819D01*
X90966684Y-55892771D02*
X91061922Y-55845152D01*
X91061922Y-55845152D02*
X91252398Y-55845152D01*
X91252398Y-55845152D02*
X91347636Y-55892771D01*
X91347636Y-55892771D02*
X91395255Y-55940390D01*
X91395255Y-55940390D02*
X91442874Y-56035628D01*
X91442874Y-56035628D02*
X91442874Y-56321342D01*
X91442874Y-56321342D02*
X91395255Y-56416580D01*
X91395255Y-56416580D02*
X91347636Y-56464200D01*
X91347636Y-56464200D02*
X91252398Y-56511819D01*
X91252398Y-56511819D02*
X91061922Y-56511819D01*
X91061922Y-56511819D02*
X90966684Y-56464200D01*
X91871446Y-56416580D02*
X91919065Y-56464200D01*
X91919065Y-56464200D02*
X91871446Y-56511819D01*
X91871446Y-56511819D02*
X91823827Y-56464200D01*
X91823827Y-56464200D02*
X91871446Y-56416580D01*
X91871446Y-56416580D02*
X91871446Y-56511819D01*
X92776207Y-56464200D02*
X92680969Y-56511819D01*
X92680969Y-56511819D02*
X92490493Y-56511819D01*
X92490493Y-56511819D02*
X92395255Y-56464200D01*
X92395255Y-56464200D02*
X92347636Y-56416580D01*
X92347636Y-56416580D02*
X92300017Y-56321342D01*
X92300017Y-56321342D02*
X92300017Y-56035628D01*
X92300017Y-56035628D02*
X92347636Y-55940390D01*
X92347636Y-55940390D02*
X92395255Y-55892771D01*
X92395255Y-55892771D02*
X92490493Y-55845152D01*
X92490493Y-55845152D02*
X92680969Y-55845152D01*
X92680969Y-55845152D02*
X92776207Y-55892771D01*
X93347636Y-56511819D02*
X93252398Y-56464200D01*
X93252398Y-56464200D02*
X93204779Y-56416580D01*
X93204779Y-56416580D02*
X93157160Y-56321342D01*
X93157160Y-56321342D02*
X93157160Y-56035628D01*
X93157160Y-56035628D02*
X93204779Y-55940390D01*
X93204779Y-55940390D02*
X93252398Y-55892771D01*
X93252398Y-55892771D02*
X93347636Y-55845152D01*
X93347636Y-55845152D02*
X93490493Y-55845152D01*
X93490493Y-55845152D02*
X93585731Y-55892771D01*
X93585731Y-55892771D02*
X93633350Y-55940390D01*
X93633350Y-55940390D02*
X93680969Y-56035628D01*
X93680969Y-56035628D02*
X93680969Y-56321342D01*
X93680969Y-56321342D02*
X93633350Y-56416580D01*
X93633350Y-56416580D02*
X93585731Y-56464200D01*
X93585731Y-56464200D02*
X93490493Y-56511819D01*
X93490493Y-56511819D02*
X93347636Y-56511819D01*
X94109541Y-56511819D02*
X94109541Y-55845152D01*
X94109541Y-55940390D02*
X94157160Y-55892771D01*
X94157160Y-55892771D02*
X94252398Y-55845152D01*
X94252398Y-55845152D02*
X94395255Y-55845152D01*
X94395255Y-55845152D02*
X94490493Y-55892771D01*
X94490493Y-55892771D02*
X94538112Y-55988009D01*
X94538112Y-55988009D02*
X94538112Y-56511819D01*
X94538112Y-55988009D02*
X94585731Y-55892771D01*
X94585731Y-55892771D02*
X94680969Y-55845152D01*
X94680969Y-55845152D02*
X94823826Y-55845152D01*
X94823826Y-55845152D02*
X94919065Y-55892771D01*
X94919065Y-55892771D02*
X94966684Y-55988009D01*
X94966684Y-55988009D02*
X94966684Y-56511819D01*
X96157159Y-55464200D02*
X95300017Y-56749914D01*
X96442874Y-56464200D02*
X96538112Y-56511819D01*
X96538112Y-56511819D02*
X96728588Y-56511819D01*
X96728588Y-56511819D02*
X96823826Y-56464200D01*
X96823826Y-56464200D02*
X96871445Y-56368961D01*
X96871445Y-56368961D02*
X96871445Y-56321342D01*
X96871445Y-56321342D02*
X96823826Y-56226104D01*
X96823826Y-56226104D02*
X96728588Y-56178485D01*
X96728588Y-56178485D02*
X96585731Y-56178485D01*
X96585731Y-56178485D02*
X96490493Y-56130866D01*
X96490493Y-56130866D02*
X96442874Y-56035628D01*
X96442874Y-56035628D02*
X96442874Y-55988009D01*
X96442874Y-55988009D02*
X96490493Y-55892771D01*
X96490493Y-55892771D02*
X96585731Y-55845152D01*
X96585731Y-55845152D02*
X96728588Y-55845152D01*
X96728588Y-55845152D02*
X96823826Y-55892771D01*
X97204779Y-55845152D02*
X97442874Y-56511819D01*
X97442874Y-56511819D02*
X97680969Y-55845152D01*
X98061922Y-55845152D02*
X98061922Y-56845152D01*
X98061922Y-55892771D02*
X98157160Y-55845152D01*
X98157160Y-55845152D02*
X98347636Y-55845152D01*
X98347636Y-55845152D02*
X98442874Y-55892771D01*
X98442874Y-55892771D02*
X98490493Y-55940390D01*
X98490493Y-55940390D02*
X98538112Y-56035628D01*
X98538112Y-56035628D02*
X98538112Y-56321342D01*
X98538112Y-56321342D02*
X98490493Y-56416580D01*
X98490493Y-56416580D02*
X98442874Y-56464200D01*
X98442874Y-56464200D02*
X98347636Y-56511819D01*
X98347636Y-56511819D02*
X98157160Y-56511819D01*
X98157160Y-56511819D02*
X98061922Y-56464200D01*
X99347636Y-56464200D02*
X99252398Y-56511819D01*
X99252398Y-56511819D02*
X99061922Y-56511819D01*
X99061922Y-56511819D02*
X98966684Y-56464200D01*
X98966684Y-56464200D02*
X98919065Y-56368961D01*
X98919065Y-56368961D02*
X98919065Y-55988009D01*
X98919065Y-55988009D02*
X98966684Y-55892771D01*
X98966684Y-55892771D02*
X99061922Y-55845152D01*
X99061922Y-55845152D02*
X99252398Y-55845152D01*
X99252398Y-55845152D02*
X99347636Y-55892771D01*
X99347636Y-55892771D02*
X99395255Y-55988009D01*
X99395255Y-55988009D02*
X99395255Y-56083247D01*
X99395255Y-56083247D02*
X98919065Y-56178485D01*
X99680970Y-55845152D02*
X100061922Y-55845152D01*
X99823827Y-55511819D02*
X99823827Y-56368961D01*
X99823827Y-56368961D02*
X99871446Y-56464200D01*
X99871446Y-56464200D02*
X99966684Y-56511819D01*
X99966684Y-56511819D02*
X100061922Y-56511819D01*
X100395256Y-56511819D02*
X100395256Y-55845152D01*
X100395256Y-56035628D02*
X100442875Y-55940390D01*
X100442875Y-55940390D02*
X100490494Y-55892771D01*
X100490494Y-55892771D02*
X100585732Y-55845152D01*
X100585732Y-55845152D02*
X100680970Y-55845152D01*
X100919066Y-55845152D02*
X101157161Y-56511819D01*
X101395256Y-55845152D02*
X101157161Y-56511819D01*
X101157161Y-56511819D02*
X101061923Y-56749914D01*
X101061923Y-56749914D02*
X101014304Y-56797533D01*
X101014304Y-56797533D02*
X100919066Y-56845152D01*
X102490494Y-55464200D02*
X101633352Y-56749914D01*
X102680971Y-55511819D02*
X103252399Y-55511819D01*
X102966685Y-56511819D02*
X102966685Y-55511819D01*
X103966685Y-56464200D02*
X103871447Y-56511819D01*
X103871447Y-56511819D02*
X103680971Y-56511819D01*
X103680971Y-56511819D02*
X103585733Y-56464200D01*
X103585733Y-56464200D02*
X103538114Y-56368961D01*
X103538114Y-56368961D02*
X103538114Y-55988009D01*
X103538114Y-55988009D02*
X103585733Y-55892771D01*
X103585733Y-55892771D02*
X103680971Y-55845152D01*
X103680971Y-55845152D02*
X103871447Y-55845152D01*
X103871447Y-55845152D02*
X103966685Y-55892771D01*
X103966685Y-55892771D02*
X104014304Y-55988009D01*
X104014304Y-55988009D02*
X104014304Y-56083247D01*
X104014304Y-56083247D02*
X103538114Y-56178485D01*
X104395257Y-56464200D02*
X104490495Y-56511819D01*
X104490495Y-56511819D02*
X104680971Y-56511819D01*
X104680971Y-56511819D02*
X104776209Y-56464200D01*
X104776209Y-56464200D02*
X104823828Y-56368961D01*
X104823828Y-56368961D02*
X104823828Y-56321342D01*
X104823828Y-56321342D02*
X104776209Y-56226104D01*
X104776209Y-56226104D02*
X104680971Y-56178485D01*
X104680971Y-56178485D02*
X104538114Y-56178485D01*
X104538114Y-56178485D02*
X104442876Y-56130866D01*
X104442876Y-56130866D02*
X104395257Y-56035628D01*
X104395257Y-56035628D02*
X104395257Y-55988009D01*
X104395257Y-55988009D02*
X104442876Y-55892771D01*
X104442876Y-55892771D02*
X104538114Y-55845152D01*
X104538114Y-55845152D02*
X104680971Y-55845152D01*
X104680971Y-55845152D02*
X104776209Y-55892771D01*
X105395257Y-56511819D02*
X105300019Y-56464200D01*
X105300019Y-56464200D02*
X105252400Y-56368961D01*
X105252400Y-56368961D02*
X105252400Y-55511819D01*
X106204781Y-56511819D02*
X106204781Y-55988009D01*
X106204781Y-55988009D02*
X106157162Y-55892771D01*
X106157162Y-55892771D02*
X106061924Y-55845152D01*
X106061924Y-55845152D02*
X105871448Y-55845152D01*
X105871448Y-55845152D02*
X105776210Y-55892771D01*
X106204781Y-56464200D02*
X106109543Y-56511819D01*
X106109543Y-56511819D02*
X105871448Y-56511819D01*
X105871448Y-56511819D02*
X105776210Y-56464200D01*
X105776210Y-56464200D02*
X105728591Y-56368961D01*
X105728591Y-56368961D02*
X105728591Y-56273723D01*
X105728591Y-56273723D02*
X105776210Y-56178485D01*
X105776210Y-56178485D02*
X105871448Y-56130866D01*
X105871448Y-56130866D02*
X106109543Y-56130866D01*
X106109543Y-56130866D02*
X106204781Y-56083247D01*
X107014305Y-55988009D02*
X107157162Y-56035628D01*
X107157162Y-56035628D02*
X107204781Y-56083247D01*
X107204781Y-56083247D02*
X107252400Y-56178485D01*
X107252400Y-56178485D02*
X107252400Y-56321342D01*
X107252400Y-56321342D02*
X107204781Y-56416580D01*
X107204781Y-56416580D02*
X107157162Y-56464200D01*
X107157162Y-56464200D02*
X107061924Y-56511819D01*
X107061924Y-56511819D02*
X106680972Y-56511819D01*
X106680972Y-56511819D02*
X106680972Y-55511819D01*
X106680972Y-55511819D02*
X107014305Y-55511819D01*
X107014305Y-55511819D02*
X107109543Y-55559438D01*
X107109543Y-55559438D02*
X107157162Y-55607057D01*
X107157162Y-55607057D02*
X107204781Y-55702295D01*
X107204781Y-55702295D02*
X107204781Y-55797533D01*
X107204781Y-55797533D02*
X107157162Y-55892771D01*
X107157162Y-55892771D02*
X107109543Y-55940390D01*
X107109543Y-55940390D02*
X107014305Y-55988009D01*
X107014305Y-55988009D02*
X106680972Y-55988009D01*
X107680972Y-56511819D02*
X107680972Y-55511819D01*
X107680972Y-55511819D02*
X108014305Y-56226104D01*
X108014305Y-56226104D02*
X108347638Y-55511819D01*
X108347638Y-55511819D02*
X108347638Y-56511819D01*
X109157162Y-55988009D02*
X109300019Y-56035628D01*
X109300019Y-56035628D02*
X109347638Y-56083247D01*
X109347638Y-56083247D02*
X109395257Y-56178485D01*
X109395257Y-56178485D02*
X109395257Y-56321342D01*
X109395257Y-56321342D02*
X109347638Y-56416580D01*
X109347638Y-56416580D02*
X109300019Y-56464200D01*
X109300019Y-56464200D02*
X109204781Y-56511819D01*
X109204781Y-56511819D02*
X108823829Y-56511819D01*
X108823829Y-56511819D02*
X108823829Y-55511819D01*
X108823829Y-55511819D02*
X109157162Y-55511819D01*
X109157162Y-55511819D02*
X109252400Y-55559438D01*
X109252400Y-55559438D02*
X109300019Y-55607057D01*
X109300019Y-55607057D02*
X109347638Y-55702295D01*
X109347638Y-55702295D02*
X109347638Y-55797533D01*
X109347638Y-55797533D02*
X109300019Y-55892771D01*
X109300019Y-55892771D02*
X109252400Y-55940390D01*
X109252400Y-55940390D02*
X109157162Y-55988009D01*
X109157162Y-55988009D02*
X108823829Y-55988009D01*
X110395257Y-56416580D02*
X110347638Y-56464200D01*
X110347638Y-56464200D02*
X110204781Y-56511819D01*
X110204781Y-56511819D02*
X110109543Y-56511819D01*
X110109543Y-56511819D02*
X109966686Y-56464200D01*
X109966686Y-56464200D02*
X109871448Y-56368961D01*
X109871448Y-56368961D02*
X109823829Y-56273723D01*
X109823829Y-56273723D02*
X109776210Y-56083247D01*
X109776210Y-56083247D02*
X109776210Y-55940390D01*
X109776210Y-55940390D02*
X109823829Y-55749914D01*
X109823829Y-55749914D02*
X109871448Y-55654676D01*
X109871448Y-55654676D02*
X109966686Y-55559438D01*
X109966686Y-55559438D02*
X110109543Y-55511819D01*
X110109543Y-55511819D02*
X110204781Y-55511819D01*
X110204781Y-55511819D02*
X110347638Y-55559438D01*
X110347638Y-55559438D02*
X110395257Y-55607057D01*
X110823829Y-56511819D02*
X110823829Y-55511819D01*
X111252400Y-56511819D02*
X111252400Y-55988009D01*
X111252400Y-55988009D02*
X111204781Y-55892771D01*
X111204781Y-55892771D02*
X111109543Y-55845152D01*
X111109543Y-55845152D02*
X110966686Y-55845152D01*
X110966686Y-55845152D02*
X110871448Y-55892771D01*
X110871448Y-55892771D02*
X110823829Y-55940390D01*
X112109543Y-56464200D02*
X112014305Y-56511819D01*
X112014305Y-56511819D02*
X111823829Y-56511819D01*
X111823829Y-56511819D02*
X111728591Y-56464200D01*
X111728591Y-56464200D02*
X111680972Y-56368961D01*
X111680972Y-56368961D02*
X111680972Y-55988009D01*
X111680972Y-55988009D02*
X111728591Y-55892771D01*
X111728591Y-55892771D02*
X111823829Y-55845152D01*
X111823829Y-55845152D02*
X112014305Y-55845152D01*
X112014305Y-55845152D02*
X112109543Y-55892771D01*
X112109543Y-55892771D02*
X112157162Y-55988009D01*
X112157162Y-55988009D02*
X112157162Y-56083247D01*
X112157162Y-56083247D02*
X111680972Y-56178485D01*
X113014305Y-56464200D02*
X112919067Y-56511819D01*
X112919067Y-56511819D02*
X112728591Y-56511819D01*
X112728591Y-56511819D02*
X112633353Y-56464200D01*
X112633353Y-56464200D02*
X112585734Y-56416580D01*
X112585734Y-56416580D02*
X112538115Y-56321342D01*
X112538115Y-56321342D02*
X112538115Y-56035628D01*
X112538115Y-56035628D02*
X112585734Y-55940390D01*
X112585734Y-55940390D02*
X112633353Y-55892771D01*
X112633353Y-55892771D02*
X112728591Y-55845152D01*
X112728591Y-55845152D02*
X112919067Y-55845152D01*
X112919067Y-55845152D02*
X113014305Y-55892771D01*
X113442877Y-56511819D02*
X113442877Y-55511819D01*
X113538115Y-56130866D02*
X113823829Y-56511819D01*
X113823829Y-55845152D02*
X113442877Y-56226104D01*
D10*
X147819517Y-99862974D02*
X148248089Y-99862974D01*
X148033803Y-100612974D02*
X148033803Y-99862974D01*
X148426660Y-99862974D02*
X148926660Y-100612974D01*
X148926660Y-99862974D02*
X148426660Y-100612974D01*
D11*
X102825779Y-69465819D02*
X102825779Y-68465819D01*
X102825779Y-68465819D02*
X103206731Y-68465819D01*
X103206731Y-68465819D02*
X103301969Y-68513438D01*
X103301969Y-68513438D02*
X103349588Y-68561057D01*
X103349588Y-68561057D02*
X103397207Y-68656295D01*
X103397207Y-68656295D02*
X103397207Y-68799152D01*
X103397207Y-68799152D02*
X103349588Y-68894390D01*
X103349588Y-68894390D02*
X103301969Y-68942009D01*
X103301969Y-68942009D02*
X103206731Y-68989628D01*
X103206731Y-68989628D02*
X102825779Y-68989628D01*
X103825779Y-69465819D02*
X103825779Y-68465819D01*
X104873397Y-69370580D02*
X104825778Y-69418200D01*
X104825778Y-69418200D02*
X104682921Y-69465819D01*
X104682921Y-69465819D02*
X104587683Y-69465819D01*
X104587683Y-69465819D02*
X104444826Y-69418200D01*
X104444826Y-69418200D02*
X104349588Y-69322961D01*
X104349588Y-69322961D02*
X104301969Y-69227723D01*
X104301969Y-69227723D02*
X104254350Y-69037247D01*
X104254350Y-69037247D02*
X104254350Y-68894390D01*
X104254350Y-68894390D02*
X104301969Y-68703914D01*
X104301969Y-68703914D02*
X104349588Y-68608676D01*
X104349588Y-68608676D02*
X104444826Y-68513438D01*
X104444826Y-68513438D02*
X104587683Y-68465819D01*
X104587683Y-68465819D02*
X104682921Y-68465819D01*
X104682921Y-68465819D02*
X104825778Y-68513438D01*
X104825778Y-68513438D02*
X104873397Y-68561057D01*
X105825778Y-69465819D02*
X105254350Y-69465819D01*
X105540064Y-69465819D02*
X105540064Y-68465819D01*
X105540064Y-68465819D02*
X105444826Y-68608676D01*
X105444826Y-68608676D02*
X105349588Y-68703914D01*
X105349588Y-68703914D02*
X105254350Y-68751533D01*
X106397207Y-68894390D02*
X106301969Y-68846771D01*
X106301969Y-68846771D02*
X106254350Y-68799152D01*
X106254350Y-68799152D02*
X106206731Y-68703914D01*
X106206731Y-68703914D02*
X106206731Y-68656295D01*
X106206731Y-68656295D02*
X106254350Y-68561057D01*
X106254350Y-68561057D02*
X106301969Y-68513438D01*
X106301969Y-68513438D02*
X106397207Y-68465819D01*
X106397207Y-68465819D02*
X106587683Y-68465819D01*
X106587683Y-68465819D02*
X106682921Y-68513438D01*
X106682921Y-68513438D02*
X106730540Y-68561057D01*
X106730540Y-68561057D02*
X106778159Y-68656295D01*
X106778159Y-68656295D02*
X106778159Y-68703914D01*
X106778159Y-68703914D02*
X106730540Y-68799152D01*
X106730540Y-68799152D02*
X106682921Y-68846771D01*
X106682921Y-68846771D02*
X106587683Y-68894390D01*
X106587683Y-68894390D02*
X106397207Y-68894390D01*
X106397207Y-68894390D02*
X106301969Y-68942009D01*
X106301969Y-68942009D02*
X106254350Y-68989628D01*
X106254350Y-68989628D02*
X106206731Y-69084866D01*
X106206731Y-69084866D02*
X106206731Y-69275342D01*
X106206731Y-69275342D02*
X106254350Y-69370580D01*
X106254350Y-69370580D02*
X106301969Y-69418200D01*
X106301969Y-69418200D02*
X106397207Y-69465819D01*
X106397207Y-69465819D02*
X106587683Y-69465819D01*
X106587683Y-69465819D02*
X106682921Y-69418200D01*
X106682921Y-69418200D02*
X106730540Y-69370580D01*
X106730540Y-69370580D02*
X106778159Y-69275342D01*
X106778159Y-69275342D02*
X106778159Y-69084866D01*
X106778159Y-69084866D02*
X106730540Y-68989628D01*
X106730540Y-68989628D02*
X106682921Y-68942009D01*
X106682921Y-68942009D02*
X106587683Y-68894390D01*
X107540064Y-68942009D02*
X107206731Y-68942009D01*
X107206731Y-69465819D02*
X107206731Y-68465819D01*
X107206731Y-68465819D02*
X107682921Y-68465819D01*
X108016255Y-68561057D02*
X108063874Y-68513438D01*
X108063874Y-68513438D02*
X108159112Y-68465819D01*
X108159112Y-68465819D02*
X108397207Y-68465819D01*
X108397207Y-68465819D02*
X108492445Y-68513438D01*
X108492445Y-68513438D02*
X108540064Y-68561057D01*
X108540064Y-68561057D02*
X108587683Y-68656295D01*
X108587683Y-68656295D02*
X108587683Y-68751533D01*
X108587683Y-68751533D02*
X108540064Y-68894390D01*
X108540064Y-68894390D02*
X107968636Y-69465819D01*
X107968636Y-69465819D02*
X108587683Y-69465819D01*
X109444826Y-68799152D02*
X109444826Y-69465819D01*
X109206731Y-68418200D02*
X108968636Y-69132485D01*
X108968636Y-69132485D02*
X109587683Y-69132485D01*
X109873398Y-69465819D02*
X110397207Y-68799152D01*
X109873398Y-68799152D02*
X110397207Y-69465819D01*
X110682922Y-69465819D02*
X111206731Y-68799152D01*
X110682922Y-68799152D02*
X111206731Y-69465819D01*
D12*
X101625857Y-96609669D02*
X101554428Y-96752527D01*
X101554428Y-96752527D02*
X101554428Y-96966812D01*
X101554428Y-96966812D02*
X101625857Y-97181098D01*
X101625857Y-97181098D02*
X101768714Y-97323955D01*
X101768714Y-97323955D02*
X101911571Y-97395384D01*
X101911571Y-97395384D02*
X102197285Y-97466812D01*
X102197285Y-97466812D02*
X102411571Y-97466812D01*
X102411571Y-97466812D02*
X102697285Y-97395384D01*
X102697285Y-97395384D02*
X102840142Y-97323955D01*
X102840142Y-97323955D02*
X102983000Y-97181098D01*
X102983000Y-97181098D02*
X103054428Y-96966812D01*
X103054428Y-96966812D02*
X103054428Y-96823955D01*
X103054428Y-96823955D02*
X102983000Y-96609669D01*
X102983000Y-96609669D02*
X102911571Y-96538241D01*
X102911571Y-96538241D02*
X102411571Y-96538241D01*
X102411571Y-96538241D02*
X102411571Y-96823955D01*
X103054428Y-95895384D02*
X101554428Y-95895384D01*
X101554428Y-95895384D02*
X103054428Y-95038241D01*
X103054428Y-95038241D02*
X101554428Y-95038241D01*
X103054428Y-94323955D02*
X101554428Y-94323955D01*
X101554428Y-94323955D02*
X101554428Y-93966812D01*
X101554428Y-93966812D02*
X101625857Y-93752526D01*
X101625857Y-93752526D02*
X101768714Y-93609669D01*
X101768714Y-93609669D02*
X101911571Y-93538240D01*
X101911571Y-93538240D02*
X102197285Y-93466812D01*
X102197285Y-93466812D02*
X102411571Y-93466812D01*
X102411571Y-93466812D02*
X102697285Y-93538240D01*
X102697285Y-93538240D02*
X102840142Y-93609669D01*
X102840142Y-93609669D02*
X102983000Y-93752526D01*
X102983000Y-93752526D02*
X103054428Y-93966812D01*
X103054428Y-93966812D02*
X103054428Y-94323955D01*
D11*
X159451922Y-98138931D02*
X160023350Y-98138931D01*
X159737636Y-99138931D02*
X159737636Y-98138931D01*
X160737636Y-99091312D02*
X160642398Y-99138931D01*
X160642398Y-99138931D02*
X160451922Y-99138931D01*
X160451922Y-99138931D02*
X160356684Y-99091312D01*
X160356684Y-99091312D02*
X160309065Y-98996073D01*
X160309065Y-98996073D02*
X160309065Y-98615121D01*
X160309065Y-98615121D02*
X160356684Y-98519883D01*
X160356684Y-98519883D02*
X160451922Y-98472264D01*
X160451922Y-98472264D02*
X160642398Y-98472264D01*
X160642398Y-98472264D02*
X160737636Y-98519883D01*
X160737636Y-98519883D02*
X160785255Y-98615121D01*
X160785255Y-98615121D02*
X160785255Y-98710359D01*
X160785255Y-98710359D02*
X160309065Y-98805597D01*
X161166208Y-99091312D02*
X161261446Y-99138931D01*
X161261446Y-99138931D02*
X161451922Y-99138931D01*
X161451922Y-99138931D02*
X161547160Y-99091312D01*
X161547160Y-99091312D02*
X161594779Y-98996073D01*
X161594779Y-98996073D02*
X161594779Y-98948454D01*
X161594779Y-98948454D02*
X161547160Y-98853216D01*
X161547160Y-98853216D02*
X161451922Y-98805597D01*
X161451922Y-98805597D02*
X161309065Y-98805597D01*
X161309065Y-98805597D02*
X161213827Y-98757978D01*
X161213827Y-98757978D02*
X161166208Y-98662740D01*
X161166208Y-98662740D02*
X161166208Y-98615121D01*
X161166208Y-98615121D02*
X161213827Y-98519883D01*
X161213827Y-98519883D02*
X161309065Y-98472264D01*
X161309065Y-98472264D02*
X161451922Y-98472264D01*
X161451922Y-98472264D02*
X161547160Y-98519883D01*
X162166208Y-99138931D02*
X162070970Y-99091312D01*
X162070970Y-99091312D02*
X162023351Y-98996073D01*
X162023351Y-98996073D02*
X162023351Y-98138931D01*
X162975732Y-99138931D02*
X162975732Y-98615121D01*
X162975732Y-98615121D02*
X162928113Y-98519883D01*
X162928113Y-98519883D02*
X162832875Y-98472264D01*
X162832875Y-98472264D02*
X162642399Y-98472264D01*
X162642399Y-98472264D02*
X162547161Y-98519883D01*
X162975732Y-99091312D02*
X162880494Y-99138931D01*
X162880494Y-99138931D02*
X162642399Y-99138931D01*
X162642399Y-99138931D02*
X162547161Y-99091312D01*
X162547161Y-99091312D02*
X162499542Y-98996073D01*
X162499542Y-98996073D02*
X162499542Y-98900835D01*
X162499542Y-98900835D02*
X162547161Y-98805597D01*
X162547161Y-98805597D02*
X162642399Y-98757978D01*
X162642399Y-98757978D02*
X162880494Y-98757978D01*
X162880494Y-98757978D02*
X162975732Y-98710359D01*
X164213828Y-99138931D02*
X164213828Y-98138931D01*
X164213828Y-98138931D02*
X164547161Y-98853216D01*
X164547161Y-98853216D02*
X164880494Y-98138931D01*
X164880494Y-98138931D02*
X164880494Y-99138931D01*
X165499542Y-99138931D02*
X165404304Y-99091312D01*
X165404304Y-99091312D02*
X165356685Y-99043692D01*
X165356685Y-99043692D02*
X165309066Y-98948454D01*
X165309066Y-98948454D02*
X165309066Y-98662740D01*
X165309066Y-98662740D02*
X165356685Y-98567502D01*
X165356685Y-98567502D02*
X165404304Y-98519883D01*
X165404304Y-98519883D02*
X165499542Y-98472264D01*
X165499542Y-98472264D02*
X165642399Y-98472264D01*
X165642399Y-98472264D02*
X165737637Y-98519883D01*
X165737637Y-98519883D02*
X165785256Y-98567502D01*
X165785256Y-98567502D02*
X165832875Y-98662740D01*
X165832875Y-98662740D02*
X165832875Y-98948454D01*
X165832875Y-98948454D02*
X165785256Y-99043692D01*
X165785256Y-99043692D02*
X165737637Y-99091312D01*
X165737637Y-99091312D02*
X165642399Y-99138931D01*
X165642399Y-99138931D02*
X165499542Y-99138931D01*
X166690018Y-99138931D02*
X166690018Y-98138931D01*
X166690018Y-99091312D02*
X166594780Y-99138931D01*
X166594780Y-99138931D02*
X166404304Y-99138931D01*
X166404304Y-99138931D02*
X166309066Y-99091312D01*
X166309066Y-99091312D02*
X166261447Y-99043692D01*
X166261447Y-99043692D02*
X166213828Y-98948454D01*
X166213828Y-98948454D02*
X166213828Y-98662740D01*
X166213828Y-98662740D02*
X166261447Y-98567502D01*
X166261447Y-98567502D02*
X166309066Y-98519883D01*
X166309066Y-98519883D02*
X166404304Y-98472264D01*
X166404304Y-98472264D02*
X166594780Y-98472264D01*
X166594780Y-98472264D02*
X166690018Y-98519883D01*
X167547161Y-99091312D02*
X167451923Y-99138931D01*
X167451923Y-99138931D02*
X167261447Y-99138931D01*
X167261447Y-99138931D02*
X167166209Y-99091312D01*
X167166209Y-99091312D02*
X167118590Y-98996073D01*
X167118590Y-98996073D02*
X167118590Y-98615121D01*
X167118590Y-98615121D02*
X167166209Y-98519883D01*
X167166209Y-98519883D02*
X167261447Y-98472264D01*
X167261447Y-98472264D02*
X167451923Y-98472264D01*
X167451923Y-98472264D02*
X167547161Y-98519883D01*
X167547161Y-98519883D02*
X167594780Y-98615121D01*
X167594780Y-98615121D02*
X167594780Y-98710359D01*
X167594780Y-98710359D02*
X167118590Y-98805597D01*
X168166209Y-99138931D02*
X168070971Y-99091312D01*
X168070971Y-99091312D02*
X168023352Y-98996073D01*
X168023352Y-98996073D02*
X168023352Y-98138931D01*
X169261448Y-99091312D02*
X169404305Y-99138931D01*
X169404305Y-99138931D02*
X169642400Y-99138931D01*
X169642400Y-99138931D02*
X169737638Y-99091312D01*
X169737638Y-99091312D02*
X169785257Y-99043692D01*
X169785257Y-99043692D02*
X169832876Y-98948454D01*
X169832876Y-98948454D02*
X169832876Y-98853216D01*
X169832876Y-98853216D02*
X169785257Y-98757978D01*
X169785257Y-98757978D02*
X169737638Y-98710359D01*
X169737638Y-98710359D02*
X169642400Y-98662740D01*
X169642400Y-98662740D02*
X169451924Y-98615121D01*
X169451924Y-98615121D02*
X169356686Y-98567502D01*
X169356686Y-98567502D02*
X169309067Y-98519883D01*
X169309067Y-98519883D02*
X169261448Y-98424645D01*
X169261448Y-98424645D02*
X169261448Y-98329407D01*
X169261448Y-98329407D02*
X169309067Y-98234169D01*
X169309067Y-98234169D02*
X169356686Y-98186550D01*
X169356686Y-98186550D02*
X169451924Y-98138931D01*
X169451924Y-98138931D02*
X169690019Y-98138931D01*
X169690019Y-98138931D02*
X169832876Y-98186550D01*
X159928112Y-100225065D02*
X160070969Y-100272684D01*
X160070969Y-100272684D02*
X160118588Y-100320303D01*
X160118588Y-100320303D02*
X160166207Y-100415541D01*
X160166207Y-100415541D02*
X160166207Y-100558398D01*
X160166207Y-100558398D02*
X160118588Y-100653636D01*
X160118588Y-100653636D02*
X160070969Y-100701256D01*
X160070969Y-100701256D02*
X159975731Y-100748875D01*
X159975731Y-100748875D02*
X159594779Y-100748875D01*
X159594779Y-100748875D02*
X159594779Y-99748875D01*
X159594779Y-99748875D02*
X159928112Y-99748875D01*
X159928112Y-99748875D02*
X160023350Y-99796494D01*
X160023350Y-99796494D02*
X160070969Y-99844113D01*
X160070969Y-99844113D02*
X160118588Y-99939351D01*
X160118588Y-99939351D02*
X160118588Y-100034589D01*
X160118588Y-100034589D02*
X160070969Y-100129827D01*
X160070969Y-100129827D02*
X160023350Y-100177446D01*
X160023350Y-100177446D02*
X159928112Y-100225065D01*
X159928112Y-100225065D02*
X159594779Y-100225065D01*
X160594779Y-100748875D02*
X160594779Y-99748875D01*
X160594779Y-99748875D02*
X160928112Y-100463160D01*
X160928112Y-100463160D02*
X161261445Y-99748875D01*
X161261445Y-99748875D02*
X161261445Y-100748875D01*
X162070969Y-100225065D02*
X162213826Y-100272684D01*
X162213826Y-100272684D02*
X162261445Y-100320303D01*
X162261445Y-100320303D02*
X162309064Y-100415541D01*
X162309064Y-100415541D02*
X162309064Y-100558398D01*
X162309064Y-100558398D02*
X162261445Y-100653636D01*
X162261445Y-100653636D02*
X162213826Y-100701256D01*
X162213826Y-100701256D02*
X162118588Y-100748875D01*
X162118588Y-100748875D02*
X161737636Y-100748875D01*
X161737636Y-100748875D02*
X161737636Y-99748875D01*
X161737636Y-99748875D02*
X162070969Y-99748875D01*
X162070969Y-99748875D02*
X162166207Y-99796494D01*
X162166207Y-99796494D02*
X162213826Y-99844113D01*
X162213826Y-99844113D02*
X162261445Y-99939351D01*
X162261445Y-99939351D02*
X162261445Y-100034589D01*
X162261445Y-100034589D02*
X162213826Y-100129827D01*
X162213826Y-100129827D02*
X162166207Y-100177446D01*
X162166207Y-100177446D02*
X162070969Y-100225065D01*
X162070969Y-100225065D02*
X161737636Y-100225065D01*
X164070969Y-100653636D02*
X164023350Y-100701256D01*
X164023350Y-100701256D02*
X163880493Y-100748875D01*
X163880493Y-100748875D02*
X163785255Y-100748875D01*
X163785255Y-100748875D02*
X163642398Y-100701256D01*
X163642398Y-100701256D02*
X163547160Y-100606017D01*
X163547160Y-100606017D02*
X163499541Y-100510779D01*
X163499541Y-100510779D02*
X163451922Y-100320303D01*
X163451922Y-100320303D02*
X163451922Y-100177446D01*
X163451922Y-100177446D02*
X163499541Y-99986970D01*
X163499541Y-99986970D02*
X163547160Y-99891732D01*
X163547160Y-99891732D02*
X163642398Y-99796494D01*
X163642398Y-99796494D02*
X163785255Y-99748875D01*
X163785255Y-99748875D02*
X163880493Y-99748875D01*
X163880493Y-99748875D02*
X164023350Y-99796494D01*
X164023350Y-99796494D02*
X164070969Y-99844113D01*
X164642398Y-100748875D02*
X164547160Y-100701256D01*
X164547160Y-100701256D02*
X164499541Y-100653636D01*
X164499541Y-100653636D02*
X164451922Y-100558398D01*
X164451922Y-100558398D02*
X164451922Y-100272684D01*
X164451922Y-100272684D02*
X164499541Y-100177446D01*
X164499541Y-100177446D02*
X164547160Y-100129827D01*
X164547160Y-100129827D02*
X164642398Y-100082208D01*
X164642398Y-100082208D02*
X164785255Y-100082208D01*
X164785255Y-100082208D02*
X164880493Y-100129827D01*
X164880493Y-100129827D02*
X164928112Y-100177446D01*
X164928112Y-100177446D02*
X164975731Y-100272684D01*
X164975731Y-100272684D02*
X164975731Y-100558398D01*
X164975731Y-100558398D02*
X164928112Y-100653636D01*
X164928112Y-100653636D02*
X164880493Y-100701256D01*
X164880493Y-100701256D02*
X164785255Y-100748875D01*
X164785255Y-100748875D02*
X164642398Y-100748875D01*
X165404303Y-100082208D02*
X165404303Y-100748875D01*
X165404303Y-100177446D02*
X165451922Y-100129827D01*
X165451922Y-100129827D02*
X165547160Y-100082208D01*
X165547160Y-100082208D02*
X165690017Y-100082208D01*
X165690017Y-100082208D02*
X165785255Y-100129827D01*
X165785255Y-100129827D02*
X165832874Y-100225065D01*
X165832874Y-100225065D02*
X165832874Y-100748875D01*
X166309065Y-100082208D02*
X166309065Y-100748875D01*
X166309065Y-100177446D02*
X166356684Y-100129827D01*
X166356684Y-100129827D02*
X166451922Y-100082208D01*
X166451922Y-100082208D02*
X166594779Y-100082208D01*
X166594779Y-100082208D02*
X166690017Y-100129827D01*
X166690017Y-100129827D02*
X166737636Y-100225065D01*
X166737636Y-100225065D02*
X166737636Y-100748875D01*
X167594779Y-100701256D02*
X167499541Y-100748875D01*
X167499541Y-100748875D02*
X167309065Y-100748875D01*
X167309065Y-100748875D02*
X167213827Y-100701256D01*
X167213827Y-100701256D02*
X167166208Y-100606017D01*
X167166208Y-100606017D02*
X167166208Y-100225065D01*
X167166208Y-100225065D02*
X167213827Y-100129827D01*
X167213827Y-100129827D02*
X167309065Y-100082208D01*
X167309065Y-100082208D02*
X167499541Y-100082208D01*
X167499541Y-100082208D02*
X167594779Y-100129827D01*
X167594779Y-100129827D02*
X167642398Y-100225065D01*
X167642398Y-100225065D02*
X167642398Y-100320303D01*
X167642398Y-100320303D02*
X167166208Y-100415541D01*
X168499541Y-100701256D02*
X168404303Y-100748875D01*
X168404303Y-100748875D02*
X168213827Y-100748875D01*
X168213827Y-100748875D02*
X168118589Y-100701256D01*
X168118589Y-100701256D02*
X168070970Y-100653636D01*
X168070970Y-100653636D02*
X168023351Y-100558398D01*
X168023351Y-100558398D02*
X168023351Y-100272684D01*
X168023351Y-100272684D02*
X168070970Y-100177446D01*
X168070970Y-100177446D02*
X168118589Y-100129827D01*
X168118589Y-100129827D02*
X168213827Y-100082208D01*
X168213827Y-100082208D02*
X168404303Y-100082208D01*
X168404303Y-100082208D02*
X168499541Y-100129827D01*
X168785256Y-100082208D02*
X169166208Y-100082208D01*
X168928113Y-99748875D02*
X168928113Y-100606017D01*
X168928113Y-100606017D02*
X168975732Y-100701256D01*
X168975732Y-100701256D02*
X169070970Y-100748875D01*
X169070970Y-100748875D02*
X169166208Y-100748875D01*
X169642399Y-100748875D02*
X169547161Y-100701256D01*
X169547161Y-100701256D02*
X169499542Y-100653636D01*
X169499542Y-100653636D02*
X169451923Y-100558398D01*
X169451923Y-100558398D02*
X169451923Y-100272684D01*
X169451923Y-100272684D02*
X169499542Y-100177446D01*
X169499542Y-100177446D02*
X169547161Y-100129827D01*
X169547161Y-100129827D02*
X169642399Y-100082208D01*
X169642399Y-100082208D02*
X169785256Y-100082208D01*
X169785256Y-100082208D02*
X169880494Y-100129827D01*
X169880494Y-100129827D02*
X169928113Y-100177446D01*
X169928113Y-100177446D02*
X169975732Y-100272684D01*
X169975732Y-100272684D02*
X169975732Y-100558398D01*
X169975732Y-100558398D02*
X169928113Y-100653636D01*
X169928113Y-100653636D02*
X169880494Y-100701256D01*
X169880494Y-100701256D02*
X169785256Y-100748875D01*
X169785256Y-100748875D02*
X169642399Y-100748875D01*
X170404304Y-100748875D02*
X170404304Y-100082208D01*
X170404304Y-100272684D02*
X170451923Y-100177446D01*
X170451923Y-100177446D02*
X170499542Y-100129827D01*
X170499542Y-100129827D02*
X170594780Y-100082208D01*
X170594780Y-100082208D02*
X170690018Y-100082208D01*
X159594779Y-102358819D02*
X159594779Y-101358819D01*
X159594779Y-101358819D02*
X159975731Y-101358819D01*
X159975731Y-101358819D02*
X160070969Y-101406438D01*
X160070969Y-101406438D02*
X160118588Y-101454057D01*
X160118588Y-101454057D02*
X160166207Y-101549295D01*
X160166207Y-101549295D02*
X160166207Y-101692152D01*
X160166207Y-101692152D02*
X160118588Y-101787390D01*
X160118588Y-101787390D02*
X160070969Y-101835009D01*
X160070969Y-101835009D02*
X159975731Y-101882628D01*
X159975731Y-101882628D02*
X159594779Y-101882628D01*
X160594779Y-102358819D02*
X160594779Y-101692152D01*
X160594779Y-101358819D02*
X160547160Y-101406438D01*
X160547160Y-101406438D02*
X160594779Y-101454057D01*
X160594779Y-101454057D02*
X160642398Y-101406438D01*
X160642398Y-101406438D02*
X160594779Y-101358819D01*
X160594779Y-101358819D02*
X160594779Y-101454057D01*
X161070969Y-101692152D02*
X161070969Y-102358819D01*
X161070969Y-101787390D02*
X161118588Y-101739771D01*
X161118588Y-101739771D02*
X161213826Y-101692152D01*
X161213826Y-101692152D02*
X161356683Y-101692152D01*
X161356683Y-101692152D02*
X161451921Y-101739771D01*
X161451921Y-101739771D02*
X161499540Y-101835009D01*
X161499540Y-101835009D02*
X161499540Y-102358819D01*
X162118588Y-102358819D02*
X162023350Y-102311200D01*
X162023350Y-102311200D02*
X161975731Y-102263580D01*
X161975731Y-102263580D02*
X161928112Y-102168342D01*
X161928112Y-102168342D02*
X161928112Y-101882628D01*
X161928112Y-101882628D02*
X161975731Y-101787390D01*
X161975731Y-101787390D02*
X162023350Y-101739771D01*
X162023350Y-101739771D02*
X162118588Y-101692152D01*
X162118588Y-101692152D02*
X162261445Y-101692152D01*
X162261445Y-101692152D02*
X162356683Y-101739771D01*
X162356683Y-101739771D02*
X162404302Y-101787390D01*
X162404302Y-101787390D02*
X162451921Y-101882628D01*
X162451921Y-101882628D02*
X162451921Y-102168342D01*
X162451921Y-102168342D02*
X162404302Y-102263580D01*
X162404302Y-102263580D02*
X162356683Y-102311200D01*
X162356683Y-102311200D02*
X162261445Y-102358819D01*
X162261445Y-102358819D02*
X162118588Y-102358819D01*
X163309064Y-101692152D02*
X163309064Y-102358819D01*
X162880493Y-101692152D02*
X162880493Y-102215961D01*
X162880493Y-102215961D02*
X162928112Y-102311200D01*
X162928112Y-102311200D02*
X163023350Y-102358819D01*
X163023350Y-102358819D02*
X163166207Y-102358819D01*
X163166207Y-102358819D02*
X163261445Y-102311200D01*
X163261445Y-102311200D02*
X163309064Y-102263580D01*
X163642398Y-101692152D02*
X164023350Y-101692152D01*
X163785255Y-101358819D02*
X163785255Y-102215961D01*
X163785255Y-102215961D02*
X163832874Y-102311200D01*
X163832874Y-102311200D02*
X163928112Y-102358819D01*
X163928112Y-102358819D02*
X164023350Y-102358819D01*
D10*
X146962375Y-104434974D02*
X147212375Y-105184974D01*
X147212375Y-105184974D02*
X147462375Y-104434974D01*
X148140946Y-105113545D02*
X148105232Y-105149260D01*
X148105232Y-105149260D02*
X147998089Y-105184974D01*
X147998089Y-105184974D02*
X147926661Y-105184974D01*
X147926661Y-105184974D02*
X147819518Y-105149260D01*
X147819518Y-105149260D02*
X147748089Y-105077831D01*
X147748089Y-105077831D02*
X147712375Y-105006402D01*
X147712375Y-105006402D02*
X147676661Y-104863545D01*
X147676661Y-104863545D02*
X147676661Y-104756402D01*
X147676661Y-104756402D02*
X147712375Y-104613545D01*
X147712375Y-104613545D02*
X147748089Y-104542117D01*
X147748089Y-104542117D02*
X147819518Y-104470688D01*
X147819518Y-104470688D02*
X147926661Y-104434974D01*
X147926661Y-104434974D02*
X147998089Y-104434974D01*
X147998089Y-104434974D02*
X148105232Y-104470688D01*
X148105232Y-104470688D02*
X148140946Y-104506402D01*
X148890946Y-105113545D02*
X148855232Y-105149260D01*
X148855232Y-105149260D02*
X148748089Y-105184974D01*
X148748089Y-105184974D02*
X148676661Y-105184974D01*
X148676661Y-105184974D02*
X148569518Y-105149260D01*
X148569518Y-105149260D02*
X148498089Y-105077831D01*
X148498089Y-105077831D02*
X148462375Y-105006402D01*
X148462375Y-105006402D02*
X148426661Y-104863545D01*
X148426661Y-104863545D02*
X148426661Y-104756402D01*
X148426661Y-104756402D02*
X148462375Y-104613545D01*
X148462375Y-104613545D02*
X148498089Y-104542117D01*
X148498089Y-104542117D02*
X148569518Y-104470688D01*
X148569518Y-104470688D02*
X148676661Y-104434974D01*
X148676661Y-104434974D02*
X148748089Y-104434974D01*
X148748089Y-104434974D02*
X148855232Y-104470688D01*
X148855232Y-104470688D02*
X148890946Y-104506402D01*
X156515089Y-60282545D02*
X156479375Y-60318260D01*
X156479375Y-60318260D02*
X156372232Y-60353974D01*
X156372232Y-60353974D02*
X156300804Y-60353974D01*
X156300804Y-60353974D02*
X156193661Y-60318260D01*
X156193661Y-60318260D02*
X156122232Y-60246831D01*
X156122232Y-60246831D02*
X156086518Y-60175402D01*
X156086518Y-60175402D02*
X156050804Y-60032545D01*
X156050804Y-60032545D02*
X156050804Y-59925402D01*
X156050804Y-59925402D02*
X156086518Y-59782545D01*
X156086518Y-59782545D02*
X156122232Y-59711117D01*
X156122232Y-59711117D02*
X156193661Y-59639688D01*
X156193661Y-59639688D02*
X156300804Y-59603974D01*
X156300804Y-59603974D02*
X156372232Y-59603974D01*
X156372232Y-59603974D02*
X156479375Y-59639688D01*
X156479375Y-59639688D02*
X156515089Y-59675402D01*
X156979375Y-59603974D02*
X157122232Y-59603974D01*
X157122232Y-59603974D02*
X157193661Y-59639688D01*
X157193661Y-59639688D02*
X157265089Y-59711117D01*
X157265089Y-59711117D02*
X157300804Y-59853974D01*
X157300804Y-59853974D02*
X157300804Y-60103974D01*
X157300804Y-60103974D02*
X157265089Y-60246831D01*
X157265089Y-60246831D02*
X157193661Y-60318260D01*
X157193661Y-60318260D02*
X157122232Y-60353974D01*
X157122232Y-60353974D02*
X156979375Y-60353974D01*
X156979375Y-60353974D02*
X156907947Y-60318260D01*
X156907947Y-60318260D02*
X156836518Y-60246831D01*
X156836518Y-60246831D02*
X156800804Y-60103974D01*
X156800804Y-60103974D02*
X156800804Y-59853974D01*
X156800804Y-59853974D02*
X156836518Y-59711117D01*
X156836518Y-59711117D02*
X156907947Y-59639688D01*
X156907947Y-59639688D02*
X156979375Y-59603974D01*
X157622232Y-60353974D02*
X157622232Y-59603974D01*
X157622232Y-59603974D02*
X158050803Y-60353974D01*
X158050803Y-60353974D02*
X158050803Y-59603974D01*
X158300803Y-59603974D02*
X158729375Y-59603974D01*
X158515089Y-60353974D02*
X158515089Y-59603974D01*
X159407946Y-60353974D02*
X159157946Y-59996831D01*
X158979375Y-60353974D02*
X158979375Y-59603974D01*
X158979375Y-59603974D02*
X159265089Y-59603974D01*
X159265089Y-59603974D02*
X159336518Y-59639688D01*
X159336518Y-59639688D02*
X159372232Y-59675402D01*
X159372232Y-59675402D02*
X159407946Y-59746831D01*
X159407946Y-59746831D02*
X159407946Y-59853974D01*
X159407946Y-59853974D02*
X159372232Y-59925402D01*
X159372232Y-59925402D02*
X159336518Y-59961117D01*
X159336518Y-59961117D02*
X159265089Y-59996831D01*
X159265089Y-59996831D02*
X158979375Y-59996831D01*
X159693661Y-60139688D02*
X160050804Y-60139688D01*
X159622232Y-60353974D02*
X159872232Y-59603974D01*
X159872232Y-59603974D02*
X160122232Y-60353974D01*
X160336518Y-60318260D02*
X160443661Y-60353974D01*
X160443661Y-60353974D02*
X160622232Y-60353974D01*
X160622232Y-60353974D02*
X160693661Y-60318260D01*
X160693661Y-60318260D02*
X160729375Y-60282545D01*
X160729375Y-60282545D02*
X160765089Y-60211117D01*
X160765089Y-60211117D02*
X160765089Y-60139688D01*
X160765089Y-60139688D02*
X160729375Y-60068260D01*
X160729375Y-60068260D02*
X160693661Y-60032545D01*
X160693661Y-60032545D02*
X160622232Y-59996831D01*
X160622232Y-59996831D02*
X160479375Y-59961117D01*
X160479375Y-59961117D02*
X160407946Y-59925402D01*
X160407946Y-59925402D02*
X160372232Y-59889688D01*
X160372232Y-59889688D02*
X160336518Y-59818260D01*
X160336518Y-59818260D02*
X160336518Y-59746831D01*
X160336518Y-59746831D02*
X160372232Y-59675402D01*
X160372232Y-59675402D02*
X160407946Y-59639688D01*
X160407946Y-59639688D02*
X160479375Y-59603974D01*
X160479375Y-59603974D02*
X160657946Y-59603974D01*
X160657946Y-59603974D02*
X160765089Y-59639688D01*
X160979375Y-59603974D02*
X161407947Y-59603974D01*
X161193661Y-60353974D02*
X161193661Y-59603974D01*
D13*
X87255844Y-50317638D02*
X88398701Y-50317638D01*
X87827272Y-52317638D02*
X87827272Y-50317638D01*
X89827273Y-52222400D02*
X89636797Y-52317638D01*
X89636797Y-52317638D02*
X89255844Y-52317638D01*
X89255844Y-52317638D02*
X89065368Y-52222400D01*
X89065368Y-52222400D02*
X88970130Y-52031923D01*
X88970130Y-52031923D02*
X88970130Y-51270019D01*
X88970130Y-51270019D02*
X89065368Y-51079542D01*
X89065368Y-51079542D02*
X89255844Y-50984304D01*
X89255844Y-50984304D02*
X89636797Y-50984304D01*
X89636797Y-50984304D02*
X89827273Y-51079542D01*
X89827273Y-51079542D02*
X89922511Y-51270019D01*
X89922511Y-51270019D02*
X89922511Y-51460495D01*
X89922511Y-51460495D02*
X88970130Y-51650971D01*
X90684416Y-52222400D02*
X90874892Y-52317638D01*
X90874892Y-52317638D02*
X91255844Y-52317638D01*
X91255844Y-52317638D02*
X91446321Y-52222400D01*
X91446321Y-52222400D02*
X91541559Y-52031923D01*
X91541559Y-52031923D02*
X91541559Y-51936685D01*
X91541559Y-51936685D02*
X91446321Y-51746209D01*
X91446321Y-51746209D02*
X91255844Y-51650971D01*
X91255844Y-51650971D02*
X90970130Y-51650971D01*
X90970130Y-51650971D02*
X90779654Y-51555733D01*
X90779654Y-51555733D02*
X90684416Y-51365257D01*
X90684416Y-51365257D02*
X90684416Y-51270019D01*
X90684416Y-51270019D02*
X90779654Y-51079542D01*
X90779654Y-51079542D02*
X90970130Y-50984304D01*
X90970130Y-50984304D02*
X91255844Y-50984304D01*
X91255844Y-50984304D02*
X91446321Y-51079542D01*
X92684416Y-52317638D02*
X92493940Y-52222400D01*
X92493940Y-52222400D02*
X92398702Y-52031923D01*
X92398702Y-52031923D02*
X92398702Y-50317638D01*
X94303464Y-52317638D02*
X94303464Y-51270019D01*
X94303464Y-51270019D02*
X94208226Y-51079542D01*
X94208226Y-51079542D02*
X94017750Y-50984304D01*
X94017750Y-50984304D02*
X93636797Y-50984304D01*
X93636797Y-50984304D02*
X93446321Y-51079542D01*
X94303464Y-52222400D02*
X94112988Y-52317638D01*
X94112988Y-52317638D02*
X93636797Y-52317638D01*
X93636797Y-52317638D02*
X93446321Y-52222400D01*
X93446321Y-52222400D02*
X93351083Y-52031923D01*
X93351083Y-52031923D02*
X93351083Y-51841447D01*
X93351083Y-51841447D02*
X93446321Y-51650971D01*
X93446321Y-51650971D02*
X93636797Y-51555733D01*
X93636797Y-51555733D02*
X94112988Y-51555733D01*
X94112988Y-51555733D02*
X94303464Y-51460495D01*
X95922512Y-51270019D02*
X96208226Y-51365257D01*
X96208226Y-51365257D02*
X96303464Y-51460495D01*
X96303464Y-51460495D02*
X96398702Y-51650971D01*
X96398702Y-51650971D02*
X96398702Y-51936685D01*
X96398702Y-51936685D02*
X96303464Y-52127161D01*
X96303464Y-52127161D02*
X96208226Y-52222400D01*
X96208226Y-52222400D02*
X96017750Y-52317638D01*
X96017750Y-52317638D02*
X95255845Y-52317638D01*
X95255845Y-52317638D02*
X95255845Y-50317638D01*
X95255845Y-50317638D02*
X95922512Y-50317638D01*
X95922512Y-50317638D02*
X96112988Y-50412876D01*
X96112988Y-50412876D02*
X96208226Y-50508114D01*
X96208226Y-50508114D02*
X96303464Y-50698590D01*
X96303464Y-50698590D02*
X96303464Y-50889066D01*
X96303464Y-50889066D02*
X96208226Y-51079542D01*
X96208226Y-51079542D02*
X96112988Y-51174780D01*
X96112988Y-51174780D02*
X95922512Y-51270019D01*
X95922512Y-51270019D02*
X95255845Y-51270019D01*
X97255845Y-52317638D02*
X97255845Y-50317638D01*
X97255845Y-50317638D02*
X97922512Y-51746209D01*
X97922512Y-51746209D02*
X98589178Y-50317638D01*
X98589178Y-50317638D02*
X98589178Y-52317638D01*
X100208226Y-51270019D02*
X100493940Y-51365257D01*
X100493940Y-51365257D02*
X100589178Y-51460495D01*
X100589178Y-51460495D02*
X100684416Y-51650971D01*
X100684416Y-51650971D02*
X100684416Y-51936685D01*
X100684416Y-51936685D02*
X100589178Y-52127161D01*
X100589178Y-52127161D02*
X100493940Y-52222400D01*
X100493940Y-52222400D02*
X100303464Y-52317638D01*
X100303464Y-52317638D02*
X99541559Y-52317638D01*
X99541559Y-52317638D02*
X99541559Y-50317638D01*
X99541559Y-50317638D02*
X100208226Y-50317638D01*
X100208226Y-50317638D02*
X100398702Y-50412876D01*
X100398702Y-50412876D02*
X100493940Y-50508114D01*
X100493940Y-50508114D02*
X100589178Y-50698590D01*
X100589178Y-50698590D02*
X100589178Y-50889066D01*
X100589178Y-50889066D02*
X100493940Y-51079542D01*
X100493940Y-51079542D02*
X100398702Y-51174780D01*
X100398702Y-51174780D02*
X100208226Y-51270019D01*
X100208226Y-51270019D02*
X99541559Y-51270019D01*
X102684416Y-52127161D02*
X102589178Y-52222400D01*
X102589178Y-52222400D02*
X102303464Y-52317638D01*
X102303464Y-52317638D02*
X102112988Y-52317638D01*
X102112988Y-52317638D02*
X101827273Y-52222400D01*
X101827273Y-52222400D02*
X101636797Y-52031923D01*
X101636797Y-52031923D02*
X101541559Y-51841447D01*
X101541559Y-51841447D02*
X101446321Y-51460495D01*
X101446321Y-51460495D02*
X101446321Y-51174780D01*
X101446321Y-51174780D02*
X101541559Y-50793828D01*
X101541559Y-50793828D02*
X101636797Y-50603352D01*
X101636797Y-50603352D02*
X101827273Y-50412876D01*
X101827273Y-50412876D02*
X102112988Y-50317638D01*
X102112988Y-50317638D02*
X102303464Y-50317638D01*
X102303464Y-50317638D02*
X102589178Y-50412876D01*
X102589178Y-50412876D02*
X102684416Y-50508114D01*
X103541559Y-52317638D02*
X103541559Y-50317638D01*
X104398702Y-52317638D02*
X104398702Y-51270019D01*
X104398702Y-51270019D02*
X104303464Y-51079542D01*
X104303464Y-51079542D02*
X104112988Y-50984304D01*
X104112988Y-50984304D02*
X103827273Y-50984304D01*
X103827273Y-50984304D02*
X103636797Y-51079542D01*
X103636797Y-51079542D02*
X103541559Y-51174780D01*
X106112988Y-52222400D02*
X105922512Y-52317638D01*
X105922512Y-52317638D02*
X105541559Y-52317638D01*
X105541559Y-52317638D02*
X105351083Y-52222400D01*
X105351083Y-52222400D02*
X105255845Y-52031923D01*
X105255845Y-52031923D02*
X105255845Y-51270019D01*
X105255845Y-51270019D02*
X105351083Y-51079542D01*
X105351083Y-51079542D02*
X105541559Y-50984304D01*
X105541559Y-50984304D02*
X105922512Y-50984304D01*
X105922512Y-50984304D02*
X106112988Y-51079542D01*
X106112988Y-51079542D02*
X106208226Y-51270019D01*
X106208226Y-51270019D02*
X106208226Y-51460495D01*
X106208226Y-51460495D02*
X105255845Y-51650971D01*
X107922512Y-52222400D02*
X107732036Y-52317638D01*
X107732036Y-52317638D02*
X107351083Y-52317638D01*
X107351083Y-52317638D02*
X107160607Y-52222400D01*
X107160607Y-52222400D02*
X107065369Y-52127161D01*
X107065369Y-52127161D02*
X106970131Y-51936685D01*
X106970131Y-51936685D02*
X106970131Y-51365257D01*
X106970131Y-51365257D02*
X107065369Y-51174780D01*
X107065369Y-51174780D02*
X107160607Y-51079542D01*
X107160607Y-51079542D02*
X107351083Y-50984304D01*
X107351083Y-50984304D02*
X107732036Y-50984304D01*
X107732036Y-50984304D02*
X107922512Y-51079542D01*
X108779655Y-52317638D02*
X108779655Y-50317638D01*
X108970131Y-51555733D02*
X109541560Y-52317638D01*
X109541560Y-50984304D02*
X108779655Y-51746209D01*
X111160608Y-52222400D02*
X110970132Y-52317638D01*
X110970132Y-52317638D02*
X110589179Y-52317638D01*
X110589179Y-52317638D02*
X110398703Y-52222400D01*
X110398703Y-52222400D02*
X110303465Y-52031923D01*
X110303465Y-52031923D02*
X110303465Y-51270019D01*
X110303465Y-51270019D02*
X110398703Y-51079542D01*
X110398703Y-51079542D02*
X110589179Y-50984304D01*
X110589179Y-50984304D02*
X110970132Y-50984304D01*
X110970132Y-50984304D02*
X111160608Y-51079542D01*
X111160608Y-51079542D02*
X111255846Y-51270019D01*
X111255846Y-51270019D02*
X111255846Y-51460495D01*
X111255846Y-51460495D02*
X110303465Y-51650971D01*
X112112989Y-52317638D02*
X112112989Y-50984304D01*
X112112989Y-51365257D02*
X112208227Y-51174780D01*
X112208227Y-51174780D02*
X112303465Y-51079542D01*
X112303465Y-51079542D02*
X112493941Y-50984304D01*
X112493941Y-50984304D02*
X112684418Y-50984304D01*
D10*
X155118089Y-103660974D02*
X154868089Y-103303831D01*
X154689518Y-103660974D02*
X154689518Y-102910974D01*
X154689518Y-102910974D02*
X154975232Y-102910974D01*
X154975232Y-102910974D02*
X155046661Y-102946688D01*
X155046661Y-102946688D02*
X155082375Y-102982402D01*
X155082375Y-102982402D02*
X155118089Y-103053831D01*
X155118089Y-103053831D02*
X155118089Y-103160974D01*
X155118089Y-103160974D02*
X155082375Y-103232402D01*
X155082375Y-103232402D02*
X155046661Y-103268117D01*
X155046661Y-103268117D02*
X154975232Y-103303831D01*
X154975232Y-103303831D02*
X154689518Y-103303831D01*
X155368089Y-102910974D02*
X155868089Y-103660974D01*
X155868089Y-102910974D02*
X155368089Y-103660974D01*
D12*
X106459714Y-96895384D02*
X106459714Y-97395384D01*
X107245428Y-97395384D02*
X105745428Y-97395384D01*
X105745428Y-97395384D02*
X105745428Y-96681098D01*
X106816857Y-96181098D02*
X106816857Y-95466813D01*
X107245428Y-96323955D02*
X105745428Y-95823955D01*
X105745428Y-95823955D02*
X107245428Y-95323955D01*
X105745428Y-94823956D02*
X106959714Y-94823956D01*
X106959714Y-94823956D02*
X107102571Y-94752527D01*
X107102571Y-94752527D02*
X107174000Y-94681099D01*
X107174000Y-94681099D02*
X107245428Y-94538241D01*
X107245428Y-94538241D02*
X107245428Y-94252527D01*
X107245428Y-94252527D02*
X107174000Y-94109670D01*
X107174000Y-94109670D02*
X107102571Y-94038241D01*
X107102571Y-94038241D02*
X106959714Y-93966813D01*
X106959714Y-93966813D02*
X105745428Y-93966813D01*
X107245428Y-92538241D02*
X107245428Y-93252527D01*
X107245428Y-93252527D02*
X105745428Y-93252527D01*
X105745428Y-92252526D02*
X105745428Y-91395384D01*
X107245428Y-91823955D02*
X105745428Y-91823955D01*
D11*
X168992779Y-71751819D02*
X168992779Y-70751819D01*
X168992779Y-70751819D02*
X169373731Y-70751819D01*
X169373731Y-70751819D02*
X169468969Y-70799438D01*
X169468969Y-70799438D02*
X169516588Y-70847057D01*
X169516588Y-70847057D02*
X169564207Y-70942295D01*
X169564207Y-70942295D02*
X169564207Y-71085152D01*
X169564207Y-71085152D02*
X169516588Y-71180390D01*
X169516588Y-71180390D02*
X169468969Y-71228009D01*
X169468969Y-71228009D02*
X169373731Y-71275628D01*
X169373731Y-71275628D02*
X168992779Y-71275628D01*
X170183255Y-70751819D02*
X170373731Y-70751819D01*
X170373731Y-70751819D02*
X170468969Y-70799438D01*
X170468969Y-70799438D02*
X170564207Y-70894676D01*
X170564207Y-70894676D02*
X170611826Y-71085152D01*
X170611826Y-71085152D02*
X170611826Y-71418485D01*
X170611826Y-71418485D02*
X170564207Y-71608961D01*
X170564207Y-71608961D02*
X170468969Y-71704200D01*
X170468969Y-71704200D02*
X170373731Y-71751819D01*
X170373731Y-71751819D02*
X170183255Y-71751819D01*
X170183255Y-71751819D02*
X170088017Y-71704200D01*
X170088017Y-71704200D02*
X169992779Y-71608961D01*
X169992779Y-71608961D02*
X169945160Y-71418485D01*
X169945160Y-71418485D02*
X169945160Y-71085152D01*
X169945160Y-71085152D02*
X169992779Y-70894676D01*
X169992779Y-70894676D02*
X170088017Y-70799438D01*
X170088017Y-70799438D02*
X170183255Y-70751819D01*
X170945160Y-70751819D02*
X171183255Y-71751819D01*
X171183255Y-71751819D02*
X171373731Y-71037533D01*
X171373731Y-71037533D02*
X171564207Y-71751819D01*
X171564207Y-71751819D02*
X171802303Y-70751819D01*
X172183255Y-71228009D02*
X172516588Y-71228009D01*
X172659445Y-71751819D02*
X172183255Y-71751819D01*
X172183255Y-71751819D02*
X172183255Y-70751819D01*
X172183255Y-70751819D02*
X172659445Y-70751819D01*
X173659445Y-71751819D02*
X173326112Y-71275628D01*
X173088017Y-71751819D02*
X173088017Y-70751819D01*
X173088017Y-70751819D02*
X173468969Y-70751819D01*
X173468969Y-70751819D02*
X173564207Y-70799438D01*
X173564207Y-70799438D02*
X173611826Y-70847057D01*
X173611826Y-70847057D02*
X173659445Y-70942295D01*
X173659445Y-70942295D02*
X173659445Y-71085152D01*
X173659445Y-71085152D02*
X173611826Y-71180390D01*
X173611826Y-71180390D02*
X173564207Y-71228009D01*
X173564207Y-71228009D02*
X173468969Y-71275628D01*
X173468969Y-71275628D02*
X173088017Y-71275628D01*
X87776207Y-54479819D02*
X87442874Y-54003628D01*
X87204779Y-54479819D02*
X87204779Y-53479819D01*
X87204779Y-53479819D02*
X87585731Y-53479819D01*
X87585731Y-53479819D02*
X87680969Y-53527438D01*
X87680969Y-53527438D02*
X87728588Y-53575057D01*
X87728588Y-53575057D02*
X87776207Y-53670295D01*
X87776207Y-53670295D02*
X87776207Y-53813152D01*
X87776207Y-53813152D02*
X87728588Y-53908390D01*
X87728588Y-53908390D02*
X87680969Y-53956009D01*
X87680969Y-53956009D02*
X87585731Y-54003628D01*
X87585731Y-54003628D02*
X87204779Y-54003628D01*
X88585731Y-54432200D02*
X88490493Y-54479819D01*
X88490493Y-54479819D02*
X88300017Y-54479819D01*
X88300017Y-54479819D02*
X88204779Y-54432200D01*
X88204779Y-54432200D02*
X88157160Y-54336961D01*
X88157160Y-54336961D02*
X88157160Y-53956009D01*
X88157160Y-53956009D02*
X88204779Y-53860771D01*
X88204779Y-53860771D02*
X88300017Y-53813152D01*
X88300017Y-53813152D02*
X88490493Y-53813152D01*
X88490493Y-53813152D02*
X88585731Y-53860771D01*
X88585731Y-53860771D02*
X88633350Y-53956009D01*
X88633350Y-53956009D02*
X88633350Y-54051247D01*
X88633350Y-54051247D02*
X88157160Y-54146485D01*
X88966684Y-53813152D02*
X89204779Y-54479819D01*
X89204779Y-54479819D02*
X89442874Y-53813152D01*
X91109541Y-54479819D02*
X90538113Y-54479819D01*
X90823827Y-54479819D02*
X90823827Y-53479819D01*
X90823827Y-53479819D02*
X90728589Y-53622676D01*
X90728589Y-53622676D02*
X90633351Y-53717914D01*
X90633351Y-53717914D02*
X90538113Y-53765533D01*
X91538113Y-54384580D02*
X91585732Y-54432200D01*
X91585732Y-54432200D02*
X91538113Y-54479819D01*
X91538113Y-54479819D02*
X91490494Y-54432200D01*
X91490494Y-54432200D02*
X91538113Y-54384580D01*
X91538113Y-54384580D02*
X91538113Y-54479819D01*
X92538112Y-54479819D02*
X91966684Y-54479819D01*
X92252398Y-54479819D02*
X92252398Y-53479819D01*
X92252398Y-53479819D02*
X92157160Y-53622676D01*
X92157160Y-53622676D02*
X92061922Y-53717914D01*
X92061922Y-53717914D02*
X91966684Y-53765533D01*
X95204780Y-53575057D02*
X95252399Y-53527438D01*
X95252399Y-53527438D02*
X95347637Y-53479819D01*
X95347637Y-53479819D02*
X95585732Y-53479819D01*
X95585732Y-53479819D02*
X95680970Y-53527438D01*
X95680970Y-53527438D02*
X95728589Y-53575057D01*
X95728589Y-53575057D02*
X95776208Y-53670295D01*
X95776208Y-53670295D02*
X95776208Y-53765533D01*
X95776208Y-53765533D02*
X95728589Y-53908390D01*
X95728589Y-53908390D02*
X95157161Y-54479819D01*
X95157161Y-54479819D02*
X95776208Y-54479819D01*
X96395256Y-53479819D02*
X96490494Y-53479819D01*
X96490494Y-53479819D02*
X96585732Y-53527438D01*
X96585732Y-53527438D02*
X96633351Y-53575057D01*
X96633351Y-53575057D02*
X96680970Y-53670295D01*
X96680970Y-53670295D02*
X96728589Y-53860771D01*
X96728589Y-53860771D02*
X96728589Y-54098866D01*
X96728589Y-54098866D02*
X96680970Y-54289342D01*
X96680970Y-54289342D02*
X96633351Y-54384580D01*
X96633351Y-54384580D02*
X96585732Y-54432200D01*
X96585732Y-54432200D02*
X96490494Y-54479819D01*
X96490494Y-54479819D02*
X96395256Y-54479819D01*
X96395256Y-54479819D02*
X96300018Y-54432200D01*
X96300018Y-54432200D02*
X96252399Y-54384580D01*
X96252399Y-54384580D02*
X96204780Y-54289342D01*
X96204780Y-54289342D02*
X96157161Y-54098866D01*
X96157161Y-54098866D02*
X96157161Y-53860771D01*
X96157161Y-53860771D02*
X96204780Y-53670295D01*
X96204780Y-53670295D02*
X96252399Y-53575057D01*
X96252399Y-53575057D02*
X96300018Y-53527438D01*
X96300018Y-53527438D02*
X96395256Y-53479819D01*
X97109542Y-53575057D02*
X97157161Y-53527438D01*
X97157161Y-53527438D02*
X97252399Y-53479819D01*
X97252399Y-53479819D02*
X97490494Y-53479819D01*
X97490494Y-53479819D02*
X97585732Y-53527438D01*
X97585732Y-53527438D02*
X97633351Y-53575057D01*
X97633351Y-53575057D02*
X97680970Y-53670295D01*
X97680970Y-53670295D02*
X97680970Y-53765533D01*
X97680970Y-53765533D02*
X97633351Y-53908390D01*
X97633351Y-53908390D02*
X97061923Y-54479819D01*
X97061923Y-54479819D02*
X97680970Y-54479819D01*
X98585732Y-53479819D02*
X98109542Y-53479819D01*
X98109542Y-53479819D02*
X98061923Y-53956009D01*
X98061923Y-53956009D02*
X98109542Y-53908390D01*
X98109542Y-53908390D02*
X98204780Y-53860771D01*
X98204780Y-53860771D02*
X98442875Y-53860771D01*
X98442875Y-53860771D02*
X98538113Y-53908390D01*
X98538113Y-53908390D02*
X98585732Y-53956009D01*
X98585732Y-53956009D02*
X98633351Y-54051247D01*
X98633351Y-54051247D02*
X98633351Y-54289342D01*
X98633351Y-54289342D02*
X98585732Y-54384580D01*
X98585732Y-54384580D02*
X98538113Y-54432200D01*
X98538113Y-54432200D02*
X98442875Y-54479819D01*
X98442875Y-54479819D02*
X98204780Y-54479819D01*
X98204780Y-54479819D02*
X98109542Y-54432200D01*
X98109542Y-54432200D02*
X98061923Y-54384580D01*
D10*
X154939518Y-98696117D02*
X154689518Y-98696117D01*
X154689518Y-99088974D02*
X154689518Y-98338974D01*
X154689518Y-98338974D02*
X155046661Y-98338974D01*
X155296661Y-98874688D02*
X155653804Y-98874688D01*
X155225232Y-99088974D02*
X155475232Y-98338974D01*
X155475232Y-98338974D02*
X155725232Y-99088974D01*
X155975232Y-98338974D02*
X155975232Y-98946117D01*
X155975232Y-98946117D02*
X156010946Y-99017545D01*
X156010946Y-99017545D02*
X156046661Y-99053260D01*
X156046661Y-99053260D02*
X156118089Y-99088974D01*
X156118089Y-99088974D02*
X156260946Y-99088974D01*
X156260946Y-99088974D02*
X156332375Y-99053260D01*
X156332375Y-99053260D02*
X156368089Y-99017545D01*
X156368089Y-99017545D02*
X156403803Y-98946117D01*
X156403803Y-98946117D02*
X156403803Y-98338974D01*
X157118089Y-99088974D02*
X156760946Y-99088974D01*
X156760946Y-99088974D02*
X156760946Y-98338974D01*
X157260946Y-98338974D02*
X157689518Y-98338974D01*
X157475232Y-99088974D02*
X157475232Y-98338974D01*
X154939518Y-104792117D02*
X154689518Y-104792117D01*
X154689518Y-105184974D02*
X154689518Y-104434974D01*
X154689518Y-104434974D02*
X155046661Y-104434974D01*
X155296661Y-104970688D02*
X155653804Y-104970688D01*
X155225232Y-105184974D02*
X155475232Y-104434974D01*
X155475232Y-104434974D02*
X155725232Y-105184974D01*
X155975232Y-104434974D02*
X155975232Y-105042117D01*
X155975232Y-105042117D02*
X156010946Y-105113545D01*
X156010946Y-105113545D02*
X156046661Y-105149260D01*
X156046661Y-105149260D02*
X156118089Y-105184974D01*
X156118089Y-105184974D02*
X156260946Y-105184974D01*
X156260946Y-105184974D02*
X156332375Y-105149260D01*
X156332375Y-105149260D02*
X156368089Y-105113545D01*
X156368089Y-105113545D02*
X156403803Y-105042117D01*
X156403803Y-105042117D02*
X156403803Y-104434974D01*
X157118089Y-105184974D02*
X156760946Y-105184974D01*
X156760946Y-105184974D02*
X156760946Y-104434974D01*
X157260946Y-104434974D02*
X157689518Y-104434974D01*
X157475232Y-105184974D02*
X157475232Y-104434974D01*
D11*
X124618761Y-58589057D02*
X124523523Y-58541438D01*
X124523523Y-58541438D02*
X124428285Y-58446200D01*
X124428285Y-58446200D02*
X124285428Y-58303342D01*
X124285428Y-58303342D02*
X124190190Y-58255723D01*
X124190190Y-58255723D02*
X124094952Y-58255723D01*
X124142571Y-58493819D02*
X124047333Y-58446200D01*
X124047333Y-58446200D02*
X123952095Y-58350961D01*
X123952095Y-58350961D02*
X123904476Y-58160485D01*
X123904476Y-58160485D02*
X123904476Y-57827152D01*
X123904476Y-57827152D02*
X123952095Y-57636676D01*
X123952095Y-57636676D02*
X124047333Y-57541438D01*
X124047333Y-57541438D02*
X124142571Y-57493819D01*
X124142571Y-57493819D02*
X124333047Y-57493819D01*
X124333047Y-57493819D02*
X124428285Y-57541438D01*
X124428285Y-57541438D02*
X124523523Y-57636676D01*
X124523523Y-57636676D02*
X124571142Y-57827152D01*
X124571142Y-57827152D02*
X124571142Y-58160485D01*
X124571142Y-58160485D02*
X124523523Y-58350961D01*
X124523523Y-58350961D02*
X124428285Y-58446200D01*
X124428285Y-58446200D02*
X124333047Y-58493819D01*
X124333047Y-58493819D02*
X124142571Y-58493819D01*
X124952095Y-57589057D02*
X124999714Y-57541438D01*
X124999714Y-57541438D02*
X125094952Y-57493819D01*
X125094952Y-57493819D02*
X125333047Y-57493819D01*
X125333047Y-57493819D02*
X125428285Y-57541438D01*
X125428285Y-57541438D02*
X125475904Y-57589057D01*
X125475904Y-57589057D02*
X125523523Y-57684295D01*
X125523523Y-57684295D02*
X125523523Y-57779533D01*
X125523523Y-57779533D02*
X125475904Y-57922390D01*
X125475904Y-57922390D02*
X124904476Y-58493819D01*
X124904476Y-58493819D02*
X125523523Y-58493819D01*
X164920819Y-81414857D02*
X164444628Y-81748190D01*
X164920819Y-81986285D02*
X163920819Y-81986285D01*
X163920819Y-81986285D02*
X163920819Y-81605333D01*
X163920819Y-81605333D02*
X163968438Y-81510095D01*
X163968438Y-81510095D02*
X164016057Y-81462476D01*
X164016057Y-81462476D02*
X164111295Y-81414857D01*
X164111295Y-81414857D02*
X164254152Y-81414857D01*
X164254152Y-81414857D02*
X164349390Y-81462476D01*
X164349390Y-81462476D02*
X164397009Y-81510095D01*
X164397009Y-81510095D02*
X164444628Y-81605333D01*
X164444628Y-81605333D02*
X164444628Y-81986285D01*
X164016057Y-81033904D02*
X163968438Y-80986285D01*
X163968438Y-80986285D02*
X163920819Y-80891047D01*
X163920819Y-80891047D02*
X163920819Y-80652952D01*
X163920819Y-80652952D02*
X163968438Y-80557714D01*
X163968438Y-80557714D02*
X164016057Y-80510095D01*
X164016057Y-80510095D02*
X164111295Y-80462476D01*
X164111295Y-80462476D02*
X164206533Y-80462476D01*
X164206533Y-80462476D02*
X164349390Y-80510095D01*
X164349390Y-80510095D02*
X164920819Y-81081523D01*
X164920819Y-81081523D02*
X164920819Y-80462476D01*
X163920819Y-80129142D02*
X163920819Y-79510095D01*
X163920819Y-79510095D02*
X164301771Y-79843428D01*
X164301771Y-79843428D02*
X164301771Y-79700571D01*
X164301771Y-79700571D02*
X164349390Y-79605333D01*
X164349390Y-79605333D02*
X164397009Y-79557714D01*
X164397009Y-79557714D02*
X164492247Y-79510095D01*
X164492247Y-79510095D02*
X164730342Y-79510095D01*
X164730342Y-79510095D02*
X164825580Y-79557714D01*
X164825580Y-79557714D02*
X164873200Y-79605333D01*
X164873200Y-79605333D02*
X164920819Y-79700571D01*
X164920819Y-79700571D02*
X164920819Y-79986285D01*
X164920819Y-79986285D02*
X164873200Y-80081523D01*
X164873200Y-80081523D02*
X164825580Y-80129142D01*
X113308019Y-102938985D02*
X112308019Y-102938985D01*
X112308019Y-102938985D02*
X112308019Y-102700890D01*
X112308019Y-102700890D02*
X112355638Y-102558033D01*
X112355638Y-102558033D02*
X112450876Y-102462795D01*
X112450876Y-102462795D02*
X112546114Y-102415176D01*
X112546114Y-102415176D02*
X112736590Y-102367557D01*
X112736590Y-102367557D02*
X112879447Y-102367557D01*
X112879447Y-102367557D02*
X113069923Y-102415176D01*
X113069923Y-102415176D02*
X113165161Y-102462795D01*
X113165161Y-102462795D02*
X113260400Y-102558033D01*
X113260400Y-102558033D02*
X113308019Y-102700890D01*
X113308019Y-102700890D02*
X113308019Y-102938985D01*
X113308019Y-101415176D02*
X113308019Y-101986604D01*
X113308019Y-101700890D02*
X112308019Y-101700890D01*
X112308019Y-101700890D02*
X112450876Y-101796128D01*
X112450876Y-101796128D02*
X112546114Y-101891366D01*
X112546114Y-101891366D02*
X112593733Y-101986604D01*
X112308019Y-100510414D02*
X112308019Y-100986604D01*
X112308019Y-100986604D02*
X112784209Y-101034223D01*
X112784209Y-101034223D02*
X112736590Y-100986604D01*
X112736590Y-100986604D02*
X112688971Y-100891366D01*
X112688971Y-100891366D02*
X112688971Y-100653271D01*
X112688971Y-100653271D02*
X112736590Y-100558033D01*
X112736590Y-100558033D02*
X112784209Y-100510414D01*
X112784209Y-100510414D02*
X112879447Y-100462795D01*
X112879447Y-100462795D02*
X113117542Y-100462795D01*
X113117542Y-100462795D02*
X113212780Y-100510414D01*
X113212780Y-100510414D02*
X113260400Y-100558033D01*
X113260400Y-100558033D02*
X113308019Y-100653271D01*
X113308019Y-100653271D02*
X113308019Y-100891366D01*
X113308019Y-100891366D02*
X113260400Y-100986604D01*
X113260400Y-100986604D02*
X113212780Y-101034223D01*
X162901333Y-73837580D02*
X162853714Y-73885200D01*
X162853714Y-73885200D02*
X162710857Y-73932819D01*
X162710857Y-73932819D02*
X162615619Y-73932819D01*
X162615619Y-73932819D02*
X162472762Y-73885200D01*
X162472762Y-73885200D02*
X162377524Y-73789961D01*
X162377524Y-73789961D02*
X162329905Y-73694723D01*
X162329905Y-73694723D02*
X162282286Y-73504247D01*
X162282286Y-73504247D02*
X162282286Y-73361390D01*
X162282286Y-73361390D02*
X162329905Y-73170914D01*
X162329905Y-73170914D02*
X162377524Y-73075676D01*
X162377524Y-73075676D02*
X162472762Y-72980438D01*
X162472762Y-72980438D02*
X162615619Y-72932819D01*
X162615619Y-72932819D02*
X162710857Y-72932819D01*
X162710857Y-72932819D02*
X162853714Y-72980438D01*
X162853714Y-72980438D02*
X162901333Y-73028057D01*
X163282286Y-73028057D02*
X163329905Y-72980438D01*
X163329905Y-72980438D02*
X163425143Y-72932819D01*
X163425143Y-72932819D02*
X163663238Y-72932819D01*
X163663238Y-72932819D02*
X163758476Y-72980438D01*
X163758476Y-72980438D02*
X163806095Y-73028057D01*
X163806095Y-73028057D02*
X163853714Y-73123295D01*
X163853714Y-73123295D02*
X163853714Y-73218533D01*
X163853714Y-73218533D02*
X163806095Y-73361390D01*
X163806095Y-73361390D02*
X163234667Y-73932819D01*
X163234667Y-73932819D02*
X163853714Y-73932819D01*
X160348819Y-67222666D02*
X159872628Y-67555999D01*
X160348819Y-67794094D02*
X159348819Y-67794094D01*
X159348819Y-67794094D02*
X159348819Y-67413142D01*
X159348819Y-67413142D02*
X159396438Y-67317904D01*
X159396438Y-67317904D02*
X159444057Y-67270285D01*
X159444057Y-67270285D02*
X159539295Y-67222666D01*
X159539295Y-67222666D02*
X159682152Y-67222666D01*
X159682152Y-67222666D02*
X159777390Y-67270285D01*
X159777390Y-67270285D02*
X159825009Y-67317904D01*
X159825009Y-67317904D02*
X159872628Y-67413142D01*
X159872628Y-67413142D02*
X159872628Y-67794094D01*
X159444057Y-66841713D02*
X159396438Y-66794094D01*
X159396438Y-66794094D02*
X159348819Y-66698856D01*
X159348819Y-66698856D02*
X159348819Y-66460761D01*
X159348819Y-66460761D02*
X159396438Y-66365523D01*
X159396438Y-66365523D02*
X159444057Y-66317904D01*
X159444057Y-66317904D02*
X159539295Y-66270285D01*
X159539295Y-66270285D02*
X159634533Y-66270285D01*
X159634533Y-66270285D02*
X159777390Y-66317904D01*
X159777390Y-66317904D02*
X160348819Y-66889332D01*
X160348819Y-66889332D02*
X160348819Y-66270285D01*
X108799333Y-59434580D02*
X108751714Y-59482200D01*
X108751714Y-59482200D02*
X108608857Y-59529819D01*
X108608857Y-59529819D02*
X108513619Y-59529819D01*
X108513619Y-59529819D02*
X108370762Y-59482200D01*
X108370762Y-59482200D02*
X108275524Y-59386961D01*
X108275524Y-59386961D02*
X108227905Y-59291723D01*
X108227905Y-59291723D02*
X108180286Y-59101247D01*
X108180286Y-59101247D02*
X108180286Y-58958390D01*
X108180286Y-58958390D02*
X108227905Y-58767914D01*
X108227905Y-58767914D02*
X108275524Y-58672676D01*
X108275524Y-58672676D02*
X108370762Y-58577438D01*
X108370762Y-58577438D02*
X108513619Y-58529819D01*
X108513619Y-58529819D02*
X108608857Y-58529819D01*
X108608857Y-58529819D02*
X108751714Y-58577438D01*
X108751714Y-58577438D02*
X108799333Y-58625057D01*
X109751714Y-59529819D02*
X109180286Y-59529819D01*
X109466000Y-59529819D02*
X109466000Y-58529819D01*
X109466000Y-58529819D02*
X109370762Y-58672676D01*
X109370762Y-58672676D02*
X109275524Y-58767914D01*
X109275524Y-58767914D02*
X109180286Y-58815533D01*
X150696819Y-57538857D02*
X150220628Y-57872190D01*
X150696819Y-58110285D02*
X149696819Y-58110285D01*
X149696819Y-58110285D02*
X149696819Y-57729333D01*
X149696819Y-57729333D02*
X149744438Y-57634095D01*
X149744438Y-57634095D02*
X149792057Y-57586476D01*
X149792057Y-57586476D02*
X149887295Y-57538857D01*
X149887295Y-57538857D02*
X150030152Y-57538857D01*
X150030152Y-57538857D02*
X150125390Y-57586476D01*
X150125390Y-57586476D02*
X150173009Y-57634095D01*
X150173009Y-57634095D02*
X150220628Y-57729333D01*
X150220628Y-57729333D02*
X150220628Y-58110285D01*
X150696819Y-56586476D02*
X150696819Y-57157904D01*
X150696819Y-56872190D02*
X149696819Y-56872190D01*
X149696819Y-56872190D02*
X149839676Y-56967428D01*
X149839676Y-56967428D02*
X149934914Y-57062666D01*
X149934914Y-57062666D02*
X149982533Y-57157904D01*
X149696819Y-55967428D02*
X149696819Y-55872190D01*
X149696819Y-55872190D02*
X149744438Y-55776952D01*
X149744438Y-55776952D02*
X149792057Y-55729333D01*
X149792057Y-55729333D02*
X149887295Y-55681714D01*
X149887295Y-55681714D02*
X150077771Y-55634095D01*
X150077771Y-55634095D02*
X150315866Y-55634095D01*
X150315866Y-55634095D02*
X150506342Y-55681714D01*
X150506342Y-55681714D02*
X150601580Y-55729333D01*
X150601580Y-55729333D02*
X150649200Y-55776952D01*
X150649200Y-55776952D02*
X150696819Y-55872190D01*
X150696819Y-55872190D02*
X150696819Y-55967428D01*
X150696819Y-55967428D02*
X150649200Y-56062666D01*
X150649200Y-56062666D02*
X150601580Y-56110285D01*
X150601580Y-56110285D02*
X150506342Y-56157904D01*
X150506342Y-56157904D02*
X150315866Y-56205523D01*
X150315866Y-56205523D02*
X150077771Y-56205523D01*
X150077771Y-56205523D02*
X149887295Y-56157904D01*
X149887295Y-56157904D02*
X149792057Y-56110285D01*
X149792057Y-56110285D02*
X149744438Y-56062666D01*
X149744438Y-56062666D02*
X149696819Y-55967428D01*
X85039580Y-69742666D02*
X85087200Y-69790285D01*
X85087200Y-69790285D02*
X85134819Y-69933142D01*
X85134819Y-69933142D02*
X85134819Y-70028380D01*
X85134819Y-70028380D02*
X85087200Y-70171237D01*
X85087200Y-70171237D02*
X84991961Y-70266475D01*
X84991961Y-70266475D02*
X84896723Y-70314094D01*
X84896723Y-70314094D02*
X84706247Y-70361713D01*
X84706247Y-70361713D02*
X84563390Y-70361713D01*
X84563390Y-70361713D02*
X84372914Y-70314094D01*
X84372914Y-70314094D02*
X84277676Y-70266475D01*
X84277676Y-70266475D02*
X84182438Y-70171237D01*
X84182438Y-70171237D02*
X84134819Y-70028380D01*
X84134819Y-70028380D02*
X84134819Y-69933142D01*
X84134819Y-69933142D02*
X84182438Y-69790285D01*
X84182438Y-69790285D02*
X84230057Y-69742666D01*
X84134819Y-69409332D02*
X84134819Y-68790285D01*
X84134819Y-68790285D02*
X84515771Y-69123618D01*
X84515771Y-69123618D02*
X84515771Y-68980761D01*
X84515771Y-68980761D02*
X84563390Y-68885523D01*
X84563390Y-68885523D02*
X84611009Y-68837904D01*
X84611009Y-68837904D02*
X84706247Y-68790285D01*
X84706247Y-68790285D02*
X84944342Y-68790285D01*
X84944342Y-68790285D02*
X85039580Y-68837904D01*
X85039580Y-68837904D02*
X85087200Y-68885523D01*
X85087200Y-68885523D02*
X85134819Y-68980761D01*
X85134819Y-68980761D02*
X85134819Y-69266475D01*
X85134819Y-69266475D02*
X85087200Y-69361713D01*
X85087200Y-69361713D02*
X85039580Y-69409332D01*
X94133319Y-79111666D02*
X93657128Y-79444999D01*
X94133319Y-79683094D02*
X93133319Y-79683094D01*
X93133319Y-79683094D02*
X93133319Y-79302142D01*
X93133319Y-79302142D02*
X93180938Y-79206904D01*
X93180938Y-79206904D02*
X93228557Y-79159285D01*
X93228557Y-79159285D02*
X93323795Y-79111666D01*
X93323795Y-79111666D02*
X93466652Y-79111666D01*
X93466652Y-79111666D02*
X93561890Y-79159285D01*
X93561890Y-79159285D02*
X93609509Y-79206904D01*
X93609509Y-79206904D02*
X93657128Y-79302142D01*
X93657128Y-79302142D02*
X93657128Y-79683094D01*
X93133319Y-78254523D02*
X93133319Y-78444999D01*
X93133319Y-78444999D02*
X93180938Y-78540237D01*
X93180938Y-78540237D02*
X93228557Y-78587856D01*
X93228557Y-78587856D02*
X93371414Y-78683094D01*
X93371414Y-78683094D02*
X93561890Y-78730713D01*
X93561890Y-78730713D02*
X93942842Y-78730713D01*
X93942842Y-78730713D02*
X94038080Y-78683094D01*
X94038080Y-78683094D02*
X94085700Y-78635475D01*
X94085700Y-78635475D02*
X94133319Y-78540237D01*
X94133319Y-78540237D02*
X94133319Y-78349761D01*
X94133319Y-78349761D02*
X94085700Y-78254523D01*
X94085700Y-78254523D02*
X94038080Y-78206904D01*
X94038080Y-78206904D02*
X93942842Y-78159285D01*
X93942842Y-78159285D02*
X93704747Y-78159285D01*
X93704747Y-78159285D02*
X93609509Y-78206904D01*
X93609509Y-78206904D02*
X93561890Y-78254523D01*
X93561890Y-78254523D02*
X93514271Y-78349761D01*
X93514271Y-78349761D02*
X93514271Y-78540237D01*
X93514271Y-78540237D02*
X93561890Y-78635475D01*
X93561890Y-78635475D02*
X93609509Y-78683094D01*
X93609509Y-78683094D02*
X93704747Y-78730713D01*
X114031142Y-83720580D02*
X113983523Y-83768200D01*
X113983523Y-83768200D02*
X113840666Y-83815819D01*
X113840666Y-83815819D02*
X113745428Y-83815819D01*
X113745428Y-83815819D02*
X113602571Y-83768200D01*
X113602571Y-83768200D02*
X113507333Y-83672961D01*
X113507333Y-83672961D02*
X113459714Y-83577723D01*
X113459714Y-83577723D02*
X113412095Y-83387247D01*
X113412095Y-83387247D02*
X113412095Y-83244390D01*
X113412095Y-83244390D02*
X113459714Y-83053914D01*
X113459714Y-83053914D02*
X113507333Y-82958676D01*
X113507333Y-82958676D02*
X113602571Y-82863438D01*
X113602571Y-82863438D02*
X113745428Y-82815819D01*
X113745428Y-82815819D02*
X113840666Y-82815819D01*
X113840666Y-82815819D02*
X113983523Y-82863438D01*
X113983523Y-82863438D02*
X114031142Y-82911057D01*
X114983523Y-83815819D02*
X114412095Y-83815819D01*
X114697809Y-83815819D02*
X114697809Y-82815819D01*
X114697809Y-82815819D02*
X114602571Y-82958676D01*
X114602571Y-82958676D02*
X114507333Y-83053914D01*
X114507333Y-83053914D02*
X114412095Y-83101533D01*
X115888285Y-82815819D02*
X115412095Y-82815819D01*
X115412095Y-82815819D02*
X115364476Y-83292009D01*
X115364476Y-83292009D02*
X115412095Y-83244390D01*
X115412095Y-83244390D02*
X115507333Y-83196771D01*
X115507333Y-83196771D02*
X115745428Y-83196771D01*
X115745428Y-83196771D02*
X115840666Y-83244390D01*
X115840666Y-83244390D02*
X115888285Y-83292009D01*
X115888285Y-83292009D02*
X115935904Y-83387247D01*
X115935904Y-83387247D02*
X115935904Y-83625342D01*
X115935904Y-83625342D02*
X115888285Y-83720580D01*
X115888285Y-83720580D02*
X115840666Y-83768200D01*
X115840666Y-83768200D02*
X115745428Y-83815819D01*
X115745428Y-83815819D02*
X115507333Y-83815819D01*
X115507333Y-83815819D02*
X115412095Y-83768200D01*
X115412095Y-83768200D02*
X115364476Y-83720580D01*
X122500819Y-55538666D02*
X122024628Y-55871999D01*
X122500819Y-56110094D02*
X121500819Y-56110094D01*
X121500819Y-56110094D02*
X121500819Y-55729142D01*
X121500819Y-55729142D02*
X121548438Y-55633904D01*
X121548438Y-55633904D02*
X121596057Y-55586285D01*
X121596057Y-55586285D02*
X121691295Y-55538666D01*
X121691295Y-55538666D02*
X121834152Y-55538666D01*
X121834152Y-55538666D02*
X121929390Y-55586285D01*
X121929390Y-55586285D02*
X121977009Y-55633904D01*
X121977009Y-55633904D02*
X122024628Y-55729142D01*
X122024628Y-55729142D02*
X122024628Y-56110094D01*
X121929390Y-54967237D02*
X121881771Y-55062475D01*
X121881771Y-55062475D02*
X121834152Y-55110094D01*
X121834152Y-55110094D02*
X121738914Y-55157713D01*
X121738914Y-55157713D02*
X121691295Y-55157713D01*
X121691295Y-55157713D02*
X121596057Y-55110094D01*
X121596057Y-55110094D02*
X121548438Y-55062475D01*
X121548438Y-55062475D02*
X121500819Y-54967237D01*
X121500819Y-54967237D02*
X121500819Y-54776761D01*
X121500819Y-54776761D02*
X121548438Y-54681523D01*
X121548438Y-54681523D02*
X121596057Y-54633904D01*
X121596057Y-54633904D02*
X121691295Y-54586285D01*
X121691295Y-54586285D02*
X121738914Y-54586285D01*
X121738914Y-54586285D02*
X121834152Y-54633904D01*
X121834152Y-54633904D02*
X121881771Y-54681523D01*
X121881771Y-54681523D02*
X121929390Y-54776761D01*
X121929390Y-54776761D02*
X121929390Y-54967237D01*
X121929390Y-54967237D02*
X121977009Y-55062475D01*
X121977009Y-55062475D02*
X122024628Y-55110094D01*
X122024628Y-55110094D02*
X122119866Y-55157713D01*
X122119866Y-55157713D02*
X122310342Y-55157713D01*
X122310342Y-55157713D02*
X122405580Y-55110094D01*
X122405580Y-55110094D02*
X122453200Y-55062475D01*
X122453200Y-55062475D02*
X122500819Y-54967237D01*
X122500819Y-54967237D02*
X122500819Y-54776761D01*
X122500819Y-54776761D02*
X122453200Y-54681523D01*
X122453200Y-54681523D02*
X122405580Y-54633904D01*
X122405580Y-54633904D02*
X122310342Y-54586285D01*
X122310342Y-54586285D02*
X122119866Y-54586285D01*
X122119866Y-54586285D02*
X122024628Y-54633904D01*
X122024628Y-54633904D02*
X121977009Y-54681523D01*
X121977009Y-54681523D02*
X121929390Y-54776761D01*
X99297261Y-77095057D02*
X99202023Y-77047438D01*
X99202023Y-77047438D02*
X99106785Y-76952200D01*
X99106785Y-76952200D02*
X98963928Y-76809342D01*
X98963928Y-76809342D02*
X98868690Y-76761723D01*
X98868690Y-76761723D02*
X98773452Y-76761723D01*
X98821071Y-76999819D02*
X98725833Y-76952200D01*
X98725833Y-76952200D02*
X98630595Y-76856961D01*
X98630595Y-76856961D02*
X98582976Y-76666485D01*
X98582976Y-76666485D02*
X98582976Y-76333152D01*
X98582976Y-76333152D02*
X98630595Y-76142676D01*
X98630595Y-76142676D02*
X98725833Y-76047438D01*
X98725833Y-76047438D02*
X98821071Y-75999819D01*
X98821071Y-75999819D02*
X99011547Y-75999819D01*
X99011547Y-75999819D02*
X99106785Y-76047438D01*
X99106785Y-76047438D02*
X99202023Y-76142676D01*
X99202023Y-76142676D02*
X99249642Y-76333152D01*
X99249642Y-76333152D02*
X99249642Y-76666485D01*
X99249642Y-76666485D02*
X99202023Y-76856961D01*
X99202023Y-76856961D02*
X99106785Y-76952200D01*
X99106785Y-76952200D02*
X99011547Y-76999819D01*
X99011547Y-76999819D02*
X98821071Y-76999819D01*
X100202023Y-76999819D02*
X99630595Y-76999819D01*
X99916309Y-76999819D02*
X99916309Y-75999819D01*
X99916309Y-75999819D02*
X99821071Y-76142676D01*
X99821071Y-76142676D02*
X99725833Y-76237914D01*
X99725833Y-76237914D02*
X99630595Y-76285533D01*
X109691809Y-75881628D02*
X109691809Y-76357819D01*
X109358476Y-75357819D02*
X109691809Y-75881628D01*
X109691809Y-75881628D02*
X110025142Y-75357819D01*
X110882285Y-76357819D02*
X110310857Y-76357819D01*
X110596571Y-76357819D02*
X110596571Y-75357819D01*
X110596571Y-75357819D02*
X110501333Y-75500676D01*
X110501333Y-75500676D02*
X110406095Y-75595914D01*
X110406095Y-75595914D02*
X110310857Y-75643533D01*
X114038142Y-87654319D02*
X113704809Y-87178128D01*
X113466714Y-87654319D02*
X113466714Y-86654319D01*
X113466714Y-86654319D02*
X113847666Y-86654319D01*
X113847666Y-86654319D02*
X113942904Y-86701938D01*
X113942904Y-86701938D02*
X113990523Y-86749557D01*
X113990523Y-86749557D02*
X114038142Y-86844795D01*
X114038142Y-86844795D02*
X114038142Y-86987652D01*
X114038142Y-86987652D02*
X113990523Y-87082890D01*
X113990523Y-87082890D02*
X113942904Y-87130509D01*
X113942904Y-87130509D02*
X113847666Y-87178128D01*
X113847666Y-87178128D02*
X113466714Y-87178128D01*
X114990523Y-87654319D02*
X114419095Y-87654319D01*
X114704809Y-87654319D02*
X114704809Y-86654319D01*
X114704809Y-86654319D02*
X114609571Y-86797176D01*
X114609571Y-86797176D02*
X114514333Y-86892414D01*
X114514333Y-86892414D02*
X114419095Y-86940033D01*
X115466714Y-87654319D02*
X115657190Y-87654319D01*
X115657190Y-87654319D02*
X115752428Y-87606700D01*
X115752428Y-87606700D02*
X115800047Y-87559080D01*
X115800047Y-87559080D02*
X115895285Y-87416223D01*
X115895285Y-87416223D02*
X115942904Y-87225747D01*
X115942904Y-87225747D02*
X115942904Y-86844795D01*
X115942904Y-86844795D02*
X115895285Y-86749557D01*
X115895285Y-86749557D02*
X115847666Y-86701938D01*
X115847666Y-86701938D02*
X115752428Y-86654319D01*
X115752428Y-86654319D02*
X115561952Y-86654319D01*
X115561952Y-86654319D02*
X115466714Y-86701938D01*
X115466714Y-86701938D02*
X115419095Y-86749557D01*
X115419095Y-86749557D02*
X115371476Y-86844795D01*
X115371476Y-86844795D02*
X115371476Y-87082890D01*
X115371476Y-87082890D02*
X115419095Y-87178128D01*
X115419095Y-87178128D02*
X115466714Y-87225747D01*
X115466714Y-87225747D02*
X115561952Y-87273366D01*
X115561952Y-87273366D02*
X115752428Y-87273366D01*
X115752428Y-87273366D02*
X115847666Y-87225747D01*
X115847666Y-87225747D02*
X115895285Y-87178128D01*
X115895285Y-87178128D02*
X115942904Y-87082890D01*
X85039580Y-84113666D02*
X85087200Y-84161285D01*
X85087200Y-84161285D02*
X85134819Y-84304142D01*
X85134819Y-84304142D02*
X85134819Y-84399380D01*
X85134819Y-84399380D02*
X85087200Y-84542237D01*
X85087200Y-84542237D02*
X84991961Y-84637475D01*
X84991961Y-84637475D02*
X84896723Y-84685094D01*
X84896723Y-84685094D02*
X84706247Y-84732713D01*
X84706247Y-84732713D02*
X84563390Y-84732713D01*
X84563390Y-84732713D02*
X84372914Y-84685094D01*
X84372914Y-84685094D02*
X84277676Y-84637475D01*
X84277676Y-84637475D02*
X84182438Y-84542237D01*
X84182438Y-84542237D02*
X84134819Y-84399380D01*
X84134819Y-84399380D02*
X84134819Y-84304142D01*
X84134819Y-84304142D02*
X84182438Y-84161285D01*
X84182438Y-84161285D02*
X84230057Y-84113666D01*
X84468152Y-83256523D02*
X85134819Y-83256523D01*
X84087200Y-83494618D02*
X84801485Y-83732713D01*
X84801485Y-83732713D02*
X84801485Y-83113666D01*
X121238261Y-86608057D02*
X121143023Y-86560438D01*
X121143023Y-86560438D02*
X121047785Y-86465200D01*
X121047785Y-86465200D02*
X120904928Y-86322342D01*
X120904928Y-86322342D02*
X120809690Y-86274723D01*
X120809690Y-86274723D02*
X120714452Y-86274723D01*
X120762071Y-86512819D02*
X120666833Y-86465200D01*
X120666833Y-86465200D02*
X120571595Y-86369961D01*
X120571595Y-86369961D02*
X120523976Y-86179485D01*
X120523976Y-86179485D02*
X120523976Y-85846152D01*
X120523976Y-85846152D02*
X120571595Y-85655676D01*
X120571595Y-85655676D02*
X120666833Y-85560438D01*
X120666833Y-85560438D02*
X120762071Y-85512819D01*
X120762071Y-85512819D02*
X120952547Y-85512819D01*
X120952547Y-85512819D02*
X121047785Y-85560438D01*
X121047785Y-85560438D02*
X121143023Y-85655676D01*
X121143023Y-85655676D02*
X121190642Y-85846152D01*
X121190642Y-85846152D02*
X121190642Y-86179485D01*
X121190642Y-86179485D02*
X121143023Y-86369961D01*
X121143023Y-86369961D02*
X121047785Y-86465200D01*
X121047785Y-86465200D02*
X120952547Y-86512819D01*
X120952547Y-86512819D02*
X120762071Y-86512819D01*
X121523976Y-85512819D02*
X122143023Y-85512819D01*
X122143023Y-85512819D02*
X121809690Y-85893771D01*
X121809690Y-85893771D02*
X121952547Y-85893771D01*
X121952547Y-85893771D02*
X122047785Y-85941390D01*
X122047785Y-85941390D02*
X122095404Y-85989009D01*
X122095404Y-85989009D02*
X122143023Y-86084247D01*
X122143023Y-86084247D02*
X122143023Y-86322342D01*
X122143023Y-86322342D02*
X122095404Y-86417580D01*
X122095404Y-86417580D02*
X122047785Y-86465200D01*
X122047785Y-86465200D02*
X121952547Y-86512819D01*
X121952547Y-86512819D02*
X121666833Y-86512819D01*
X121666833Y-86512819D02*
X121571595Y-86465200D01*
X121571595Y-86465200D02*
X121523976Y-86417580D01*
X124112819Y-82018094D02*
X123112819Y-82018094D01*
X123112819Y-82018094D02*
X123112819Y-81779999D01*
X123112819Y-81779999D02*
X123160438Y-81637142D01*
X123160438Y-81637142D02*
X123255676Y-81541904D01*
X123255676Y-81541904D02*
X123350914Y-81494285D01*
X123350914Y-81494285D02*
X123541390Y-81446666D01*
X123541390Y-81446666D02*
X123684247Y-81446666D01*
X123684247Y-81446666D02*
X123874723Y-81494285D01*
X123874723Y-81494285D02*
X123969961Y-81541904D01*
X123969961Y-81541904D02*
X124065200Y-81637142D01*
X124065200Y-81637142D02*
X124112819Y-81779999D01*
X124112819Y-81779999D02*
X124112819Y-82018094D01*
X123208057Y-81065713D02*
X123160438Y-81018094D01*
X123160438Y-81018094D02*
X123112819Y-80922856D01*
X123112819Y-80922856D02*
X123112819Y-80684761D01*
X123112819Y-80684761D02*
X123160438Y-80589523D01*
X123160438Y-80589523D02*
X123208057Y-80541904D01*
X123208057Y-80541904D02*
X123303295Y-80494285D01*
X123303295Y-80494285D02*
X123398533Y-80494285D01*
X123398533Y-80494285D02*
X123541390Y-80541904D01*
X123541390Y-80541904D02*
X124112819Y-81113332D01*
X124112819Y-81113332D02*
X124112819Y-80494285D01*
X102434819Y-89701666D02*
X101958628Y-90034999D01*
X102434819Y-90273094D02*
X101434819Y-90273094D01*
X101434819Y-90273094D02*
X101434819Y-89892142D01*
X101434819Y-89892142D02*
X101482438Y-89796904D01*
X101482438Y-89796904D02*
X101530057Y-89749285D01*
X101530057Y-89749285D02*
X101625295Y-89701666D01*
X101625295Y-89701666D02*
X101768152Y-89701666D01*
X101768152Y-89701666D02*
X101863390Y-89749285D01*
X101863390Y-89749285D02*
X101911009Y-89796904D01*
X101911009Y-89796904D02*
X101958628Y-89892142D01*
X101958628Y-89892142D02*
X101958628Y-90273094D01*
X101434819Y-88796904D02*
X101434819Y-89273094D01*
X101434819Y-89273094D02*
X101911009Y-89320713D01*
X101911009Y-89320713D02*
X101863390Y-89273094D01*
X101863390Y-89273094D02*
X101815771Y-89177856D01*
X101815771Y-89177856D02*
X101815771Y-88939761D01*
X101815771Y-88939761D02*
X101863390Y-88844523D01*
X101863390Y-88844523D02*
X101911009Y-88796904D01*
X101911009Y-88796904D02*
X102006247Y-88749285D01*
X102006247Y-88749285D02*
X102244342Y-88749285D01*
X102244342Y-88749285D02*
X102339580Y-88796904D01*
X102339580Y-88796904D02*
X102387200Y-88844523D01*
X102387200Y-88844523D02*
X102434819Y-88939761D01*
X102434819Y-88939761D02*
X102434819Y-89177856D01*
X102434819Y-89177856D02*
X102387200Y-89273094D01*
X102387200Y-89273094D02*
X102339580Y-89320713D01*
X160348819Y-63158666D02*
X159872628Y-63491999D01*
X160348819Y-63730094D02*
X159348819Y-63730094D01*
X159348819Y-63730094D02*
X159348819Y-63349142D01*
X159348819Y-63349142D02*
X159396438Y-63253904D01*
X159396438Y-63253904D02*
X159444057Y-63206285D01*
X159444057Y-63206285D02*
X159539295Y-63158666D01*
X159539295Y-63158666D02*
X159682152Y-63158666D01*
X159682152Y-63158666D02*
X159777390Y-63206285D01*
X159777390Y-63206285D02*
X159825009Y-63253904D01*
X159825009Y-63253904D02*
X159872628Y-63349142D01*
X159872628Y-63349142D02*
X159872628Y-63730094D01*
X160348819Y-62206285D02*
X160348819Y-62777713D01*
X160348819Y-62491999D02*
X159348819Y-62491999D01*
X159348819Y-62491999D02*
X159491676Y-62587237D01*
X159491676Y-62587237D02*
X159586914Y-62682475D01*
X159586914Y-62682475D02*
X159634533Y-62777713D01*
X89228819Y-84090166D02*
X88752628Y-84423499D01*
X89228819Y-84661594D02*
X88228819Y-84661594D01*
X88228819Y-84661594D02*
X88228819Y-84280642D01*
X88228819Y-84280642D02*
X88276438Y-84185404D01*
X88276438Y-84185404D02*
X88324057Y-84137785D01*
X88324057Y-84137785D02*
X88419295Y-84090166D01*
X88419295Y-84090166D02*
X88562152Y-84090166D01*
X88562152Y-84090166D02*
X88657390Y-84137785D01*
X88657390Y-84137785D02*
X88705009Y-84185404D01*
X88705009Y-84185404D02*
X88752628Y-84280642D01*
X88752628Y-84280642D02*
X88752628Y-84661594D01*
X88228819Y-83756832D02*
X88228819Y-83137785D01*
X88228819Y-83137785D02*
X88609771Y-83471118D01*
X88609771Y-83471118D02*
X88609771Y-83328261D01*
X88609771Y-83328261D02*
X88657390Y-83233023D01*
X88657390Y-83233023D02*
X88705009Y-83185404D01*
X88705009Y-83185404D02*
X88800247Y-83137785D01*
X88800247Y-83137785D02*
X89038342Y-83137785D01*
X89038342Y-83137785D02*
X89133580Y-83185404D01*
X89133580Y-83185404D02*
X89181200Y-83233023D01*
X89181200Y-83233023D02*
X89228819Y-83328261D01*
X89228819Y-83328261D02*
X89228819Y-83613975D01*
X89228819Y-83613975D02*
X89181200Y-83709213D01*
X89181200Y-83709213D02*
X89133580Y-83756832D01*
X78579200Y-84481332D02*
X78626819Y-84338475D01*
X78626819Y-84338475D02*
X78626819Y-84100380D01*
X78626819Y-84100380D02*
X78579200Y-84005142D01*
X78579200Y-84005142D02*
X78531580Y-83957523D01*
X78531580Y-83957523D02*
X78436342Y-83909904D01*
X78436342Y-83909904D02*
X78341104Y-83909904D01*
X78341104Y-83909904D02*
X78245866Y-83957523D01*
X78245866Y-83957523D02*
X78198247Y-84005142D01*
X78198247Y-84005142D02*
X78150628Y-84100380D01*
X78150628Y-84100380D02*
X78103009Y-84290856D01*
X78103009Y-84290856D02*
X78055390Y-84386094D01*
X78055390Y-84386094D02*
X78007771Y-84433713D01*
X78007771Y-84433713D02*
X77912533Y-84481332D01*
X77912533Y-84481332D02*
X77817295Y-84481332D01*
X77817295Y-84481332D02*
X77722057Y-84433713D01*
X77722057Y-84433713D02*
X77674438Y-84386094D01*
X77674438Y-84386094D02*
X77626819Y-84290856D01*
X77626819Y-84290856D02*
X77626819Y-84052761D01*
X77626819Y-84052761D02*
X77674438Y-83909904D01*
X77626819Y-83576570D02*
X78626819Y-83338475D01*
X78626819Y-83338475D02*
X77912533Y-83147999D01*
X77912533Y-83147999D02*
X78626819Y-82957523D01*
X78626819Y-82957523D02*
X77626819Y-82719428D01*
X77722057Y-82386094D02*
X77674438Y-82338475D01*
X77674438Y-82338475D02*
X77626819Y-82243237D01*
X77626819Y-82243237D02*
X77626819Y-82005142D01*
X77626819Y-82005142D02*
X77674438Y-81909904D01*
X77674438Y-81909904D02*
X77722057Y-81862285D01*
X77722057Y-81862285D02*
X77817295Y-81814666D01*
X77817295Y-81814666D02*
X77912533Y-81814666D01*
X77912533Y-81814666D02*
X78055390Y-81862285D01*
X78055390Y-81862285D02*
X78626819Y-82433713D01*
X78626819Y-82433713D02*
X78626819Y-81814666D01*
X92177819Y-90423904D02*
X92987342Y-90423904D01*
X92987342Y-90423904D02*
X93082580Y-90376285D01*
X93082580Y-90376285D02*
X93130200Y-90328666D01*
X93130200Y-90328666D02*
X93177819Y-90233428D01*
X93177819Y-90233428D02*
X93177819Y-90042952D01*
X93177819Y-90042952D02*
X93130200Y-89947714D01*
X93130200Y-89947714D02*
X93082580Y-89900095D01*
X93082580Y-89900095D02*
X92987342Y-89852476D01*
X92987342Y-89852476D02*
X92177819Y-89852476D01*
X93177819Y-88852476D02*
X93177819Y-89423904D01*
X93177819Y-89138190D02*
X92177819Y-89138190D01*
X92177819Y-89138190D02*
X92320676Y-89233428D01*
X92320676Y-89233428D02*
X92415914Y-89328666D01*
X92415914Y-89328666D02*
X92463533Y-89423904D01*
D14*
X133672071Y-100022000D02*
X134100642Y-100022000D01*
X134100642Y-100022000D02*
X134186357Y-100050571D01*
X134186357Y-100050571D02*
X134243500Y-100107714D01*
X134243500Y-100107714D02*
X134272071Y-100193428D01*
X134272071Y-100193428D02*
X134272071Y-100250571D01*
X133729214Y-99764857D02*
X133700642Y-99736285D01*
X133700642Y-99736285D02*
X133672071Y-99679143D01*
X133672071Y-99679143D02*
X133672071Y-99536285D01*
X133672071Y-99536285D02*
X133700642Y-99479143D01*
X133700642Y-99479143D02*
X133729214Y-99450571D01*
X133729214Y-99450571D02*
X133786357Y-99422000D01*
X133786357Y-99422000D02*
X133843500Y-99422000D01*
X133843500Y-99422000D02*
X133929214Y-99450571D01*
X133929214Y-99450571D02*
X134272071Y-99793428D01*
X134272071Y-99793428D02*
X134272071Y-99422000D01*
D11*
X85010666Y-104610819D02*
X85010666Y-105325104D01*
X85010666Y-105325104D02*
X84963047Y-105467961D01*
X84963047Y-105467961D02*
X84867809Y-105563200D01*
X84867809Y-105563200D02*
X84724952Y-105610819D01*
X84724952Y-105610819D02*
X84629714Y-105610819D01*
X86010666Y-105610819D02*
X85439238Y-105610819D01*
X85724952Y-105610819D02*
X85724952Y-104610819D01*
X85724952Y-104610819D02*
X85629714Y-104753676D01*
X85629714Y-104753676D02*
X85534476Y-104848914D01*
X85534476Y-104848914D02*
X85439238Y-104896533D01*
X120864333Y-91641819D02*
X120531000Y-91165628D01*
X120292905Y-91641819D02*
X120292905Y-90641819D01*
X120292905Y-90641819D02*
X120673857Y-90641819D01*
X120673857Y-90641819D02*
X120769095Y-90689438D01*
X120769095Y-90689438D02*
X120816714Y-90737057D01*
X120816714Y-90737057D02*
X120864333Y-90832295D01*
X120864333Y-90832295D02*
X120864333Y-90975152D01*
X120864333Y-90975152D02*
X120816714Y-91070390D01*
X120816714Y-91070390D02*
X120769095Y-91118009D01*
X120769095Y-91118009D02*
X120673857Y-91165628D01*
X120673857Y-91165628D02*
X120292905Y-91165628D01*
X121197667Y-90641819D02*
X121864333Y-90641819D01*
X121864333Y-90641819D02*
X121435762Y-91641819D01*
X158122761Y-55224819D02*
X157789428Y-54748628D01*
X157551333Y-55224819D02*
X157551333Y-54224819D01*
X157551333Y-54224819D02*
X157932285Y-54224819D01*
X157932285Y-54224819D02*
X158027523Y-54272438D01*
X158027523Y-54272438D02*
X158075142Y-54320057D01*
X158075142Y-54320057D02*
X158122761Y-54415295D01*
X158122761Y-54415295D02*
X158122761Y-54558152D01*
X158122761Y-54558152D02*
X158075142Y-54653390D01*
X158075142Y-54653390D02*
X158027523Y-54701009D01*
X158027523Y-54701009D02*
X157932285Y-54748628D01*
X157932285Y-54748628D02*
X157551333Y-54748628D01*
X158408476Y-54224819D02*
X158741809Y-55224819D01*
X158741809Y-55224819D02*
X159075142Y-54224819D01*
X159932285Y-55224819D02*
X159360857Y-55224819D01*
X159646571Y-55224819D02*
X159646571Y-54224819D01*
X159646571Y-54224819D02*
X159551333Y-54367676D01*
X159551333Y-54367676D02*
X159456095Y-54462914D01*
X159456095Y-54462914D02*
X159360857Y-54510533D01*
X105019142Y-83720580D02*
X104971523Y-83768200D01*
X104971523Y-83768200D02*
X104828666Y-83815819D01*
X104828666Y-83815819D02*
X104733428Y-83815819D01*
X104733428Y-83815819D02*
X104590571Y-83768200D01*
X104590571Y-83768200D02*
X104495333Y-83672961D01*
X104495333Y-83672961D02*
X104447714Y-83577723D01*
X104447714Y-83577723D02*
X104400095Y-83387247D01*
X104400095Y-83387247D02*
X104400095Y-83244390D01*
X104400095Y-83244390D02*
X104447714Y-83053914D01*
X104447714Y-83053914D02*
X104495333Y-82958676D01*
X104495333Y-82958676D02*
X104590571Y-82863438D01*
X104590571Y-82863438D02*
X104733428Y-82815819D01*
X104733428Y-82815819D02*
X104828666Y-82815819D01*
X104828666Y-82815819D02*
X104971523Y-82863438D01*
X104971523Y-82863438D02*
X105019142Y-82911057D01*
X105971523Y-83815819D02*
X105400095Y-83815819D01*
X105685809Y-83815819D02*
X105685809Y-82815819D01*
X105685809Y-82815819D02*
X105590571Y-82958676D01*
X105590571Y-82958676D02*
X105495333Y-83053914D01*
X105495333Y-83053914D02*
X105400095Y-83101533D01*
X106304857Y-82815819D02*
X106971523Y-82815819D01*
X106971523Y-82815819D02*
X106542952Y-83815819D01*
X89227819Y-69762666D02*
X88751628Y-70095999D01*
X89227819Y-70334094D02*
X88227819Y-70334094D01*
X88227819Y-70334094D02*
X88227819Y-69953142D01*
X88227819Y-69953142D02*
X88275438Y-69857904D01*
X88275438Y-69857904D02*
X88323057Y-69810285D01*
X88323057Y-69810285D02*
X88418295Y-69762666D01*
X88418295Y-69762666D02*
X88561152Y-69762666D01*
X88561152Y-69762666D02*
X88656390Y-69810285D01*
X88656390Y-69810285D02*
X88704009Y-69857904D01*
X88704009Y-69857904D02*
X88751628Y-69953142D01*
X88751628Y-69953142D02*
X88751628Y-70334094D01*
X88561152Y-68905523D02*
X89227819Y-68905523D01*
X88180200Y-69143618D02*
X88894485Y-69381713D01*
X88894485Y-69381713D02*
X88894485Y-68762666D01*
X78579200Y-68225332D02*
X78626819Y-68082475D01*
X78626819Y-68082475D02*
X78626819Y-67844380D01*
X78626819Y-67844380D02*
X78579200Y-67749142D01*
X78579200Y-67749142D02*
X78531580Y-67701523D01*
X78531580Y-67701523D02*
X78436342Y-67653904D01*
X78436342Y-67653904D02*
X78341104Y-67653904D01*
X78341104Y-67653904D02*
X78245866Y-67701523D01*
X78245866Y-67701523D02*
X78198247Y-67749142D01*
X78198247Y-67749142D02*
X78150628Y-67844380D01*
X78150628Y-67844380D02*
X78103009Y-68034856D01*
X78103009Y-68034856D02*
X78055390Y-68130094D01*
X78055390Y-68130094D02*
X78007771Y-68177713D01*
X78007771Y-68177713D02*
X77912533Y-68225332D01*
X77912533Y-68225332D02*
X77817295Y-68225332D01*
X77817295Y-68225332D02*
X77722057Y-68177713D01*
X77722057Y-68177713D02*
X77674438Y-68130094D01*
X77674438Y-68130094D02*
X77626819Y-68034856D01*
X77626819Y-68034856D02*
X77626819Y-67796761D01*
X77626819Y-67796761D02*
X77674438Y-67653904D01*
X77626819Y-67320570D02*
X78626819Y-67082475D01*
X78626819Y-67082475D02*
X77912533Y-66891999D01*
X77912533Y-66891999D02*
X78626819Y-66701523D01*
X78626819Y-66701523D02*
X77626819Y-66463428D01*
X78626819Y-65558666D02*
X78626819Y-66130094D01*
X78626819Y-65844380D02*
X77626819Y-65844380D01*
X77626819Y-65844380D02*
X77769676Y-65939618D01*
X77769676Y-65939618D02*
X77864914Y-66034856D01*
X77864914Y-66034856D02*
X77912533Y-66130094D01*
X93983980Y-83683666D02*
X94031600Y-83731285D01*
X94031600Y-83731285D02*
X94079219Y-83874142D01*
X94079219Y-83874142D02*
X94079219Y-83969380D01*
X94079219Y-83969380D02*
X94031600Y-84112237D01*
X94031600Y-84112237D02*
X93936361Y-84207475D01*
X93936361Y-84207475D02*
X93841123Y-84255094D01*
X93841123Y-84255094D02*
X93650647Y-84302713D01*
X93650647Y-84302713D02*
X93507790Y-84302713D01*
X93507790Y-84302713D02*
X93317314Y-84255094D01*
X93317314Y-84255094D02*
X93222076Y-84207475D01*
X93222076Y-84207475D02*
X93126838Y-84112237D01*
X93126838Y-84112237D02*
X93079219Y-83969380D01*
X93079219Y-83969380D02*
X93079219Y-83874142D01*
X93079219Y-83874142D02*
X93126838Y-83731285D01*
X93126838Y-83731285D02*
X93174457Y-83683666D01*
X93079219Y-82778904D02*
X93079219Y-83255094D01*
X93079219Y-83255094D02*
X93555409Y-83302713D01*
X93555409Y-83302713D02*
X93507790Y-83255094D01*
X93507790Y-83255094D02*
X93460171Y-83159856D01*
X93460171Y-83159856D02*
X93460171Y-82921761D01*
X93460171Y-82921761D02*
X93507790Y-82826523D01*
X93507790Y-82826523D02*
X93555409Y-82778904D01*
X93555409Y-82778904D02*
X93650647Y-82731285D01*
X93650647Y-82731285D02*
X93888742Y-82731285D01*
X93888742Y-82731285D02*
X93983980Y-82778904D01*
X93983980Y-82778904D02*
X94031600Y-82826523D01*
X94031600Y-82826523D02*
X94079219Y-82921761D01*
X94079219Y-82921761D02*
X94079219Y-83159856D01*
X94079219Y-83159856D02*
X94031600Y-83255094D01*
X94031600Y-83255094D02*
X93983980Y-83302713D01*
X132167333Y-66175180D02*
X132119714Y-66222800D01*
X132119714Y-66222800D02*
X131976857Y-66270419D01*
X131976857Y-66270419D02*
X131881619Y-66270419D01*
X131881619Y-66270419D02*
X131738762Y-66222800D01*
X131738762Y-66222800D02*
X131643524Y-66127561D01*
X131643524Y-66127561D02*
X131595905Y-66032323D01*
X131595905Y-66032323D02*
X131548286Y-65841847D01*
X131548286Y-65841847D02*
X131548286Y-65698990D01*
X131548286Y-65698990D02*
X131595905Y-65508514D01*
X131595905Y-65508514D02*
X131643524Y-65413276D01*
X131643524Y-65413276D02*
X131738762Y-65318038D01*
X131738762Y-65318038D02*
X131881619Y-65270419D01*
X131881619Y-65270419D02*
X131976857Y-65270419D01*
X131976857Y-65270419D02*
X132119714Y-65318038D01*
X132119714Y-65318038D02*
X132167333Y-65365657D01*
X132500667Y-65270419D02*
X133167333Y-65270419D01*
X133167333Y-65270419D02*
X132738762Y-66270419D01*
X82372580Y-101319666D02*
X82420200Y-101367285D01*
X82420200Y-101367285D02*
X82467819Y-101510142D01*
X82467819Y-101510142D02*
X82467819Y-101605380D01*
X82467819Y-101605380D02*
X82420200Y-101748237D01*
X82420200Y-101748237D02*
X82324961Y-101843475D01*
X82324961Y-101843475D02*
X82229723Y-101891094D01*
X82229723Y-101891094D02*
X82039247Y-101938713D01*
X82039247Y-101938713D02*
X81896390Y-101938713D01*
X81896390Y-101938713D02*
X81705914Y-101891094D01*
X81705914Y-101891094D02*
X81610676Y-101843475D01*
X81610676Y-101843475D02*
X81515438Y-101748237D01*
X81515438Y-101748237D02*
X81467819Y-101605380D01*
X81467819Y-101605380D02*
X81467819Y-101510142D01*
X81467819Y-101510142D02*
X81515438Y-101367285D01*
X81515438Y-101367285D02*
X81563057Y-101319666D01*
X81467819Y-100462523D02*
X81467819Y-100652999D01*
X81467819Y-100652999D02*
X81515438Y-100748237D01*
X81515438Y-100748237D02*
X81563057Y-100795856D01*
X81563057Y-100795856D02*
X81705914Y-100891094D01*
X81705914Y-100891094D02*
X81896390Y-100938713D01*
X81896390Y-100938713D02*
X82277342Y-100938713D01*
X82277342Y-100938713D02*
X82372580Y-100891094D01*
X82372580Y-100891094D02*
X82420200Y-100843475D01*
X82420200Y-100843475D02*
X82467819Y-100748237D01*
X82467819Y-100748237D02*
X82467819Y-100557761D01*
X82467819Y-100557761D02*
X82420200Y-100462523D01*
X82420200Y-100462523D02*
X82372580Y-100414904D01*
X82372580Y-100414904D02*
X82277342Y-100367285D01*
X82277342Y-100367285D02*
X82039247Y-100367285D01*
X82039247Y-100367285D02*
X81944009Y-100414904D01*
X81944009Y-100414904D02*
X81896390Y-100462523D01*
X81896390Y-100462523D02*
X81848771Y-100557761D01*
X81848771Y-100557761D02*
X81848771Y-100748237D01*
X81848771Y-100748237D02*
X81896390Y-100843475D01*
X81896390Y-100843475D02*
X81944009Y-100891094D01*
X81944009Y-100891094D02*
X82039247Y-100938713D01*
X170354666Y-76830819D02*
X170354666Y-77545104D01*
X170354666Y-77545104D02*
X170307047Y-77687961D01*
X170307047Y-77687961D02*
X170211809Y-77783200D01*
X170211809Y-77783200D02*
X170068952Y-77830819D01*
X170068952Y-77830819D02*
X169973714Y-77830819D01*
X170878476Y-77830819D02*
X171068952Y-77830819D01*
X171068952Y-77830819D02*
X171164190Y-77783200D01*
X171164190Y-77783200D02*
X171211809Y-77735580D01*
X171211809Y-77735580D02*
X171307047Y-77592723D01*
X171307047Y-77592723D02*
X171354666Y-77402247D01*
X171354666Y-77402247D02*
X171354666Y-77021295D01*
X171354666Y-77021295D02*
X171307047Y-76926057D01*
X171307047Y-76926057D02*
X171259428Y-76878438D01*
X171259428Y-76878438D02*
X171164190Y-76830819D01*
X171164190Y-76830819D02*
X170973714Y-76830819D01*
X170973714Y-76830819D02*
X170878476Y-76878438D01*
X170878476Y-76878438D02*
X170830857Y-76926057D01*
X170830857Y-76926057D02*
X170783238Y-77021295D01*
X170783238Y-77021295D02*
X170783238Y-77259390D01*
X170783238Y-77259390D02*
X170830857Y-77354628D01*
X170830857Y-77354628D02*
X170878476Y-77402247D01*
X170878476Y-77402247D02*
X170973714Y-77449866D01*
X170973714Y-77449866D02*
X171164190Y-77449866D01*
X171164190Y-77449866D02*
X171259428Y-77402247D01*
X171259428Y-77402247D02*
X171307047Y-77354628D01*
X171307047Y-77354628D02*
X171354666Y-77259390D01*
X95853819Y-69849904D02*
X96663342Y-69849904D01*
X96663342Y-69849904D02*
X96758580Y-69802285D01*
X96758580Y-69802285D02*
X96806200Y-69754666D01*
X96806200Y-69754666D02*
X96853819Y-69659428D01*
X96853819Y-69659428D02*
X96853819Y-69468952D01*
X96853819Y-69468952D02*
X96806200Y-69373714D01*
X96806200Y-69373714D02*
X96758580Y-69326095D01*
X96758580Y-69326095D02*
X96663342Y-69278476D01*
X96663342Y-69278476D02*
X95853819Y-69278476D01*
X95949057Y-68849904D02*
X95901438Y-68802285D01*
X95901438Y-68802285D02*
X95853819Y-68707047D01*
X95853819Y-68707047D02*
X95853819Y-68468952D01*
X95853819Y-68468952D02*
X95901438Y-68373714D01*
X95901438Y-68373714D02*
X95949057Y-68326095D01*
X95949057Y-68326095D02*
X96044295Y-68278476D01*
X96044295Y-68278476D02*
X96139533Y-68278476D01*
X96139533Y-68278476D02*
X96282390Y-68326095D01*
X96282390Y-68326095D02*
X96853819Y-68897523D01*
X96853819Y-68897523D02*
X96853819Y-68278476D01*
X141474505Y-67950819D02*
X141474505Y-66950819D01*
X142045933Y-67950819D02*
X141617362Y-67379390D01*
X142045933Y-66950819D02*
X141474505Y-67522247D01*
X142426886Y-67046057D02*
X142474505Y-66998438D01*
X142474505Y-66998438D02*
X142569743Y-66950819D01*
X142569743Y-66950819D02*
X142807838Y-66950819D01*
X142807838Y-66950819D02*
X142903076Y-66998438D01*
X142903076Y-66998438D02*
X142950695Y-67046057D01*
X142950695Y-67046057D02*
X142998314Y-67141295D01*
X142998314Y-67141295D02*
X142998314Y-67236533D01*
X142998314Y-67236533D02*
X142950695Y-67379390D01*
X142950695Y-67379390D02*
X142379267Y-67950819D01*
X142379267Y-67950819D02*
X142998314Y-67950819D01*
X164596819Y-66762094D02*
X165406342Y-66762094D01*
X165406342Y-66762094D02*
X165501580Y-66714475D01*
X165501580Y-66714475D02*
X165549200Y-66666856D01*
X165549200Y-66666856D02*
X165596819Y-66571618D01*
X165596819Y-66571618D02*
X165596819Y-66381142D01*
X165596819Y-66381142D02*
X165549200Y-66285904D01*
X165549200Y-66285904D02*
X165501580Y-66238285D01*
X165501580Y-66238285D02*
X165406342Y-66190666D01*
X165406342Y-66190666D02*
X164596819Y-66190666D01*
X165549200Y-65762094D02*
X165596819Y-65619237D01*
X165596819Y-65619237D02*
X165596819Y-65381142D01*
X165596819Y-65381142D02*
X165549200Y-65285904D01*
X165549200Y-65285904D02*
X165501580Y-65238285D01*
X165501580Y-65238285D02*
X165406342Y-65190666D01*
X165406342Y-65190666D02*
X165311104Y-65190666D01*
X165311104Y-65190666D02*
X165215866Y-65238285D01*
X165215866Y-65238285D02*
X165168247Y-65285904D01*
X165168247Y-65285904D02*
X165120628Y-65381142D01*
X165120628Y-65381142D02*
X165073009Y-65571618D01*
X165073009Y-65571618D02*
X165025390Y-65666856D01*
X165025390Y-65666856D02*
X164977771Y-65714475D01*
X164977771Y-65714475D02*
X164882533Y-65762094D01*
X164882533Y-65762094D02*
X164787295Y-65762094D01*
X164787295Y-65762094D02*
X164692057Y-65714475D01*
X164692057Y-65714475D02*
X164644438Y-65666856D01*
X164644438Y-65666856D02*
X164596819Y-65571618D01*
X164596819Y-65571618D02*
X164596819Y-65333523D01*
X164596819Y-65333523D02*
X164644438Y-65190666D01*
X165073009Y-64428761D02*
X165120628Y-64285904D01*
X165120628Y-64285904D02*
X165168247Y-64238285D01*
X165168247Y-64238285D02*
X165263485Y-64190666D01*
X165263485Y-64190666D02*
X165406342Y-64190666D01*
X165406342Y-64190666D02*
X165501580Y-64238285D01*
X165501580Y-64238285D02*
X165549200Y-64285904D01*
X165549200Y-64285904D02*
X165596819Y-64381142D01*
X165596819Y-64381142D02*
X165596819Y-64762094D01*
X165596819Y-64762094D02*
X164596819Y-64762094D01*
X164596819Y-64762094D02*
X164596819Y-64428761D01*
X164596819Y-64428761D02*
X164644438Y-64333523D01*
X164644438Y-64333523D02*
X164692057Y-64285904D01*
X164692057Y-64285904D02*
X164787295Y-64238285D01*
X164787295Y-64238285D02*
X164882533Y-64238285D01*
X164882533Y-64238285D02*
X164977771Y-64285904D01*
X164977771Y-64285904D02*
X165025390Y-64333523D01*
X165025390Y-64333523D02*
X165073009Y-64428761D01*
X165073009Y-64428761D02*
X165073009Y-64762094D01*
X165596819Y-63238285D02*
X165596819Y-63809713D01*
X165596819Y-63523999D02*
X164596819Y-63523999D01*
X164596819Y-63523999D02*
X164739676Y-63619237D01*
X164739676Y-63619237D02*
X164834914Y-63714475D01*
X164834914Y-63714475D02*
X164882533Y-63809713D01*
D10*
X125143500Y-53878000D02*
X124493500Y-53878000D01*
X125143500Y-53878000D02*
X125793500Y-53878000D01*
X125143500Y-56998000D02*
X124493500Y-56998000D01*
X125143500Y-56998000D02*
X125793500Y-56998000D01*
X123981000Y-53928000D02*
X123741000Y-53598000D01*
X124221000Y-53598000D01*
X123981000Y-53928000D01*
G36*
X123981000Y-53928000D02*
G01*
X123741000Y-53598000D01*
X124221000Y-53598000D01*
X123981000Y-53928000D01*
G37*
X165381000Y-80999064D02*
X165381000Y-80544936D01*
X166851000Y-80999064D02*
X166851000Y-80544936D01*
X113543200Y-100724700D02*
X113543200Y-103409700D01*
X113543200Y-103409700D02*
X115463200Y-103409700D01*
X115463200Y-103409700D02*
X115463200Y-100724700D01*
X163779252Y-70718000D02*
X162356748Y-70718000D01*
X163779252Y-72538000D02*
X162356748Y-72538000D01*
D15*
X146305690Y-62995018D02*
X146340585Y-63010269D01*
X146423877Y-63076235D01*
X146495103Y-63171618D01*
X146539153Y-63273406D01*
X146546322Y-63323587D01*
X146522285Y-63393647D01*
X146469561Y-63430717D01*
X146413031Y-63453164D01*
X146387146Y-63457300D01*
X146374542Y-63427283D01*
X146349654Y-63361961D01*
X146338735Y-63332445D01*
X146277508Y-63230348D01*
X146188861Y-63179423D01*
X146075193Y-63180989D01*
X146066774Y-63182994D01*
X146006088Y-63211767D01*
X145961474Y-63267859D01*
X145931002Y-63358163D01*
X145912744Y-63489571D01*
X145904771Y-63668974D01*
X145904023Y-63764433D01*
X145903652Y-63914913D01*
X145901223Y-64017495D01*
X145894760Y-64082672D01*
X145882288Y-64120938D01*
X145861833Y-64142785D01*
X145831419Y-64158707D01*
X145829661Y-64159509D01*
X145771091Y-64184272D01*
X145742075Y-64193391D01*
X145737616Y-64165822D01*
X145733799Y-64089620D01*
X145730899Y-63974541D01*
X145729191Y-63830341D01*
X145728851Y-63724814D01*
X145730588Y-63520613D01*
X145737382Y-63365697D01*
X145751607Y-63251024D01*
X145775638Y-63167551D01*
X145811848Y-63106236D01*
X145862612Y-63058034D01*
X145912739Y-63024393D01*
X146033275Y-62979619D01*
X146173557Y-62969521D01*
X146305690Y-62995018D01*
G36*
X146305690Y-62995018D02*
G01*
X146340585Y-63010269D01*
X146423877Y-63076235D01*
X146495103Y-63171618D01*
X146539153Y-63273406D01*
X146546322Y-63323587D01*
X146522285Y-63393647D01*
X146469561Y-63430717D01*
X146413031Y-63453164D01*
X146387146Y-63457300D01*
X146374542Y-63427283D01*
X146349654Y-63361961D01*
X146338735Y-63332445D01*
X146277508Y-63230348D01*
X146188861Y-63179423D01*
X146075193Y-63180989D01*
X146066774Y-63182994D01*
X146006088Y-63211767D01*
X145961474Y-63267859D01*
X145931002Y-63358163D01*
X145912744Y-63489571D01*
X145904771Y-63668974D01*
X145904023Y-63764433D01*
X145903652Y-63914913D01*
X145901223Y-64017495D01*
X145894760Y-64082672D01*
X145882288Y-64120938D01*
X145861833Y-64142785D01*
X145831419Y-64158707D01*
X145829661Y-64159509D01*
X145771091Y-64184272D01*
X145742075Y-64193391D01*
X145737616Y-64165822D01*
X145733799Y-64089620D01*
X145730899Y-63974541D01*
X145729191Y-63830341D01*
X145728851Y-63724814D01*
X145730588Y-63520613D01*
X145737382Y-63365697D01*
X145751607Y-63251024D01*
X145775638Y-63167551D01*
X145811848Y-63106236D01*
X145862612Y-63058034D01*
X145912739Y-63024393D01*
X146033275Y-62979619D01*
X146173557Y-62969521D01*
X146305690Y-62995018D01*
G37*
X138387429Y-62932719D02*
X138481123Y-62986914D01*
X138546264Y-63040707D01*
X138593907Y-63097066D01*
X138626728Y-63165987D01*
X138647406Y-63257468D01*
X138658620Y-63381506D01*
X138663049Y-63548098D01*
X138663563Y-63667851D01*
X138663563Y-64108659D01*
X138539483Y-64164283D01*
X138415402Y-64219907D01*
X138400805Y-63737095D01*
X138394773Y-63556779D01*
X138388445Y-63425901D01*
X138380606Y-63335511D01*
X138370037Y-63276664D01*
X138355523Y-63240413D01*
X138335848Y-63217810D01*
X138329535Y-63212917D01*
X138233888Y-63174706D01*
X138137207Y-63189827D01*
X138079655Y-63229943D01*
X138056245Y-63258370D01*
X138040039Y-63295672D01*
X138029741Y-63352223D01*
X138024049Y-63438394D01*
X138021664Y-63564558D01*
X138021264Y-63696042D01*
X138021186Y-63860999D01*
X138018361Y-63977761D01*
X138008907Y-64056510D01*
X137988940Y-64107431D01*
X137954576Y-64140706D01*
X137901932Y-64166520D01*
X137831617Y-64193344D01*
X137754820Y-64222542D01*
X137763962Y-63704346D01*
X137767643Y-63517539D01*
X137771950Y-63379490D01*
X137778123Y-63280568D01*
X137787402Y-63211145D01*
X137801027Y-63161590D01*
X137820239Y-63122273D01*
X137843402Y-63087584D01*
X137955152Y-62976770D01*
X138091513Y-62912689D01*
X138239825Y-62897339D01*
X138387429Y-62932719D01*
G36*
X138387429Y-62932719D02*
G01*
X138481123Y-62986914D01*
X138546264Y-63040707D01*
X138593907Y-63097066D01*
X138626728Y-63165987D01*
X138647406Y-63257468D01*
X138658620Y-63381506D01*
X138663049Y-63548098D01*
X138663563Y-63667851D01*
X138663563Y-64108659D01*
X138539483Y-64164283D01*
X138415402Y-64219907D01*
X138400805Y-63737095D01*
X138394773Y-63556779D01*
X138388445Y-63425901D01*
X138380606Y-63335511D01*
X138370037Y-63276664D01*
X138355523Y-63240413D01*
X138335848Y-63217810D01*
X138329535Y-63212917D01*
X138233888Y-63174706D01*
X138137207Y-63189827D01*
X138079655Y-63229943D01*
X138056245Y-63258370D01*
X138040039Y-63295672D01*
X138029741Y-63352223D01*
X138024049Y-63438394D01*
X138021664Y-63564558D01*
X138021264Y-63696042D01*
X138021186Y-63860999D01*
X138018361Y-63977761D01*
X138008907Y-64056510D01*
X137988940Y-64107431D01*
X137954576Y-64140706D01*
X137901932Y-64166520D01*
X137831617Y-64193344D01*
X137754820Y-64222542D01*
X137763962Y-63704346D01*
X137767643Y-63517539D01*
X137771950Y-63379490D01*
X137778123Y-63280568D01*
X137787402Y-63211145D01*
X137801027Y-63161590D01*
X137820239Y-63122273D01*
X137843402Y-63087584D01*
X137955152Y-62976770D01*
X138091513Y-62912689D01*
X138239825Y-62897339D01*
X138387429Y-62932719D01*
G37*
X142035943Y-62976920D02*
X142168565Y-63025859D01*
X142276010Y-63112419D01*
X142318032Y-63173352D01*
X142363843Y-63285161D01*
X142362891Y-63366006D01*
X142314808Y-63420378D01*
X142297017Y-63429624D01*
X142220204Y-63458450D01*
X142180976Y-63451065D01*
X142167689Y-63402658D01*
X142167012Y-63375920D01*
X142142686Y-63277548D01*
X142079281Y-63208734D01*
X141991154Y-63175498D01*
X141892663Y-63183861D01*
X141812602Y-63227296D01*
X141785561Y-63252072D01*
X141766394Y-63282129D01*
X141753446Y-63327565D01*
X141745064Y-63398476D01*
X141739593Y-63504960D01*
X141735378Y-63657112D01*
X141734287Y-63705287D01*
X141730307Y-63870095D01*
X141725781Y-63986088D01*
X141718995Y-64062833D01*
X141708231Y-64109893D01*
X141691773Y-64136835D01*
X141667906Y-64153223D01*
X141652626Y-64160463D01*
X141587733Y-64185220D01*
X141549534Y-64193391D01*
X141536912Y-64166103D01*
X141529208Y-64083603D01*
X141526380Y-63944941D01*
X141528386Y-63749162D01*
X141529011Y-63718965D01*
X141533421Y-63540349D01*
X141538635Y-63409923D01*
X141546055Y-63317492D01*
X141557082Y-63252858D01*
X141573117Y-63205825D01*
X141595561Y-63166196D01*
X141607302Y-63149215D01*
X141674619Y-63074080D01*
X141749910Y-63015638D01*
X141759128Y-63010536D01*
X141894133Y-62970260D01*
X142035943Y-62976920D01*
G36*
X142035943Y-62976920D02*
G01*
X142168565Y-63025859D01*
X142276010Y-63112419D01*
X142318032Y-63173352D01*
X142363843Y-63285161D01*
X142362891Y-63366006D01*
X142314808Y-63420378D01*
X142297017Y-63429624D01*
X142220204Y-63458450D01*
X142180976Y-63451065D01*
X142167689Y-63402658D01*
X142167012Y-63375920D01*
X142142686Y-63277548D01*
X142079281Y-63208734D01*
X141991154Y-63175498D01*
X141892663Y-63183861D01*
X141812602Y-63227296D01*
X141785561Y-63252072D01*
X141766394Y-63282129D01*
X141753446Y-63327565D01*
X141745064Y-63398476D01*
X141739593Y-63504960D01*
X141735378Y-63657112D01*
X141734287Y-63705287D01*
X141730307Y-63870095D01*
X141725781Y-63986088D01*
X141718995Y-64062833D01*
X141708231Y-64109893D01*
X141691773Y-64136835D01*
X141667906Y-64153223D01*
X141652626Y-64160463D01*
X141587733Y-64185220D01*
X141549534Y-64193391D01*
X141536912Y-64166103D01*
X141529208Y-64083603D01*
X141526380Y-63944941D01*
X141528386Y-63749162D01*
X141529011Y-63718965D01*
X141533421Y-63540349D01*
X141538635Y-63409923D01*
X141546055Y-63317492D01*
X141557082Y-63252858D01*
X141573117Y-63205825D01*
X141595561Y-63166196D01*
X141607302Y-63149215D01*
X141674619Y-63074080D01*
X141749910Y-63015638D01*
X141759128Y-63010536D01*
X141894133Y-62970260D01*
X142035943Y-62976920D01*
G37*
X144550124Y-62994840D02*
X144554579Y-63071653D01*
X144558071Y-63188391D01*
X144560315Y-63335821D01*
X144561035Y-63490455D01*
X144561035Y-64013727D01*
X144468645Y-64106117D01*
X144404978Y-64163047D01*
X144349089Y-64186107D01*
X144272702Y-64184647D01*
X144242380Y-64180934D01*
X144147610Y-64170126D01*
X144069222Y-64163933D01*
X144050115Y-64163361D01*
X143985699Y-64167102D01*
X143893571Y-64176494D01*
X143857850Y-64180934D01*
X143770114Y-64187801D01*
X143711153Y-64172885D01*
X143652690Y-64126835D01*
X143631585Y-64106117D01*
X143539195Y-64013727D01*
X143539195Y-63034947D01*
X143613558Y-63001066D01*
X143677590Y-62975970D01*
X143715052Y-62967184D01*
X143724657Y-62994950D01*
X143733635Y-63072530D01*
X143741386Y-63191348D01*
X143747314Y-63342828D01*
X143750173Y-63470805D01*
X143758161Y-63974425D01*
X143827848Y-63984278D01*
X143891229Y-63977389D01*
X143922286Y-63955083D01*
X143930967Y-63913379D01*
X143938378Y-63824544D01*
X143943931Y-63699834D01*
X143947036Y-63550507D01*
X143947484Y-63473661D01*
X143947931Y-63031287D01*
X144039874Y-62999235D01*
X144104949Y-62977443D01*
X144140347Y-62967281D01*
X144141368Y-62967184D01*
X144144920Y-62994809D01*
X144148823Y-63071411D01*
X144152751Y-63187579D01*
X144156376Y-63333904D01*
X144158908Y-63470805D01*
X144166897Y-63974425D01*
X144342069Y-63974425D01*
X144350107Y-63514965D01*
X144358146Y-63055505D01*
X144443543Y-63011344D01*
X144506593Y-62981019D01*
X144543910Y-62967258D01*
X144544987Y-62967184D01*
X144550124Y-62994840D01*
G36*
X144550124Y-62994840D02*
G01*
X144554579Y-63071653D01*
X144558071Y-63188391D01*
X144560315Y-63335821D01*
X144561035Y-63490455D01*
X144561035Y-64013727D01*
X144468645Y-64106117D01*
X144404978Y-64163047D01*
X144349089Y-64186107D01*
X144272702Y-64184647D01*
X144242380Y-64180934D01*
X144147610Y-64170126D01*
X144069222Y-64163933D01*
X144050115Y-64163361D01*
X143985699Y-64167102D01*
X143893571Y-64176494D01*
X143857850Y-64180934D01*
X143770114Y-64187801D01*
X143711153Y-64172885D01*
X143652690Y-64126835D01*
X143631585Y-64106117D01*
X143539195Y-64013727D01*
X143539195Y-63034947D01*
X143613558Y-63001066D01*
X143677590Y-62975970D01*
X143715052Y-62967184D01*
X143724657Y-62994950D01*
X143733635Y-63072530D01*
X143741386Y-63191348D01*
X143747314Y-63342828D01*
X143750173Y-63470805D01*
X143758161Y-63974425D01*
X143827848Y-63984278D01*
X143891229Y-63977389D01*
X143922286Y-63955083D01*
X143930967Y-63913379D01*
X143938378Y-63824544D01*
X143943931Y-63699834D01*
X143947036Y-63550507D01*
X143947484Y-63473661D01*
X143947931Y-63031287D01*
X144039874Y-62999235D01*
X144104949Y-62977443D01*
X144140347Y-62967281D01*
X144141368Y-62967184D01*
X144144920Y-62994809D01*
X144148823Y-63071411D01*
X144152751Y-63187579D01*
X144156376Y-63333904D01*
X144158908Y-63470805D01*
X144166897Y-63974425D01*
X144342069Y-63974425D01*
X144350107Y-63514965D01*
X144358146Y-63055505D01*
X144443543Y-63011344D01*
X144506593Y-62981019D01*
X144543910Y-62967258D01*
X144544987Y-62967184D01*
X144550124Y-62994840D01*
G37*
X139714598Y-62778857D02*
X139723154Y-62898188D01*
X139732981Y-62968506D01*
X139746599Y-62999179D01*
X139766527Y-62999571D01*
X139772989Y-62995910D01*
X139858940Y-62969398D01*
X139970745Y-62970946D01*
X140084414Y-62998199D01*
X140155510Y-63033455D01*
X140228405Y-63089778D01*
X140281693Y-63153519D01*
X140318275Y-63234510D01*
X140341050Y-63342586D01*
X140352919Y-63487580D01*
X140356782Y-63679326D01*
X140356851Y-63716109D01*
X140356897Y-64129288D01*
X140264954Y-64161339D01*
X140199652Y-64183144D01*
X140163824Y-64193297D01*
X140162770Y-64193391D01*
X140159242Y-64165860D01*
X140156239Y-64089923D01*
X140153990Y-63975565D01*
X140152724Y-63832769D01*
X140152529Y-63745951D01*
X140152123Y-63574773D01*
X140150032Y-63452088D01*
X140144947Y-63368000D01*
X140135560Y-63312614D01*
X140120561Y-63276032D01*
X140098642Y-63248359D01*
X140084957Y-63235032D01*
X139990949Y-63181328D01*
X139888364Y-63177307D01*
X139795290Y-63222725D01*
X139778078Y-63239123D01*
X139752832Y-63269957D01*
X139735320Y-63306531D01*
X139724142Y-63359415D01*
X139717896Y-63439177D01*
X139715182Y-63556385D01*
X139714598Y-63717991D01*
X139714598Y-64129288D01*
X139622655Y-64161339D01*
X139557353Y-64183144D01*
X139521525Y-64193297D01*
X139520471Y-64193391D01*
X139517775Y-64165448D01*
X139515345Y-64086630D01*
X139513278Y-63964453D01*
X139511671Y-63806432D01*
X139510623Y-63620083D01*
X139510231Y-63412920D01*
X139510230Y-63403706D01*
X139510230Y-62614020D01*
X139605115Y-62573997D01*
X139700000Y-62533973D01*
X139714598Y-62778857D01*
G36*
X139714598Y-62778857D02*
G01*
X139723154Y-62898188D01*
X139732981Y-62968506D01*
X139746599Y-62999179D01*
X139766527Y-62999571D01*
X139772989Y-62995910D01*
X139858940Y-62969398D01*
X139970745Y-62970946D01*
X140084414Y-62998199D01*
X140155510Y-63033455D01*
X140228405Y-63089778D01*
X140281693Y-63153519D01*
X140318275Y-63234510D01*
X140341050Y-63342586D01*
X140352919Y-63487580D01*
X140356782Y-63679326D01*
X140356851Y-63716109D01*
X140356897Y-64129288D01*
X140264954Y-64161339D01*
X140199652Y-64183144D01*
X140163824Y-64193297D01*
X140162770Y-64193391D01*
X140159242Y-64165860D01*
X140156239Y-64089923D01*
X140153990Y-63975565D01*
X140152724Y-63832769D01*
X140152529Y-63745951D01*
X140152123Y-63574773D01*
X140150032Y-63452088D01*
X140144947Y-63368000D01*
X140135560Y-63312614D01*
X140120561Y-63276032D01*
X140098642Y-63248359D01*
X140084957Y-63235032D01*
X139990949Y-63181328D01*
X139888364Y-63177307D01*
X139795290Y-63222725D01*
X139778078Y-63239123D01*
X139752832Y-63269957D01*
X139735320Y-63306531D01*
X139724142Y-63359415D01*
X139717896Y-63439177D01*
X139715182Y-63556385D01*
X139714598Y-63717991D01*
X139714598Y-64129288D01*
X139622655Y-64161339D01*
X139557353Y-64183144D01*
X139521525Y-64193297D01*
X139520471Y-64193391D01*
X139517775Y-64165448D01*
X139515345Y-64086630D01*
X139513278Y-63964453D01*
X139511671Y-63806432D01*
X139510623Y-63620083D01*
X139510231Y-63412920D01*
X139510230Y-63403706D01*
X139510230Y-62614020D01*
X139605115Y-62573997D01*
X139700000Y-62533973D01*
X139714598Y-62778857D01*
G37*
X135018221Y-62921015D02*
X135155061Y-62992968D01*
X135256051Y-63108766D01*
X135291925Y-63183213D01*
X135319839Y-63294992D01*
X135334129Y-63436227D01*
X135335484Y-63590371D01*
X135324595Y-63740879D01*
X135302153Y-63871205D01*
X135268850Y-63964803D01*
X135258615Y-63980922D01*
X135137382Y-64101249D01*
X134993387Y-64173317D01*
X134837139Y-64194408D01*
X134679148Y-64161802D01*
X134635180Y-64142253D01*
X134549556Y-64082012D01*
X134474408Y-64002135D01*
X134467306Y-63992004D01*
X134438439Y-63943181D01*
X134419357Y-63890990D01*
X134408084Y-63822285D01*
X134402645Y-63723918D01*
X134401062Y-63582744D01*
X134401035Y-63551092D01*
X134401107Y-63541019D01*
X134692989Y-63541019D01*
X134694687Y-63674256D01*
X134701372Y-63762674D01*
X134715425Y-63819785D01*
X134739229Y-63859102D01*
X134751379Y-63872241D01*
X134821236Y-63922172D01*
X134889059Y-63919895D01*
X134957635Y-63876584D01*
X134998535Y-63830346D01*
X135022758Y-63762857D01*
X135036361Y-63656433D01*
X135037294Y-63644020D01*
X135039616Y-63451147D01*
X135015350Y-63307900D01*
X134964824Y-63215160D01*
X134888368Y-63173807D01*
X134861076Y-63171552D01*
X134789411Y-63182893D01*
X134740390Y-63222184D01*
X134710418Y-63297326D01*
X134695899Y-63416222D01*
X134692989Y-63541019D01*
X134401107Y-63541019D01*
X134402122Y-63400659D01*
X134406688Y-63295549D01*
X134416688Y-63222714D01*
X134434079Y-63169108D01*
X134460816Y-63121681D01*
X134466724Y-63112864D01*
X134566032Y-62994007D01*
X134674242Y-62925008D01*
X134805981Y-62897619D01*
X134850717Y-62896281D01*
X135018221Y-62921015D01*
G36*
X135018221Y-62921015D02*
G01*
X135155061Y-62992968D01*
X135256051Y-63108766D01*
X135291925Y-63183213D01*
X135319839Y-63294992D01*
X135334129Y-63436227D01*
X135335484Y-63590371D01*
X135324595Y-63740879D01*
X135302153Y-63871205D01*
X135268850Y-63964803D01*
X135258615Y-63980922D01*
X135137382Y-64101249D01*
X134993387Y-64173317D01*
X134837139Y-64194408D01*
X134679148Y-64161802D01*
X134635180Y-64142253D01*
X134549556Y-64082012D01*
X134474408Y-64002135D01*
X134467306Y-63992004D01*
X134438439Y-63943181D01*
X134419357Y-63890990D01*
X134408084Y-63822285D01*
X134402645Y-63723918D01*
X134401062Y-63582744D01*
X134401035Y-63551092D01*
X134401107Y-63541019D01*
X134692989Y-63541019D01*
X134694687Y-63674256D01*
X134701372Y-63762674D01*
X134715425Y-63819785D01*
X134739229Y-63859102D01*
X134751379Y-63872241D01*
X134821236Y-63922172D01*
X134889059Y-63919895D01*
X134957635Y-63876584D01*
X134998535Y-63830346D01*
X135022758Y-63762857D01*
X135036361Y-63656433D01*
X135037294Y-63644020D01*
X135039616Y-63451147D01*
X135015350Y-63307900D01*
X134964824Y-63215160D01*
X134888368Y-63173807D01*
X134861076Y-63171552D01*
X134789411Y-63182893D01*
X134740390Y-63222184D01*
X134710418Y-63297326D01*
X134695899Y-63416222D01*
X134692989Y-63541019D01*
X134401107Y-63541019D01*
X134402122Y-63400659D01*
X134406688Y-63295549D01*
X134416688Y-63222714D01*
X134434079Y-63169108D01*
X134460816Y-63121681D01*
X134466724Y-63112864D01*
X134566032Y-62994007D01*
X134674242Y-62925008D01*
X134805981Y-62897619D01*
X134850717Y-62896281D01*
X135018221Y-62921015D01*
G37*
X147313439Y-63011540D02*
X147428950Y-63087034D01*
X147484664Y-63154617D01*
X147528804Y-63277255D01*
X147532309Y-63374298D01*
X147524368Y-63504056D01*
X147225115Y-63635039D01*
X147079611Y-63701958D01*
X146984537Y-63755790D01*
X146935101Y-63802416D01*
X146926511Y-63847720D01*
X146953972Y-63897582D01*
X146984253Y-63930632D01*
X147072363Y-63983633D01*
X147168196Y-63987347D01*
X147256212Y-63946041D01*
X147320869Y-63863983D01*
X147332433Y-63835008D01*
X147387825Y-63744509D01*
X147451553Y-63705940D01*
X147538966Y-63672946D01*
X147538966Y-63798034D01*
X147531238Y-63883156D01*
X147500966Y-63954938D01*
X147437518Y-64037356D01*
X147428088Y-64048066D01*
X147357513Y-64121391D01*
X147296847Y-64160742D01*
X147220950Y-64178845D01*
X147158030Y-64184774D01*
X147045487Y-64186251D01*
X146965370Y-64167535D01*
X146915390Y-64139747D01*
X146836838Y-64078641D01*
X146782463Y-64012554D01*
X146748052Y-63929441D01*
X146729388Y-63817254D01*
X146722256Y-63663946D01*
X146721687Y-63586136D01*
X146723622Y-63492853D01*
X146899899Y-63492853D01*
X146901944Y-63542896D01*
X146907039Y-63551092D01*
X146940666Y-63539958D01*
X147013030Y-63510493D01*
X147109747Y-63468601D01*
X147129973Y-63459597D01*
X147252203Y-63397442D01*
X147319547Y-63342815D01*
X147334348Y-63291649D01*
X147298947Y-63239876D01*
X147269711Y-63217000D01*
X147164216Y-63171250D01*
X147065476Y-63178808D01*
X146982812Y-63234651D01*
X146925548Y-63333753D01*
X146907188Y-63412414D01*
X146899899Y-63492853D01*
X146723622Y-63492853D01*
X146725459Y-63404351D01*
X146739359Y-63269853D01*
X146766894Y-63171916D01*
X146811572Y-63099811D01*
X146876901Y-63042813D01*
X146905383Y-63024393D01*
X147034763Y-62976422D01*
X147176412Y-62973403D01*
X147313439Y-63011540D01*
G36*
X147313439Y-63011540D02*
G01*
X147428950Y-63087034D01*
X147484664Y-63154617D01*
X147528804Y-63277255D01*
X147532309Y-63374298D01*
X147524368Y-63504056D01*
X147225115Y-63635039D01*
X147079611Y-63701958D01*
X146984537Y-63755790D01*
X146935101Y-63802416D01*
X146926511Y-63847720D01*
X146953972Y-63897582D01*
X146984253Y-63930632D01*
X147072363Y-63983633D01*
X147168196Y-63987347D01*
X147256212Y-63946041D01*
X147320869Y-63863983D01*
X147332433Y-63835008D01*
X147387825Y-63744509D01*
X147451553Y-63705940D01*
X147538966Y-63672946D01*
X147538966Y-63798034D01*
X147531238Y-63883156D01*
X147500966Y-63954938D01*
X147437518Y-64037356D01*
X147428088Y-64048066D01*
X147357513Y-64121391D01*
X147296847Y-64160742D01*
X147220950Y-64178845D01*
X147158030Y-64184774D01*
X147045487Y-64186251D01*
X146965370Y-64167535D01*
X146915390Y-64139747D01*
X146836838Y-64078641D01*
X146782463Y-64012554D01*
X146748052Y-63929441D01*
X146729388Y-63817254D01*
X146722256Y-63663946D01*
X146721687Y-63586136D01*
X146723622Y-63492853D01*
X146899899Y-63492853D01*
X146901944Y-63542896D01*
X146907039Y-63551092D01*
X146940666Y-63539958D01*
X147013030Y-63510493D01*
X147109747Y-63468601D01*
X147129973Y-63459597D01*
X147252203Y-63397442D01*
X147319547Y-63342815D01*
X147334348Y-63291649D01*
X147298947Y-63239876D01*
X147269711Y-63217000D01*
X147164216Y-63171250D01*
X147065476Y-63178808D01*
X146982812Y-63234651D01*
X146925548Y-63333753D01*
X146907188Y-63412414D01*
X146899899Y-63492853D01*
X146723622Y-63492853D01*
X146725459Y-63404351D01*
X146739359Y-63269853D01*
X146766894Y-63171916D01*
X146811572Y-63099811D01*
X146876901Y-63042813D01*
X146905383Y-63024393D01*
X147034763Y-62976422D01*
X147176412Y-62973403D01*
X147313439Y-63011540D01*
G37*
X143363914Y-63209455D02*
X143363543Y-63427661D01*
X143362108Y-63595519D01*
X143359002Y-63721070D01*
X143353622Y-63812355D01*
X143345362Y-63877415D01*
X143333616Y-63924291D01*
X143317781Y-63961024D01*
X143305790Y-63981991D01*
X143206490Y-64095694D01*
X143080588Y-64166965D01*
X142941291Y-64192538D01*
X142801805Y-64169150D01*
X142718743Y-64127119D01*
X142631545Y-64054411D01*
X142572117Y-63965612D01*
X142536261Y-63849320D01*
X142519781Y-63694135D01*
X142517447Y-63580287D01*
X142517761Y-63572106D01*
X142721724Y-63572106D01*
X142722970Y-63702657D01*
X142728678Y-63789080D01*
X142741804Y-63845618D01*
X142765306Y-63886514D01*
X142793386Y-63917362D01*
X142887688Y-63976905D01*
X142988940Y-63981992D01*
X143084636Y-63932279D01*
X143092084Y-63925543D01*
X143123874Y-63890502D01*
X143143808Y-63848811D01*
X143154600Y-63786762D01*
X143158965Y-63690644D01*
X143159655Y-63584379D01*
X143158159Y-63450880D01*
X143151964Y-63361822D01*
X143138514Y-63303293D01*
X143115251Y-63261382D01*
X143096175Y-63239123D01*
X143007563Y-63182985D01*
X142905508Y-63176235D01*
X142808095Y-63219114D01*
X142789296Y-63235032D01*
X142757293Y-63270382D01*
X142737318Y-63312502D01*
X142726593Y-63375251D01*
X142722339Y-63472487D01*
X142721724Y-63572106D01*
X142517761Y-63572106D01*
X142524504Y-63396947D01*
X142548472Y-63259195D01*
X142593548Y-63155632D01*
X142663928Y-63074856D01*
X142718743Y-63033455D01*
X142818376Y-62988728D01*
X142933855Y-62967967D01*
X143041199Y-62973525D01*
X143101264Y-62995943D01*
X143124835Y-63002323D01*
X143140477Y-62978535D01*
X143151395Y-62914788D01*
X143159655Y-62817687D01*
X143168699Y-62709541D01*
X143181261Y-62644475D01*
X143204119Y-62607268D01*
X143244051Y-62582699D01*
X143269138Y-62571819D01*
X143364023Y-62532072D01*
X143363914Y-63209455D01*
G36*
X143363914Y-63209455D02*
G01*
X143363543Y-63427661D01*
X143362108Y-63595519D01*
X143359002Y-63721070D01*
X143353622Y-63812355D01*
X143345362Y-63877415D01*
X143333616Y-63924291D01*
X143317781Y-63961024D01*
X143305790Y-63981991D01*
X143206490Y-64095694D01*
X143080588Y-64166965D01*
X142941291Y-64192538D01*
X142801805Y-64169150D01*
X142718743Y-64127119D01*
X142631545Y-64054411D01*
X142572117Y-63965612D01*
X142536261Y-63849320D01*
X142519781Y-63694135D01*
X142517447Y-63580287D01*
X142517761Y-63572106D01*
X142721724Y-63572106D01*
X142722970Y-63702657D01*
X142728678Y-63789080D01*
X142741804Y-63845618D01*
X142765306Y-63886514D01*
X142793386Y-63917362D01*
X142887688Y-63976905D01*
X142988940Y-63981992D01*
X143084636Y-63932279D01*
X143092084Y-63925543D01*
X143123874Y-63890502D01*
X143143808Y-63848811D01*
X143154600Y-63786762D01*
X143158965Y-63690644D01*
X143159655Y-63584379D01*
X143158159Y-63450880D01*
X143151964Y-63361822D01*
X143138514Y-63303293D01*
X143115251Y-63261382D01*
X143096175Y-63239123D01*
X143007563Y-63182985D01*
X142905508Y-63176235D01*
X142808095Y-63219114D01*
X142789296Y-63235032D01*
X142757293Y-63270382D01*
X142737318Y-63312502D01*
X142726593Y-63375251D01*
X142722339Y-63472487D01*
X142721724Y-63572106D01*
X142517761Y-63572106D01*
X142524504Y-63396947D01*
X142548472Y-63259195D01*
X142593548Y-63155632D01*
X142663928Y-63074856D01*
X142718743Y-63033455D01*
X142818376Y-62988728D01*
X142933855Y-62967967D01*
X143041199Y-62973525D01*
X143101264Y-62995943D01*
X143124835Y-63002323D01*
X143140477Y-62978535D01*
X143151395Y-62914788D01*
X143159655Y-62817687D01*
X143168699Y-62709541D01*
X143181261Y-62644475D01*
X143204119Y-62607268D01*
X143244051Y-62582699D01*
X143269138Y-62571819D01*
X143364023Y-62532072D01*
X143363914Y-63209455D01*
G37*
X137285552Y-62939676D02*
X137400658Y-63017111D01*
X137489611Y-63128949D01*
X137542749Y-63271265D01*
X137553497Y-63376015D01*
X137552276Y-63419726D01*
X137542056Y-63453194D01*
X137513961Y-63483179D01*
X137459116Y-63516440D01*
X137368645Y-63559738D01*
X137233672Y-63619833D01*
X137232989Y-63620134D01*
X137108751Y-63677037D01*
X137006873Y-63727565D01*
X136937767Y-63766280D01*
X136911846Y-63787740D01*
X136911839Y-63787913D01*
X136934685Y-63834644D01*
X136988109Y-63886154D01*
X137049442Y-63923261D01*
X137080515Y-63930632D01*
X137165289Y-63905138D01*
X137238293Y-63841291D01*
X137273913Y-63771094D01*
X137308180Y-63719343D01*
X137375303Y-63660409D01*
X137454208Y-63609496D01*
X137523821Y-63581809D01*
X137538377Y-63580287D01*
X137554763Y-63605321D01*
X137555750Y-63669311D01*
X137543708Y-63755593D01*
X137521007Y-63847501D01*
X137490014Y-63928369D01*
X137488448Y-63931509D01*
X137395181Y-64061734D01*
X137274304Y-64150311D01*
X137137027Y-64193786D01*
X136994560Y-64188706D01*
X136858112Y-64131616D01*
X136852045Y-64127602D01*
X136744710Y-64030326D01*
X136674132Y-63903409D01*
X136635074Y-63736526D01*
X136629832Y-63689639D01*
X136620548Y-63468329D01*
X136631678Y-63365124D01*
X136911839Y-63365124D01*
X136915479Y-63429503D01*
X136935389Y-63448291D01*
X136985026Y-63434235D01*
X137063267Y-63401009D01*
X137150726Y-63359359D01*
X137152899Y-63358256D01*
X137227030Y-63319265D01*
X137256781Y-63293244D01*
X137249445Y-63265965D01*
X137218553Y-63230121D01*
X137139960Y-63178251D01*
X137055323Y-63174439D01*
X136979403Y-63212189D01*
X136926965Y-63285001D01*
X136911839Y-63365124D01*
X136631678Y-63365124D01*
X136639644Y-63291261D01*
X136688634Y-63150829D01*
X136756836Y-63052447D01*
X136879935Y-62953030D01*
X137015528Y-62903711D01*
X137153955Y-62900568D01*
X137285552Y-62939676D01*
G36*
X137285552Y-62939676D02*
G01*
X137400658Y-63017111D01*
X137489611Y-63128949D01*
X137542749Y-63271265D01*
X137553497Y-63376015D01*
X137552276Y-63419726D01*
X137542056Y-63453194D01*
X137513961Y-63483179D01*
X137459116Y-63516440D01*
X137368645Y-63559738D01*
X137233672Y-63619833D01*
X137232989Y-63620134D01*
X137108751Y-63677037D01*
X137006873Y-63727565D01*
X136937767Y-63766280D01*
X136911846Y-63787740D01*
X136911839Y-63787913D01*
X136934685Y-63834644D01*
X136988109Y-63886154D01*
X137049442Y-63923261D01*
X137080515Y-63930632D01*
X137165289Y-63905138D01*
X137238293Y-63841291D01*
X137273913Y-63771094D01*
X137308180Y-63719343D01*
X137375303Y-63660409D01*
X137454208Y-63609496D01*
X137523821Y-63581809D01*
X137538377Y-63580287D01*
X137554763Y-63605321D01*
X137555750Y-63669311D01*
X137543708Y-63755593D01*
X137521007Y-63847501D01*
X137490014Y-63928369D01*
X137488448Y-63931509D01*
X137395181Y-64061734D01*
X137274304Y-64150311D01*
X137137027Y-64193786D01*
X136994560Y-64188706D01*
X136858112Y-64131616D01*
X136852045Y-64127602D01*
X136744710Y-64030326D01*
X136674132Y-63903409D01*
X136635074Y-63736526D01*
X136629832Y-63689639D01*
X136620548Y-63468329D01*
X136631678Y-63365124D01*
X136911839Y-63365124D01*
X136915479Y-63429503D01*
X136935389Y-63448291D01*
X136985026Y-63434235D01*
X137063267Y-63401009D01*
X137150726Y-63359359D01*
X137152899Y-63358256D01*
X137227030Y-63319265D01*
X137256781Y-63293244D01*
X137249445Y-63265965D01*
X137218553Y-63230121D01*
X137139960Y-63178251D01*
X137055323Y-63174439D01*
X136979403Y-63212189D01*
X136926965Y-63285001D01*
X136911839Y-63365124D01*
X136631678Y-63365124D01*
X136639644Y-63291261D01*
X136688634Y-63150829D01*
X136756836Y-63052447D01*
X136879935Y-62953030D01*
X137015528Y-62903711D01*
X137153955Y-62900568D01*
X137285552Y-62939676D01*
G37*
X141049944Y-62979360D02*
X141164343Y-63021842D01*
X141165652Y-63022658D01*
X141236403Y-63074730D01*
X141288636Y-63135584D01*
X141325371Y-63214887D01*
X141349634Y-63322309D01*
X141364445Y-63467517D01*
X141372829Y-63660179D01*
X141373564Y-63687628D01*
X141384120Y-64101521D01*
X141295291Y-64147456D01*
X141231018Y-64178498D01*
X141192210Y-64193206D01*
X141190415Y-64193391D01*
X141183700Y-64166250D01*
X141178365Y-64093041D01*
X141175083Y-63986081D01*
X141174368Y-63899469D01*
X141174351Y-63759162D01*
X141167937Y-63671051D01*
X141145580Y-63629025D01*
X141097732Y-63626975D01*
X141014849Y-63658790D01*
X140889713Y-63717272D01*
X140797697Y-63765845D01*
X140750371Y-63807986D01*
X140736458Y-63853916D01*
X140736437Y-63856189D01*
X140759395Y-63935311D01*
X140827370Y-63978055D01*
X140931398Y-63984246D01*
X141006330Y-63983172D01*
X141045839Y-64004753D01*
X141070478Y-64056591D01*
X141084659Y-64122632D01*
X141064223Y-64160104D01*
X141056528Y-64165467D01*
X140984083Y-64187006D01*
X140882633Y-64190055D01*
X140778157Y-64175778D01*
X140704125Y-64149688D01*
X140601772Y-64062785D01*
X140543591Y-63941816D01*
X140532069Y-63847308D01*
X140540862Y-63762062D01*
X140572680Y-63692476D01*
X140635684Y-63630672D01*
X140738031Y-63568772D01*
X140887882Y-63498897D01*
X140897012Y-63494948D01*
X141031997Y-63432588D01*
X141115294Y-63381446D01*
X141150997Y-63335488D01*
X141143203Y-63288683D01*
X141096007Y-63234998D01*
X141081894Y-63222644D01*
X140987359Y-63174741D01*
X140889406Y-63176758D01*
X140804097Y-63223724D01*
X140747496Y-63310669D01*
X140742237Y-63327734D01*
X140691023Y-63410504D01*
X140626037Y-63450372D01*
X140532069Y-63489882D01*
X140532069Y-63387658D01*
X140560653Y-63239072D01*
X140645495Y-63102784D01*
X140689645Y-63057191D01*
X140790005Y-62998674D01*
X140917635Y-62972184D01*
X141049944Y-62979360D01*
G36*
X141049944Y-62979360D02*
G01*
X141164343Y-63021842D01*
X141165652Y-63022658D01*
X141236403Y-63074730D01*
X141288636Y-63135584D01*
X141325371Y-63214887D01*
X141349634Y-63322309D01*
X141364445Y-63467517D01*
X141372829Y-63660179D01*
X141373564Y-63687628D01*
X141384120Y-64101521D01*
X141295291Y-64147456D01*
X141231018Y-64178498D01*
X141192210Y-64193206D01*
X141190415Y-64193391D01*
X141183700Y-64166250D01*
X141178365Y-64093041D01*
X141175083Y-63986081D01*
X141174368Y-63899469D01*
X141174351Y-63759162D01*
X141167937Y-63671051D01*
X141145580Y-63629025D01*
X141097732Y-63626975D01*
X141014849Y-63658790D01*
X140889713Y-63717272D01*
X140797697Y-63765845D01*
X140750371Y-63807986D01*
X140736458Y-63853916D01*
X140736437Y-63856189D01*
X140759395Y-63935311D01*
X140827370Y-63978055D01*
X140931398Y-63984246D01*
X141006330Y-63983172D01*
X141045839Y-64004753D01*
X141070478Y-64056591D01*
X141084659Y-64122632D01*
X141064223Y-64160104D01*
X141056528Y-64165467D01*
X140984083Y-64187006D01*
X140882633Y-64190055D01*
X140778157Y-64175778D01*
X140704125Y-64149688D01*
X140601772Y-64062785D01*
X140543591Y-63941816D01*
X140532069Y-63847308D01*
X140540862Y-63762062D01*
X140572680Y-63692476D01*
X140635684Y-63630672D01*
X140738031Y-63568772D01*
X140887882Y-63498897D01*
X140897012Y-63494948D01*
X141031997Y-63432588D01*
X141115294Y-63381446D01*
X141150997Y-63335488D01*
X141143203Y-63288683D01*
X141096007Y-63234998D01*
X141081894Y-63222644D01*
X140987359Y-63174741D01*
X140889406Y-63176758D01*
X140804097Y-63223724D01*
X140747496Y-63310669D01*
X140742237Y-63327734D01*
X140691023Y-63410504D01*
X140626037Y-63450372D01*
X140532069Y-63489882D01*
X140532069Y-63387658D01*
X140560653Y-63239072D01*
X140645495Y-63102784D01*
X140689645Y-63057191D01*
X140790005Y-62998674D01*
X140917635Y-62972184D01*
X141049944Y-62979360D01*
G37*
X136141900Y-62916903D02*
X136253450Y-62972522D01*
X136351908Y-63074931D01*
X136379023Y-63112864D01*
X136408562Y-63162500D01*
X136427728Y-63216412D01*
X136438693Y-63288364D01*
X136443629Y-63392122D01*
X136444713Y-63529101D01*
X136439818Y-63716815D01*
X136422804Y-63857758D01*
X136390177Y-63962908D01*
X136338442Y-64043243D01*
X136264104Y-64109741D01*
X136258642Y-64113678D01*
X136185380Y-64153953D01*
X136097160Y-64173880D01*
X135984962Y-64178793D01*
X135802567Y-64178793D01*
X135802491Y-64355857D01*
X135800793Y-64454470D01*
X135790450Y-64512314D01*
X135763422Y-64547006D01*
X135711668Y-64576164D01*
X135699239Y-64582121D01*
X135641077Y-64610039D01*
X135596044Y-64627672D01*
X135562559Y-64629194D01*
X135539038Y-64608781D01*
X135523900Y-64560607D01*
X135515563Y-64478846D01*
X135512444Y-64357672D01*
X135512960Y-64191260D01*
X135515529Y-63973785D01*
X135516332Y-63908736D01*
X135519222Y-63684502D01*
X135521812Y-63537821D01*
X135802414Y-63537821D01*
X135803991Y-63662326D01*
X135811000Y-63743787D01*
X135826858Y-63797515D01*
X135854981Y-63838823D01*
X135874075Y-63858971D01*
X135952135Y-63917921D01*
X136021247Y-63922720D01*
X136092560Y-63874038D01*
X136094368Y-63872241D01*
X136123383Y-63834618D01*
X136141033Y-63783484D01*
X136149936Y-63704738D01*
X136152709Y-63584276D01*
X136152759Y-63557588D01*
X136146058Y-63391583D01*
X136124248Y-63276505D01*
X136084765Y-63206254D01*
X136025044Y-63174729D01*
X135990528Y-63171552D01*
X135908611Y-63186460D01*
X135852421Y-63235548D01*
X135818598Y-63325362D01*
X135803780Y-63462445D01*
X135802414Y-63537821D01*
X135521812Y-63537821D01*
X135522287Y-63510952D01*
X135526247Y-63380382D01*
X135531826Y-63285087D01*
X135539746Y-63217364D01*
X135550731Y-63169507D01*
X135565501Y-63133813D01*
X135584782Y-63102578D01*
X135593049Y-63090824D01*
X135702712Y-62979797D01*
X135841365Y-62916847D01*
X136001754Y-62899297D01*
X136141900Y-62916903D01*
G36*
X136141900Y-62916903D02*
G01*
X136253450Y-62972522D01*
X136351908Y-63074931D01*
X136379023Y-63112864D01*
X136408562Y-63162500D01*
X136427728Y-63216412D01*
X136438693Y-63288364D01*
X136443629Y-63392122D01*
X136444713Y-63529101D01*
X136439818Y-63716815D01*
X136422804Y-63857758D01*
X136390177Y-63962908D01*
X136338442Y-64043243D01*
X136264104Y-64109741D01*
X136258642Y-64113678D01*
X136185380Y-64153953D01*
X136097160Y-64173880D01*
X135984962Y-64178793D01*
X135802567Y-64178793D01*
X135802491Y-64355857D01*
X135800793Y-64454470D01*
X135790450Y-64512314D01*
X135763422Y-64547006D01*
X135711668Y-64576164D01*
X135699239Y-64582121D01*
X135641077Y-64610039D01*
X135596044Y-64627672D01*
X135562559Y-64629194D01*
X135539038Y-64608781D01*
X135523900Y-64560607D01*
X135515563Y-64478846D01*
X135512444Y-64357672D01*
X135512960Y-64191260D01*
X135515529Y-63973785D01*
X135516332Y-63908736D01*
X135519222Y-63684502D01*
X135521812Y-63537821D01*
X135802414Y-63537821D01*
X135803991Y-63662326D01*
X135811000Y-63743787D01*
X135826858Y-63797515D01*
X135854981Y-63838823D01*
X135874075Y-63858971D01*
X135952135Y-63917921D01*
X136021247Y-63922720D01*
X136092560Y-63874038D01*
X136094368Y-63872241D01*
X136123383Y-63834618D01*
X136141033Y-63783484D01*
X136149936Y-63704738D01*
X136152709Y-63584276D01*
X136152759Y-63557588D01*
X136146058Y-63391583D01*
X136124248Y-63276505D01*
X136084765Y-63206254D01*
X136025044Y-63174729D01*
X135990528Y-63171552D01*
X135908611Y-63186460D01*
X135852421Y-63235548D01*
X135818598Y-63325362D01*
X135803780Y-63462445D01*
X135802414Y-63537821D01*
X135521812Y-63537821D01*
X135522287Y-63510952D01*
X135526247Y-63380382D01*
X135531826Y-63285087D01*
X135539746Y-63217364D01*
X135550731Y-63169507D01*
X135565501Y-63133813D01*
X135584782Y-63102578D01*
X135593049Y-63090824D01*
X135702712Y-62979797D01*
X135841365Y-62916847D01*
X136001754Y-62899297D01*
X136141900Y-62916903D01*
G37*
X145284406Y-62990156D02*
X145368469Y-63028393D01*
X145434450Y-63074726D01*
X145482794Y-63126532D01*
X145516172Y-63193363D01*
X145537253Y-63284769D01*
X145548707Y-63410301D01*
X145553203Y-63579508D01*
X145553678Y-63690933D01*
X145553678Y-64125627D01*
X145479316Y-64159509D01*
X145420746Y-64184272D01*
X145391730Y-64193391D01*
X145386179Y-64166257D01*
X145381775Y-64093094D01*
X145379078Y-63986263D01*
X145378506Y-63901437D01*
X145376046Y-63778887D01*
X145369412Y-63681668D01*
X145359726Y-63622134D01*
X145352032Y-63609483D01*
X145300311Y-63622402D01*
X145219117Y-63655539D01*
X145125102Y-63700461D01*
X145034917Y-63748735D01*
X144965215Y-63791928D01*
X144932648Y-63821608D01*
X144932519Y-63821929D01*
X144935320Y-63876857D01*
X144960439Y-63929292D01*
X145004541Y-63971881D01*
X145068909Y-63986126D01*
X145123921Y-63984466D01*
X145201835Y-63983245D01*
X145242732Y-64001498D01*
X145267295Y-64049726D01*
X145270392Y-64058820D01*
X145281040Y-64127598D01*
X145252565Y-64169360D01*
X145178344Y-64189263D01*
X145098168Y-64192944D01*
X144953890Y-64165658D01*
X144879203Y-64126690D01*
X144786963Y-64035148D01*
X144738043Y-63922782D01*
X144733654Y-63804051D01*
X144775001Y-63693411D01*
X144837197Y-63624080D01*
X144899294Y-63585265D01*
X144996895Y-63536125D01*
X145110632Y-63486292D01*
X145129590Y-63478677D01*
X145254521Y-63423545D01*
X145326539Y-63374954D01*
X145349700Y-63326647D01*
X145328064Y-63272370D01*
X145290920Y-63229943D01*
X145203127Y-63177702D01*
X145106530Y-63173784D01*
X145017944Y-63214041D01*
X144954186Y-63294326D01*
X144945817Y-63315040D01*
X144897096Y-63391225D01*
X144825965Y-63447785D01*
X144736207Y-63494201D01*
X144736207Y-63362584D01*
X144741490Y-63282168D01*
X144764142Y-63218786D01*
X144814367Y-63151163D01*
X144862582Y-63099076D01*
X144937554Y-63025322D01*
X144995806Y-62985702D01*
X145058372Y-62969810D01*
X145129193Y-62967184D01*
X145284406Y-62990156D01*
G36*
X145284406Y-62990156D02*
G01*
X145368469Y-63028393D01*
X145434450Y-63074726D01*
X145482794Y-63126532D01*
X145516172Y-63193363D01*
X145537253Y-63284769D01*
X145548707Y-63410301D01*
X145553203Y-63579508D01*
X145553678Y-63690933D01*
X145553678Y-64125627D01*
X145479316Y-64159509D01*
X145420746Y-64184272D01*
X145391730Y-64193391D01*
X145386179Y-64166257D01*
X145381775Y-64093094D01*
X145379078Y-63986263D01*
X145378506Y-63901437D01*
X145376046Y-63778887D01*
X145369412Y-63681668D01*
X145359726Y-63622134D01*
X145352032Y-63609483D01*
X145300311Y-63622402D01*
X145219117Y-63655539D01*
X145125102Y-63700461D01*
X145034917Y-63748735D01*
X144965215Y-63791928D01*
X144932648Y-63821608D01*
X144932519Y-63821929D01*
X144935320Y-63876857D01*
X144960439Y-63929292D01*
X145004541Y-63971881D01*
X145068909Y-63986126D01*
X145123921Y-63984466D01*
X145201835Y-63983245D01*
X145242732Y-64001498D01*
X145267295Y-64049726D01*
X145270392Y-64058820D01*
X145281040Y-64127598D01*
X145252565Y-64169360D01*
X145178344Y-64189263D01*
X145098168Y-64192944D01*
X144953890Y-64165658D01*
X144879203Y-64126690D01*
X144786963Y-64035148D01*
X144738043Y-63922782D01*
X144733654Y-63804051D01*
X144775001Y-63693411D01*
X144837197Y-63624080D01*
X144899294Y-63585265D01*
X144996895Y-63536125D01*
X145110632Y-63486292D01*
X145129590Y-63478677D01*
X145254521Y-63423545D01*
X145326539Y-63374954D01*
X145349700Y-63326647D01*
X145328064Y-63272370D01*
X145290920Y-63229943D01*
X145203127Y-63177702D01*
X145106530Y-63173784D01*
X145017944Y-63214041D01*
X144954186Y-63294326D01*
X144945817Y-63315040D01*
X144897096Y-63391225D01*
X144825965Y-63447785D01*
X144736207Y-63494201D01*
X144736207Y-63362584D01*
X144741490Y-63282168D01*
X144764142Y-63218786D01*
X144814367Y-63151163D01*
X144862582Y-63099076D01*
X144937554Y-63025322D01*
X144995806Y-62985702D01*
X145058372Y-62969810D01*
X145129193Y-62967184D01*
X145284406Y-62990156D01*
G37*
X141179014Y-53507998D02*
X141337006Y-53508863D01*
X141451347Y-53511205D01*
X141529407Y-53515762D01*
X141578554Y-53523270D01*
X141606159Y-53534466D01*
X141619592Y-53550088D01*
X141626221Y-53570873D01*
X141626865Y-53573563D01*
X141636935Y-53622113D01*
X141655575Y-53717905D01*
X141680845Y-53850743D01*
X141710807Y-54010431D01*
X141743522Y-54186774D01*
X141744664Y-54192967D01*
X141777433Y-54365782D01*
X141808093Y-54518469D01*
X141834664Y-54641871D01*
X141855167Y-54726831D01*
X141867626Y-54764190D01*
X141868220Y-54764852D01*
X141904919Y-54783095D01*
X141980586Y-54813497D01*
X142078878Y-54849493D01*
X142079425Y-54849685D01*
X142203233Y-54896222D01*
X142349196Y-54955504D01*
X142486781Y-55015109D01*
X142493293Y-55018056D01*
X142717390Y-55119765D01*
X143213619Y-54780897D01*
X143365846Y-54677592D01*
X143503741Y-54585237D01*
X143619315Y-54509084D01*
X143704579Y-54454385D01*
X143751544Y-54426393D01*
X143756004Y-54424317D01*
X143790134Y-54433560D01*
X143853881Y-54478156D01*
X143949731Y-54560209D01*
X144080169Y-54681821D01*
X144213328Y-54811205D01*
X144341694Y-54938702D01*
X144456581Y-55055046D01*
X144551073Y-55153052D01*
X144618253Y-55225536D01*
X144651206Y-55265313D01*
X144652432Y-55267361D01*
X144656074Y-55294656D01*
X144642350Y-55339234D01*
X144607869Y-55407112D01*
X144549239Y-55504311D01*
X144463070Y-55636851D01*
X144348200Y-55807476D01*
X144246254Y-55957655D01*
X144155123Y-56092350D01*
X144080073Y-56203740D01*
X144026369Y-56284005D01*
X143999280Y-56325325D01*
X143997574Y-56328130D01*
X144000882Y-56367721D01*
X144025953Y-56444669D01*
X144067798Y-56544432D01*
X144082712Y-56576291D01*
X144147786Y-56718226D01*
X144217212Y-56879273D01*
X144273609Y-57018621D01*
X144314247Y-57122044D01*
X144346526Y-57200642D01*
X144365178Y-57241720D01*
X144367497Y-57244885D01*
X144401803Y-57250128D01*
X144482669Y-57264494D01*
X144599343Y-57285937D01*
X144741075Y-57312413D01*
X144897110Y-57341877D01*
X145056698Y-57372283D01*
X145209085Y-57401588D01*
X145343521Y-57427745D01*
X145449252Y-57448710D01*
X145515526Y-57462439D01*
X145531782Y-57466320D01*
X145548573Y-57475900D01*
X145561249Y-57497536D01*
X145570378Y-57538531D01*
X145576531Y-57606189D01*
X145580280Y-57707812D01*
X145582192Y-57850703D01*
X145582840Y-58042165D01*
X145582874Y-58120645D01*
X145582874Y-58758906D01*
X145429598Y-58789160D01*
X145344322Y-58805564D01*
X145217070Y-58829509D01*
X145063315Y-58858107D01*
X144898534Y-58888467D01*
X144852989Y-58896806D01*
X144700932Y-58926370D01*
X144568468Y-58955442D01*
X144466714Y-58981329D01*
X144406788Y-59001337D01*
X144396805Y-59007301D01*
X144372293Y-59049534D01*
X144337148Y-59131370D01*
X144298173Y-59236683D01*
X144290442Y-59259368D01*
X144239360Y-59400018D01*
X144175954Y-59558714D01*
X144113904Y-59701225D01*
X144113598Y-59701886D01*
X144010267Y-59925440D01*
X144689961Y-60925232D01*
X144253621Y-61362300D01*
X144121649Y-61492381D01*
X144001279Y-61607048D01*
X143899273Y-61700181D01*
X143822391Y-61765658D01*
X143777393Y-61797357D01*
X143770938Y-61799368D01*
X143733040Y-61783529D01*
X143655708Y-61739496D01*
X143547389Y-61672490D01*
X143416532Y-61587734D01*
X143275052Y-61492816D01*
X143131461Y-61395998D01*
X143003435Y-61311751D01*
X142899105Y-61245258D01*
X142826600Y-61201702D01*
X142794158Y-61186264D01*
X142754576Y-61199328D01*
X142679519Y-61233750D01*
X142584468Y-61282380D01*
X142574392Y-61287785D01*
X142446391Y-61351980D01*
X142358618Y-61383463D01*
X142304028Y-61383798D01*
X142275575Y-61354548D01*
X142275410Y-61354138D01*
X142261188Y-61319498D01*
X142227269Y-61237269D01*
X142176284Y-61113814D01*
X142110862Y-60955498D01*
X142033634Y-60768686D01*
X141947229Y-60559742D01*
X141863551Y-60357446D01*
X141771588Y-60134200D01*
X141687150Y-59927392D01*
X141612769Y-59743362D01*
X141550974Y-59588451D01*
X141504297Y-59468996D01*
X141475268Y-59391339D01*
X141466322Y-59362356D01*
X141488756Y-59329110D01*
X141547439Y-59276123D01*
X141625689Y-59217704D01*
X141848534Y-59032952D01*
X142022718Y-58821182D01*
X142146154Y-58586856D01*
X142216754Y-58334434D01*
X142232431Y-58068377D01*
X142221036Y-57945575D01*
X142158950Y-57690793D01*
X142052023Y-57465801D01*
X141906889Y-57272817D01*
X141730178Y-57114061D01*
X141528522Y-56991750D01*
X141308554Y-56908105D01*
X141076906Y-56865344D01*
X140840209Y-56865687D01*
X140605095Y-56911352D01*
X140378196Y-57004559D01*
X140166144Y-57147527D01*
X140077636Y-57228383D01*
X139907889Y-57436007D01*
X139789699Y-57662895D01*
X139722278Y-57902433D01*
X139704840Y-58148007D01*
X139736598Y-58393003D01*
X139816765Y-58630808D01*
X139944555Y-58854807D01*
X140119180Y-59058387D01*
X140314312Y-59217704D01*
X140395591Y-59278602D01*
X140453009Y-59331015D01*
X140473678Y-59362406D01*
X140462856Y-59396639D01*
X140432077Y-59478419D01*
X140383874Y-59601407D01*
X140320778Y-59759263D01*
X140245322Y-59945649D01*
X140160038Y-60154226D01*
X140076219Y-60357496D01*
X139983745Y-60580933D01*
X139898089Y-60787984D01*
X139821882Y-60972286D01*
X139757753Y-61127475D01*
X139708332Y-61247188D01*
X139676248Y-61325061D01*
X139664359Y-61354138D01*
X139636274Y-61383677D01*
X139581949Y-61383591D01*
X139494395Y-61352326D01*
X139366619Y-61288329D01*
X139365608Y-61287785D01*
X139269402Y-61238121D01*
X139191631Y-61201945D01*
X139147777Y-61186408D01*
X139145842Y-61186264D01*
X139112829Y-61202024D01*
X139039946Y-61245850D01*
X138935322Y-61312557D01*
X138807090Y-61396964D01*
X138664948Y-61492816D01*
X138520233Y-61589867D01*
X138389804Y-61674270D01*
X138282110Y-61740801D01*
X138205598Y-61784238D01*
X138169062Y-61799368D01*
X138135418Y-61779482D01*
X138067776Y-61723903D01*
X137972893Y-61638754D01*
X137857530Y-61530153D01*
X137728445Y-61404221D01*
X137686229Y-61362149D01*
X137249739Y-60924931D01*
X137581977Y-60437340D01*
X137682946Y-60287605D01*
X137771562Y-60153220D01*
X137842854Y-60041969D01*
X137891850Y-59961639D01*
X137913578Y-59920014D01*
X137914215Y-59917053D01*
X137902760Y-59877818D01*
X137871949Y-59798895D01*
X137827116Y-59693509D01*
X137795647Y-59622954D01*
X137736808Y-59487876D01*
X137681396Y-59351409D01*
X137638436Y-59236103D01*
X137626766Y-59200977D01*
X137593611Y-59107174D01*
X137561201Y-59034694D01*
X137543399Y-59007301D01*
X137504114Y-58990536D01*
X137418374Y-58966770D01*
X137297303Y-58938697D01*
X137152027Y-58909009D01*
X137087012Y-58896806D01*
X136921913Y-58866468D01*
X136763552Y-58837093D01*
X136627404Y-58811569D01*
X136528943Y-58792785D01*
X136510402Y-58789160D01*
X136357127Y-58758906D01*
X136357127Y-58120645D01*
X136357471Y-57910770D01*
X136358884Y-57751980D01*
X136361936Y-57636973D01*
X136367197Y-57558446D01*
X136375237Y-57509096D01*
X136386627Y-57481619D01*
X136401937Y-57468713D01*
X136408218Y-57466320D01*
X136446104Y-57457833D01*
X136529805Y-57440900D01*
X136648567Y-57417566D01*
X136791639Y-57389875D01*
X136948268Y-57359873D01*
X137107703Y-57329604D01*
X137259191Y-57301115D01*
X137391981Y-57276449D01*
X137495319Y-57257651D01*
X137558455Y-57246767D01*
X137572503Y-57244885D01*
X137585230Y-57219704D01*
X137613400Y-57152622D01*
X137651748Y-57056333D01*
X137666391Y-57018621D01*
X137725452Y-56872921D01*
X137795000Y-56711951D01*
X137857288Y-56576291D01*
X137903121Y-56472561D01*
X137933613Y-56387326D01*
X137943792Y-56335126D01*
X137942169Y-56328130D01*
X137920657Y-56295102D01*
X137871535Y-56221643D01*
X137800077Y-56115577D01*
X137711555Y-55984726D01*
X137611241Y-55836912D01*
X137591406Y-55807734D01*
X137475012Y-55634863D01*
X137389452Y-55503226D01*
X137331316Y-55406761D01*
X137297192Y-55339408D01*
X137283669Y-55295106D01*
X137287336Y-55267794D01*
X137287430Y-55267620D01*
X137316293Y-55231746D01*
X137380133Y-55162391D01*
X137472031Y-55066745D01*
X137585067Y-54951999D01*
X137712321Y-54825341D01*
X137726672Y-54811205D01*
X137887043Y-54655903D01*
X138010805Y-54541870D01*
X138100445Y-54467002D01*
X138158448Y-54429196D01*
X138183996Y-54424317D01*
X138221282Y-54445603D01*
X138298657Y-54494773D01*
X138408133Y-54566575D01*
X138541720Y-54655755D01*
X138691430Y-54757063D01*
X138726382Y-54780897D01*
X139222610Y-55119765D01*
X139446707Y-55018056D01*
X139582989Y-54958783D01*
X139729276Y-54899170D01*
X139855035Y-54851640D01*
X139860575Y-54849685D01*
X139958943Y-54813677D01*
X140034771Y-54783229D01*
X140071718Y-54764905D01*
X140071780Y-54764852D01*
X140083504Y-54731729D01*
X140103432Y-54650267D01*
X140129587Y-54529625D01*
X140159990Y-54378959D01*
X140192663Y-54207428D01*
X140195336Y-54192967D01*
X140228110Y-54016235D01*
X140258198Y-53855810D01*
X140283661Y-53721888D01*
X140302559Y-53624663D01*
X140312953Y-53574332D01*
X140313135Y-53573563D01*
X140319461Y-53552153D01*
X140331761Y-53535988D01*
X140357406Y-53524331D01*
X140403765Y-53516445D01*
X140478208Y-53511593D01*
X140588105Y-53509039D01*
X140740825Y-53508045D01*
X140943738Y-53507874D01*
X140970000Y-53507874D01*
X141179014Y-53507998D01*
G36*
X141179014Y-53507998D02*
G01*
X141337006Y-53508863D01*
X141451347Y-53511205D01*
X141529407Y-53515762D01*
X141578554Y-53523270D01*
X141606159Y-53534466D01*
X141619592Y-53550088D01*
X141626221Y-53570873D01*
X141626865Y-53573563D01*
X141636935Y-53622113D01*
X141655575Y-53717905D01*
X141680845Y-53850743D01*
X141710807Y-54010431D01*
X141743522Y-54186774D01*
X141744664Y-54192967D01*
X141777433Y-54365782D01*
X141808093Y-54518469D01*
X141834664Y-54641871D01*
X141855167Y-54726831D01*
X141867626Y-54764190D01*
X141868220Y-54764852D01*
X141904919Y-54783095D01*
X141980586Y-54813497D01*
X142078878Y-54849493D01*
X142079425Y-54849685D01*
X142203233Y-54896222D01*
X142349196Y-54955504D01*
X142486781Y-55015109D01*
X142493293Y-55018056D01*
X142717390Y-55119765D01*
X143213619Y-54780897D01*
X143365846Y-54677592D01*
X143503741Y-54585237D01*
X143619315Y-54509084D01*
X143704579Y-54454385D01*
X143751544Y-54426393D01*
X143756004Y-54424317D01*
X143790134Y-54433560D01*
X143853881Y-54478156D01*
X143949731Y-54560209D01*
X144080169Y-54681821D01*
X144213328Y-54811205D01*
X144341694Y-54938702D01*
X144456581Y-55055046D01*
X144551073Y-55153052D01*
X144618253Y-55225536D01*
X144651206Y-55265313D01*
X144652432Y-55267361D01*
X144656074Y-55294656D01*
X144642350Y-55339234D01*
X144607869Y-55407112D01*
X144549239Y-55504311D01*
X144463070Y-55636851D01*
X144348200Y-55807476D01*
X144246254Y-55957655D01*
X144155123Y-56092350D01*
X144080073Y-56203740D01*
X144026369Y-56284005D01*
X143999280Y-56325325D01*
X143997574Y-56328130D01*
X144000882Y-56367721D01*
X144025953Y-56444669D01*
X144067798Y-56544432D01*
X144082712Y-56576291D01*
X144147786Y-56718226D01*
X144217212Y-56879273D01*
X144273609Y-57018621D01*
X144314247Y-57122044D01*
X144346526Y-57200642D01*
X144365178Y-57241720D01*
X144367497Y-57244885D01*
X144401803Y-57250128D01*
X144482669Y-57264494D01*
X144599343Y-57285937D01*
X144741075Y-57312413D01*
X144897110Y-57341877D01*
X145056698Y-57372283D01*
X145209085Y-57401588D01*
X145343521Y-57427745D01*
X145449252Y-57448710D01*
X145515526Y-57462439D01*
X145531782Y-57466320D01*
X145548573Y-57475900D01*
X145561249Y-57497536D01*
X145570378Y-57538531D01*
X145576531Y-57606189D01*
X145580280Y-57707812D01*
X145582192Y-57850703D01*
X145582840Y-58042165D01*
X145582874Y-58120645D01*
X145582874Y-58758906D01*
X145429598Y-58789160D01*
X145344322Y-58805564D01*
X145217070Y-58829509D01*
X145063315Y-58858107D01*
X144898534Y-58888467D01*
X144852989Y-58896806D01*
X144700932Y-58926370D01*
X144568468Y-58955442D01*
X144466714Y-58981329D01*
X144406788Y-59001337D01*
X144396805Y-59007301D01*
X144372293Y-59049534D01*
X144337148Y-59131370D01*
X144298173Y-59236683D01*
X144290442Y-59259368D01*
X144239360Y-59400018D01*
X144175954Y-59558714D01*
X144113904Y-59701225D01*
X144113598Y-59701886D01*
X144010267Y-59925440D01*
X144689961Y-60925232D01*
X144253621Y-61362300D01*
X144121649Y-61492381D01*
X144001279Y-61607048D01*
X143899273Y-61700181D01*
X143822391Y-61765658D01*
X143777393Y-61797357D01*
X143770938Y-61799368D01*
X143733040Y-61783529D01*
X143655708Y-61739496D01*
X143547389Y-61672490D01*
X143416532Y-61587734D01*
X143275052Y-61492816D01*
X143131461Y-61395998D01*
X143003435Y-61311751D01*
X142899105Y-61245258D01*
X142826600Y-61201702D01*
X142794158Y-61186264D01*
X142754576Y-61199328D01*
X142679519Y-61233750D01*
X142584468Y-61282380D01*
X142574392Y-61287785D01*
X142446391Y-61351980D01*
X142358618Y-61383463D01*
X142304028Y-61383798D01*
X142275575Y-61354548D01*
X142275410Y-61354138D01*
X142261188Y-61319498D01*
X142227269Y-61237269D01*
X142176284Y-61113814D01*
X142110862Y-60955498D01*
X142033634Y-60768686D01*
X141947229Y-60559742D01*
X141863551Y-60357446D01*
X141771588Y-60134200D01*
X141687150Y-59927392D01*
X141612769Y-59743362D01*
X141550974Y-59588451D01*
X141504297Y-59468996D01*
X141475268Y-59391339D01*
X141466322Y-59362356D01*
X141488756Y-59329110D01*
X141547439Y-59276123D01*
X141625689Y-59217704D01*
X141848534Y-59032952D01*
X142022718Y-58821182D01*
X142146154Y-58586856D01*
X142216754Y-58334434D01*
X142232431Y-58068377D01*
X142221036Y-57945575D01*
X142158950Y-57690793D01*
X142052023Y-57465801D01*
X141906889Y-57272817D01*
X141730178Y-57114061D01*
X141528522Y-56991750D01*
X141308554Y-56908105D01*
X141076906Y-56865344D01*
X140840209Y-56865687D01*
X140605095Y-56911352D01*
X140378196Y-57004559D01*
X140166144Y-57147527D01*
X140077636Y-57228383D01*
X139907889Y-57436007D01*
X139789699Y-57662895D01*
X139722278Y-57902433D01*
X139704840Y-58148007D01*
X139736598Y-58393003D01*
X139816765Y-58630808D01*
X139944555Y-58854807D01*
X140119180Y-59058387D01*
X140314312Y-59217704D01*
X140395591Y-59278602D01*
X140453009Y-59331015D01*
X140473678Y-59362406D01*
X140462856Y-59396639D01*
X140432077Y-59478419D01*
X140383874Y-59601407D01*
X140320778Y-59759263D01*
X140245322Y-59945649D01*
X140160038Y-60154226D01*
X140076219Y-60357496D01*
X139983745Y-60580933D01*
X139898089Y-60787984D01*
X139821882Y-60972286D01*
X139757753Y-61127475D01*
X139708332Y-61247188D01*
X139676248Y-61325061D01*
X139664359Y-61354138D01*
X139636274Y-61383677D01*
X139581949Y-61383591D01*
X139494395Y-61352326D01*
X139366619Y-61288329D01*
X139365608Y-61287785D01*
X139269402Y-61238121D01*
X139191631Y-61201945D01*
X139147777Y-61186408D01*
X139145842Y-61186264D01*
X139112829Y-61202024D01*
X139039946Y-61245850D01*
X138935322Y-61312557D01*
X138807090Y-61396964D01*
X138664948Y-61492816D01*
X138520233Y-61589867D01*
X138389804Y-61674270D01*
X138282110Y-61740801D01*
X138205598Y-61784238D01*
X138169062Y-61799368D01*
X138135418Y-61779482D01*
X138067776Y-61723903D01*
X137972893Y-61638754D01*
X137857530Y-61530153D01*
X137728445Y-61404221D01*
X137686229Y-61362149D01*
X137249739Y-60924931D01*
X137581977Y-60437340D01*
X137682946Y-60287605D01*
X137771562Y-60153220D01*
X137842854Y-60041969D01*
X137891850Y-59961639D01*
X137913578Y-59920014D01*
X137914215Y-59917053D01*
X137902760Y-59877818D01*
X137871949Y-59798895D01*
X137827116Y-59693509D01*
X137795647Y-59622954D01*
X137736808Y-59487876D01*
X137681396Y-59351409D01*
X137638436Y-59236103D01*
X137626766Y-59200977D01*
X137593611Y-59107174D01*
X137561201Y-59034694D01*
X137543399Y-59007301D01*
X137504114Y-58990536D01*
X137418374Y-58966770D01*
X137297303Y-58938697D01*
X137152027Y-58909009D01*
X137087012Y-58896806D01*
X136921913Y-58866468D01*
X136763552Y-58837093D01*
X136627404Y-58811569D01*
X136528943Y-58792785D01*
X136510402Y-58789160D01*
X136357127Y-58758906D01*
X136357127Y-58120645D01*
X136357471Y-57910770D01*
X136358884Y-57751980D01*
X136361936Y-57636973D01*
X136367197Y-57558446D01*
X136375237Y-57509096D01*
X136386627Y-57481619D01*
X136401937Y-57468713D01*
X136408218Y-57466320D01*
X136446104Y-57457833D01*
X136529805Y-57440900D01*
X136648567Y-57417566D01*
X136791639Y-57389875D01*
X136948268Y-57359873D01*
X137107703Y-57329604D01*
X137259191Y-57301115D01*
X137391981Y-57276449D01*
X137495319Y-57257651D01*
X137558455Y-57246767D01*
X137572503Y-57244885D01*
X137585230Y-57219704D01*
X137613400Y-57152622D01*
X137651748Y-57056333D01*
X137666391Y-57018621D01*
X137725452Y-56872921D01*
X137795000Y-56711951D01*
X137857288Y-56576291D01*
X137903121Y-56472561D01*
X137933613Y-56387326D01*
X137943792Y-56335126D01*
X137942169Y-56328130D01*
X137920657Y-56295102D01*
X137871535Y-56221643D01*
X137800077Y-56115577D01*
X137711555Y-55984726D01*
X137611241Y-55836912D01*
X137591406Y-55807734D01*
X137475012Y-55634863D01*
X137389452Y-55503226D01*
X137331316Y-55406761D01*
X137297192Y-55339408D01*
X137283669Y-55295106D01*
X137287336Y-55267794D01*
X137287430Y-55267620D01*
X137316293Y-55231746D01*
X137380133Y-55162391D01*
X137472031Y-55066745D01*
X137585067Y-54951999D01*
X137712321Y-54825341D01*
X137726672Y-54811205D01*
X137887043Y-54655903D01*
X138010805Y-54541870D01*
X138100445Y-54467002D01*
X138158448Y-54429196D01*
X138183996Y-54424317D01*
X138221282Y-54445603D01*
X138298657Y-54494773D01*
X138408133Y-54566575D01*
X138541720Y-54655755D01*
X138691430Y-54757063D01*
X138726382Y-54780897D01*
X139222610Y-55119765D01*
X139446707Y-55018056D01*
X139582989Y-54958783D01*
X139729276Y-54899170D01*
X139855035Y-54851640D01*
X139860575Y-54849685D01*
X139958943Y-54813677D01*
X140034771Y-54783229D01*
X140071718Y-54764905D01*
X140071780Y-54764852D01*
X140083504Y-54731729D01*
X140103432Y-54650267D01*
X140129587Y-54529625D01*
X140159990Y-54378959D01*
X140192663Y-54207428D01*
X140195336Y-54192967D01*
X140228110Y-54016235D01*
X140258198Y-53855810D01*
X140283661Y-53721888D01*
X140302559Y-53624663D01*
X140312953Y-53574332D01*
X140313135Y-53573563D01*
X140319461Y-53552153D01*
X140331761Y-53535988D01*
X140357406Y-53524331D01*
X140403765Y-53516445D01*
X140478208Y-53511593D01*
X140588105Y-53509039D01*
X140740825Y-53508045D01*
X140943738Y-53507874D01*
X140970000Y-53507874D01*
X141179014Y-53507998D01*
G37*
D10*
X160809000Y-67283064D02*
X160809000Y-66828936D01*
X162279000Y-67283064D02*
X162279000Y-66828936D01*
X108704748Y-60020000D02*
X109227252Y-60020000D01*
X108704748Y-61490000D02*
X109227252Y-61490000D01*
X151157000Y-57123064D02*
X151157000Y-56668936D01*
X152627000Y-57123064D02*
X152627000Y-56668936D01*
X85625000Y-69837252D02*
X85625000Y-69314748D01*
X87095000Y-69837252D02*
X87095000Y-69314748D01*
X94593500Y-79172064D02*
X94593500Y-78717936D01*
X96063500Y-79172064D02*
X96063500Y-78717936D01*
X114412748Y-84306000D02*
X114935252Y-84306000D01*
X114412748Y-85776000D02*
X114935252Y-85776000D01*
X119661000Y-55144936D02*
X119661000Y-55599064D01*
X121131000Y-55144936D02*
X121131000Y-55599064D01*
X99392500Y-77385000D02*
X98742500Y-77385000D01*
X99392500Y-77385000D02*
X100042500Y-77385000D01*
X99392500Y-80505000D02*
X98742500Y-80505000D01*
X99392500Y-80505000D02*
X100042500Y-80505000D01*
X98230000Y-77435000D02*
X97990000Y-77105000D01*
X98470000Y-77105000D01*
X98230000Y-77435000D01*
G36*
X98230000Y-77435000D02*
G01*
X97990000Y-77105000D01*
X98470000Y-77105000D01*
X98230000Y-77435000D01*
G37*
X103408000Y-76843000D02*
X103408000Y-82063000D01*
X103408000Y-82063000D02*
X116128000Y-82063000D01*
X116128000Y-76843000D02*
X103408000Y-76843000D01*
X114908064Y-88116000D02*
X114453936Y-88116000D01*
X114908064Y-89586000D02*
X114453936Y-89586000D01*
X85625000Y-84208252D02*
X85625000Y-83685748D01*
X87095000Y-84208252D02*
X87095000Y-83685748D01*
X121333500Y-86898000D02*
X120683500Y-86898000D01*
X121333500Y-86898000D02*
X121983500Y-86898000D01*
X121333500Y-90018000D02*
X120683500Y-90018000D01*
X121333500Y-90018000D02*
X121983500Y-90018000D01*
X120171000Y-86948000D02*
X119931000Y-86618000D01*
X120411000Y-86618000D01*
X120171000Y-86948000D01*
G36*
X120171000Y-86948000D02*
G01*
X119931000Y-86618000D01*
X120411000Y-86618000D01*
X120171000Y-86948000D01*
G37*
X119508000Y-77770000D02*
X119508000Y-83280000D01*
X122808000Y-77770000D02*
X119508000Y-77770000D01*
X122808000Y-77770000D02*
X122808000Y-83280000D01*
X99595000Y-89307936D02*
X99595000Y-89762064D01*
X101065000Y-89307936D02*
X101065000Y-89762064D01*
X160809000Y-63219064D02*
X160809000Y-62764936D01*
X162279000Y-63219064D02*
X162279000Y-62764936D01*
X89689000Y-84150564D02*
X89689000Y-83696436D01*
X91159000Y-84150564D02*
X91159000Y-83696436D01*
X78922000Y-80088000D02*
X82622000Y-80088000D01*
X78922000Y-86208000D02*
X78922000Y-80088000D01*
X82622000Y-80088000D02*
X82622000Y-86208000D01*
X82622000Y-86208000D02*
X78922000Y-86208000D01*
X93563000Y-89662000D02*
X93563000Y-88862000D01*
X93563000Y-89662000D02*
X93563000Y-90462000D01*
X96683000Y-89662000D02*
X96683000Y-88862000D01*
X96683000Y-89662000D02*
X96683000Y-90462000D01*
X93613000Y-90962000D02*
X93283000Y-91202000D01*
X93283000Y-90722000D01*
X93613000Y-90962000D01*
G36*
X93613000Y-90962000D02*
G01*
X93283000Y-91202000D01*
X93283000Y-90722000D01*
X93613000Y-90962000D01*
G37*
D14*
X127381000Y-93822000D02*
X127381000Y-105822000D01*
X127381000Y-105822000D02*
X135001000Y-105822000D01*
X135001000Y-93822000D02*
X127381000Y-93822000D01*
X135001000Y-93822000D02*
X142621000Y-93822000D01*
X135001000Y-104822000D02*
X135001000Y-94822000D01*
X142621000Y-93822000D02*
X142621000Y-105822000D01*
X142621000Y-105822000D02*
X135001000Y-105822000D01*
D10*
X86321400Y-98817800D02*
X86321400Y-101667800D01*
X86546069Y-99046400D02*
X108980800Y-99046400D01*
X86547269Y-104068000D02*
X86546069Y-99046400D01*
X86562000Y-104068000D02*
X95962000Y-104068000D01*
X89171400Y-98817800D02*
X86321400Y-98817800D01*
X95962000Y-104068000D02*
X95962000Y-105468000D01*
X95962000Y-105468000D02*
X97772000Y-105468000D01*
X99582000Y-104068000D02*
X99582000Y-105468000D01*
X99582000Y-105468000D02*
X97772000Y-105468000D01*
X108982000Y-104068000D02*
X99582000Y-104068000D01*
X108982000Y-104068000D02*
X108980800Y-99046400D01*
X120803936Y-92102000D02*
X121258064Y-92102000D01*
X120803936Y-93572000D02*
X121258064Y-93572000D01*
X156118000Y-55470000D02*
X156118000Y-56170000D01*
X156618000Y-57070000D02*
X156618000Y-57470000D01*
X156818000Y-55470000D02*
X156118000Y-55470000D01*
X157718000Y-55670000D02*
X160618000Y-55670000D01*
X157718000Y-58870000D02*
X160618000Y-58870000D01*
X160618000Y-55670000D02*
X160618000Y-56270000D01*
X160618000Y-58870000D02*
X160618000Y-58270000D01*
X105400748Y-84306000D02*
X105923252Y-84306000D01*
X105400748Y-85776000D02*
X105923252Y-85776000D01*
X89689000Y-69368936D02*
X89689000Y-69823064D01*
X91159000Y-69368936D02*
X91159000Y-69823064D01*
X78922000Y-63832000D02*
X82622000Y-63832000D01*
X78922000Y-69952000D02*
X78922000Y-63832000D01*
X82622000Y-63832000D02*
X82622000Y-69952000D01*
X82622000Y-69952000D02*
X78922000Y-69952000D01*
X94593500Y-83255748D02*
X94593500Y-83778252D01*
X96063500Y-83255748D02*
X96063500Y-83778252D01*
X131622748Y-66755600D02*
X133045252Y-66755600D01*
X131622748Y-68575600D02*
X133045252Y-68575600D01*
X82958000Y-101414252D02*
X82958000Y-100891748D01*
X84428000Y-101414252D02*
X84428000Y-100891748D01*
X169308000Y-78376000D02*
X170688000Y-78376000D01*
X169308000Y-79756000D02*
X169308000Y-78376000D01*
X169308000Y-81026000D02*
X169308000Y-91296000D01*
X169308000Y-81026000D02*
X172068000Y-81026000D01*
X169308000Y-91296000D02*
X172068000Y-91296000D01*
X172068000Y-81026000D02*
X172068000Y-91296000D01*
X97239000Y-65228000D02*
X97484000Y-65228000D01*
X97239000Y-69088000D02*
X97239000Y-65228000D01*
X97239000Y-69088000D02*
X97239000Y-72948000D01*
X97239000Y-72948000D02*
X97484000Y-72948000D01*
X115359000Y-65228000D02*
X115114000Y-65228000D01*
X115359000Y-69088000D02*
X115359000Y-65228000D01*
X115359000Y-69088000D02*
X115359000Y-72948000D01*
X115359000Y-72948000D02*
X115114000Y-72948000D01*
X97484000Y-73800500D02*
X97014000Y-74140500D01*
X97014000Y-73460500D01*
X97484000Y-73800500D01*
G36*
X97484000Y-73800500D02*
G01*
X97014000Y-74140500D01*
X97014000Y-73460500D01*
X97484000Y-73800500D01*
G37*
X125976000Y-71856000D02*
X125976000Y-89936000D01*
X126846000Y-70986000D02*
X139526000Y-70986000D01*
X126846000Y-90806000D02*
X144526000Y-90806000D01*
X130046000Y-72896000D02*
X130046000Y-79510000D01*
X130046000Y-72896000D02*
X143000000Y-72896000D01*
X134110000Y-76690600D02*
X135380000Y-76690600D01*
X135380000Y-80018000D02*
X135380000Y-76690600D01*
X135380000Y-86901400D02*
X134110000Y-86901400D01*
X135380002Y-86901397D02*
X135380002Y-83573997D01*
X140176000Y-69356000D02*
X140176000Y-70336000D01*
X141046000Y-68486000D02*
X157126000Y-68486000D01*
X145176000Y-91456000D02*
X145176000Y-95236000D01*
X146046000Y-96106000D02*
X157126000Y-96106000D01*
X147786000Y-83574000D02*
X149350000Y-83574000D01*
X147786000Y-88400000D02*
X147786000Y-83574000D01*
X149350000Y-82812000D02*
X149350000Y-84336000D01*
X149350000Y-84336000D02*
X150366000Y-83574000D01*
X150366000Y-83574000D02*
X149350000Y-82812000D01*
X151636000Y-72896000D02*
X147572000Y-72896000D01*
X151636000Y-79256000D02*
X151636000Y-72896000D01*
X151636000Y-79256000D02*
X152855200Y-83828000D01*
X152906000Y-83574000D02*
X153922000Y-82812000D01*
X153922000Y-83574000D02*
X155386000Y-83574000D01*
X153922000Y-84336000D02*
X152906000Y-83574000D01*
X153922000Y-84336000D02*
X153922000Y-82812000D01*
X155386000Y-83574000D02*
X155386000Y-88400000D01*
X157996000Y-69356000D02*
X157996000Y-95236000D01*
X125976000Y-71856000D02*
G75*
G02*
X126846000Y-70986000I870000J0D01*
G01*
X126846000Y-90806000D02*
G75*
G02*
X125976000Y-89936000I0J870000D01*
G01*
X135380002Y-83573997D02*
G75*
G02*
X135887797Y-82557734I-2J634997D01*
G01*
X135887800Y-81034267D02*
G75*
G02*
X135380000Y-80018000I-507800J381267D01*
G01*
X135888265Y-81795645D02*
G75*
G02*
X135887999Y-81034000I-508265J380645D01*
G01*
X135888266Y-82557644D02*
G75*
G02*
X135887999Y-81796000I-508266J380644D01*
G01*
X140176000Y-69356000D02*
G75*
G02*
X141046000Y-68486000I870000J0D01*
G01*
X140176000Y-70336000D02*
G75*
G02*
X139526000Y-70986000I-650000J0D01*
G01*
X144526000Y-90806000D02*
G75*
G02*
X145176000Y-91456000I0J-650000D01*
G01*
X146046000Y-96106000D02*
G75*
G02*
X145176000Y-95236000I0J870000D01*
G01*
X157126000Y-68486000D02*
G75*
G02*
X157996000Y-69356000I0J-870000D01*
G01*
X157996000Y-95236000D02*
G75*
G02*
X157126000Y-96106000I-870000J0D01*
G01*
X151763000Y-79256000D02*
G75*
G02*
X151509000Y-79256000I-127000J0D01*
G01*
X151509000Y-79256000D02*
G75*
G02*
X151763000Y-79256000I127000J0D01*
G01*
D16*
X131191000Y-103822000D03*
X138811000Y-103822000D03*
%LPC*%
D17*
X124206000Y-54488000D03*
X124206000Y-56388000D03*
X126081000Y-55438000D03*
D16*
X78232000Y-105156000D03*
D18*
X166116000Y-81684500D03*
X166116000Y-79859500D03*
D19*
X114503200Y-102662200D03*
X114503200Y-100787200D03*
D20*
X164543000Y-71628000D03*
X161593000Y-71628000D03*
D18*
X161544000Y-67968500D03*
X161544000Y-66143500D03*
D21*
X108016000Y-60755000D03*
X109916000Y-60755000D03*
D18*
X151892000Y-57808500D03*
X151892000Y-55983500D03*
D22*
X86360000Y-70526000D03*
X86360000Y-68626000D03*
D18*
X95328500Y-79857500D03*
X95328500Y-78032500D03*
D21*
X113724000Y-85041000D03*
X115624000Y-85041000D03*
D23*
X120396000Y-54459500D03*
X120396000Y-56284500D03*
D17*
X98455000Y-77995000D03*
X98455000Y-79895000D03*
X100330000Y-78945000D03*
D24*
X105918000Y-79453000D03*
X114418000Y-79453000D03*
D25*
X115593500Y-88851000D03*
X113768500Y-88851000D03*
D22*
X86360000Y-84897000D03*
X86360000Y-82997000D03*
D17*
X120396000Y-87508000D03*
X120396000Y-89408000D03*
X122271000Y-88458000D03*
D26*
X121158000Y-79280000D03*
X121158000Y-83280000D03*
D16*
X171704000Y-50292000D03*
D23*
X100330000Y-88622500D03*
X100330000Y-90447500D03*
D18*
X161544000Y-63904500D03*
X161544000Y-62079500D03*
X90424000Y-84836000D03*
X90424000Y-83011000D03*
D27*
X80772000Y-87048000D03*
X80772000Y-79248000D03*
D28*
X94173000Y-90799500D03*
X95123000Y-90799500D03*
X96073000Y-90799500D03*
X96073000Y-88524500D03*
X95123000Y-88524500D03*
X94173000Y-88524500D03*
D16*
X131191000Y-103822000D03*
X138811000Y-103822000D03*
D29*
X89372000Y-102108000D03*
X93572000Y-102108000D03*
X97772000Y-102108000D03*
X101972000Y-102108000D03*
X106172000Y-102108000D03*
D30*
X120118500Y-92837000D03*
X121943500Y-92837000D03*
D31*
X156918000Y-56270000D03*
D32*
X160168000Y-57270000D03*
D31*
X156918000Y-58270000D03*
D21*
X104712000Y-85041000D03*
X106612000Y-85041000D03*
D16*
X78232000Y-50292000D03*
D23*
X90424000Y-68683500D03*
X90424000Y-70508500D03*
D16*
X171704000Y-105156000D03*
D27*
X80772000Y-70792000D03*
X80772000Y-62992000D03*
D33*
X95328500Y-82567000D03*
X95328500Y-84467000D03*
D34*
X130859000Y-67665600D03*
X133809000Y-67665600D03*
D22*
X83693000Y-102103000D03*
X83693000Y-100203000D03*
D35*
X170688000Y-79756000D03*
D36*
X170688000Y-82296000D03*
X170688000Y-84836000D03*
X170688000Y-87376000D03*
X170688000Y-89916000D03*
D37*
X98044000Y-73738000D03*
X99314000Y-73738000D03*
X100584000Y-73738000D03*
X101854000Y-73738000D03*
X103124000Y-73738000D03*
X104394000Y-73738000D03*
X105664000Y-73738000D03*
X106934000Y-73738000D03*
X108204000Y-73738000D03*
X109474000Y-73738000D03*
X110744000Y-73738000D03*
X112014000Y-73738000D03*
X113284000Y-73738000D03*
X114554000Y-73738000D03*
X114554000Y-64438000D03*
X113284000Y-64438000D03*
X112014000Y-64438000D03*
X110744000Y-64438000D03*
X109474000Y-64438000D03*
X108204000Y-64438000D03*
X106934000Y-64438000D03*
X105664000Y-64438000D03*
X104394000Y-64438000D03*
X103124000Y-64438000D03*
X101854000Y-64438000D03*
X100584000Y-64438000D03*
X99314000Y-64438000D03*
X98044000Y-64438000D03*
D16*
X130046000Y-81796000D03*
X145246000Y-72896000D03*
X155386000Y-90696000D03*
X147786000Y-90696000D03*
D38*
X132586000Y-76696000D03*
D39*
X132586000Y-86896000D03*
D40*
X168142000Y-67914000D03*
X168142000Y-62134000D03*
D41*
X166697000Y-68249000D03*
X166697000Y-67474000D03*
D42*
X166697000Y-66774000D03*
X166697000Y-66274000D03*
X166697000Y-65774000D03*
X166697000Y-65274000D03*
X166697000Y-64774000D03*
X166697000Y-64274000D03*
X166697000Y-63774000D03*
X166697000Y-63274000D03*
D41*
X166697000Y-62574000D03*
X166697000Y-61799000D03*
D43*
X167612000Y-69344000D03*
D44*
X171792000Y-69344000D03*
D43*
X167612000Y-60704000D03*
D44*
X171792000Y-60704000D03*
D45*
X123633800Y-50205860D03*
X164273800Y-50205860D03*
X161733800Y-50205860D03*
X159193800Y-50205860D03*
X156653800Y-50205860D03*
X154113800Y-50205860D03*
X151573800Y-50205860D03*
X149033800Y-50205860D03*
X146493800Y-50205860D03*
X143953800Y-50205860D03*
X141413800Y-50205860D03*
X138873800Y-50205860D03*
X136333800Y-50205860D03*
X133793800Y-50205860D03*
X131253800Y-50205860D03*
X128713800Y-50205860D03*
X126173800Y-50205860D03*
%LPD*%
M02*
