M48
; DRILL file {KiCad 9.0.2} date 2025-09-26T20:13:04+0200
; FORMAT={-:-/ absolute / metric / decimal}
; #@! TF.CreationDate,2025-09-26T20:13:04+02:00
; #@! TF.GenerationSoftware,Kicad,Pcbnew,9.0.2
; #@! TF.FileFunction,Plated,1,2,PTH
FMAT,2
METRIC
; #@! TA.AperFunction,Plated,PTH,ViaDrill
T1C0.300
; #@! TA.AperFunction,Plated,PTH,ViaDrill
T2C0.400
; #@! TA.AperFunction,Plated,PTH,ComponentDrill
T3C0.600
; #@! TA.AperFunction,Plated,PTH,ComponentDrill
T4C1.000
; #@! TA.AperFunction,Plated,PTH,ComponentDrill
T5C1.001
; #@! TA.AperFunction,Plated,PTH,ComponentDrill
T6C1.100
; #@! TA.AperFunction,Plated,PTH,ComponentDrill
T7C1.400
; #@! TA.AperFunction,Plated,PTH,ComponentDrill
T8C1.600
%
G90
G05
T1
X80.772Y-61.722
X80.772Y-77.978
X86.36Y-67.818
X86.36Y-81.915
X93.99Y-71.262
X94.615Y-71.262
X96.139Y-71.262
X104.289Y-58.906
X104.521Y-70.468
X107.149Y-59.168
X107.442Y-68.072
X107.696Y-67.31
X114.554Y-103.759
X155.753Y-58.268
T2
X76.2Y-53.34
X76.2Y-58.42
X76.2Y-63.5
X76.2Y-68.58
X76.2Y-73.66
X76.2Y-78.74
X76.2Y-83.82
X76.2Y-88.9
X76.2Y-93.98
X76.2Y-99.06
X81.28Y-48.26
X81.28Y-106.68
X83.693Y-99.06
X86.36Y-48.26
X86.36Y-74.93
X86.36Y-93.98
X86.36Y-106.68
X91.44Y-48.26
X91.44Y-74.93
X91.44Y-106.68
X94.742Y-84.074
X94.844Y-91.999
X95.25Y-59.69
X95.25Y-67.31
X95.377Y-70.612
X96.52Y-48.26
X96.52Y-74.93
X96.52Y-93.98
X96.52Y-106.68
X97.79Y-83.82
X101.6Y-48.26
X101.6Y-67.31
X101.6Y-106.68
X103.646Y-70.373
X104.14Y-67.31
X106.68Y-48.26
X106.68Y-106.68
X106.934Y-75.184
X107.696Y-85.09
X109.118Y-66.04
X109.474Y-62.484
X110.49Y-80.01
X110.49Y-85.09
X110.49Y-92.71
X111.76Y-48.26
X111.76Y-67.31
X111.76Y-106.68
X113.03Y-76.2
X115.57Y-86.106
X115.57Y-92.71
X116.84Y-48.26
X116.84Y-63.5
X116.84Y-71.12
X116.84Y-106.68
X120.396Y-89.916
X121.92Y-56.388
X121.92Y-106.68
X122.936Y-92.964
X127.0Y-63.5
X127.0Y-71.12
X127.0Y-78.74
X127.0Y-83.82
X127.0Y-106.68
X127.635Y-56.677
X127.635Y-60.071
X128.016Y-86.868
X132.08Y-106.68
X133.35Y-71.12
X134.874Y-67.818
X137.16Y-106.68
X139.7Y-71.12
X139.7Y-82.55
X139.7Y-86.36
X140.97Y-57.15
X140.97Y-62.23
X140.97Y-66.04
X142.24Y-106.68
X147.32Y-106.68
X148.59Y-77.47
X148.59Y-86.36
X152.4Y-106.68
X154.94Y-77.47
X154.94Y-86.36
X157.48Y-62.23
X157.48Y-66.04
X157.48Y-72.39
X157.48Y-106.68
X161.29Y-85.09
X162.56Y-106.68
X163.83Y-76.2
X165.71Y-71.628
X165.862Y-68.58
X165.989Y-61.468
X167.64Y-106.68
X172.72Y-55.88
X172.72Y-58.42
X172.72Y-73.66
X172.72Y-76.2
X172.72Y-95.25
X172.72Y-99.06
T4
X170.688Y-79.756
X170.688Y-82.296
X170.688Y-84.836
X170.688Y-87.376
X170.688Y-89.916
T5
X126.174Y-50.206
X128.714Y-50.206
X131.254Y-50.206
X133.794Y-50.206
X136.334Y-50.206
X138.874Y-50.206
X141.414Y-50.206
X143.954Y-50.206
X146.494Y-50.206
X149.034Y-50.206
X151.574Y-50.206
X154.114Y-50.206
X156.654Y-50.206
X159.194Y-50.206
X161.734Y-50.206
X164.274Y-50.206
T6
X132.586Y-76.696
X132.586Y-86.896
T7
X89.372Y-102.108
X93.572Y-102.108
X97.772Y-102.108
X101.972Y-102.108
X106.172Y-102.108
X131.191Y-103.822
X138.811Y-103.822
T8
X130.046Y-81.796
X145.246Y-72.896
X147.786Y-90.696
X155.386Y-90.696
T3
G00X168.162Y-60.704
M15
G01X167.062Y-60.704
M16
G05
G00X167.062Y-60.704
M15
G01X168.162Y-60.704
M16
G05
G00X167.062Y-69.344
M15
G01X168.162Y-69.344
M16
G05
G00X168.162Y-69.344
M15
G01X167.062Y-69.344
M16
G05
G00X172.092Y-60.704
M15
G01X171.492Y-60.704
M16
G05
G00X171.492Y-60.704
M15
G01X172.092Y-60.704
M16
G05
G00X172.092Y-69.344
M15
G01X171.492Y-69.344
M16
G05
G00X171.492Y-69.344
M15
G01X172.092Y-69.344
M16
G05
M30
