G04 #@! TF.GenerationSoftware,KiCad,Pcbnew,9.0.2*
G04 #@! TF.CreationDate,2025-09-26T20:13:01+02:00*
G04 #@! TF.ProjectId,TeslaBMBCheck,5465736c-6142-44d4-9243-6865636b2e6b,1.1*
G04 #@! TF.SameCoordinates,Original*
G04 #@! TF.FileFunction,Legend,Bot*
G04 #@! TF.FilePolarity,Positive*
%FSLAX46Y46*%
G04 Gerber Fmt 4.6, Leading zero omitted, Abs format (unit mm)*
G04 Created by KiCad (PCBNEW 9.0.2) date 2025-09-26 20:13:01*
%MOMM*%
%LPD*%
G01*
G04 APERTURE LIST*
G04 Aperture macros list*
%AMRoundRect*
0 Rectangle with rounded corners*
0 $1 Rounding radius*
0 $2 $3 $4 $5 $6 $7 $8 $9 X,Y pos of 4 corners*
0 Add a 4 corners polygon primitive as box body*
4,1,4,$2,$3,$4,$5,$6,$7,$8,$9,$2,$3,0*
0 Add four circle primitives for the rounded corners*
1,1,$1+$1,$2,$3*
1,1,$1+$1,$4,$5*
1,1,$1+$1,$6,$7*
1,1,$1+$1,$8,$9*
0 Add four rect primitives between the rounded corners*
20,1,$1+$1,$2,$3,$4,$5,0*
20,1,$1+$1,$4,$5,$6,$7,0*
20,1,$1+$1,$6,$7,$8,$9,0*
20,1,$1+$1,$8,$9,$2,$3,0*%
G04 Aperture macros list end*
%ADD10O,1.501140X4.000500*%
%ADD11C,3.000000*%
%ADD12O,2.700000X3.300000*%
%ADD13R,1.700000X1.700000*%
%ADD14C,1.700000*%
%ADD15RoundRect,0.500000X0.500000X0.500000X-0.500000X0.500000X-0.500000X-0.500000X0.500000X-0.500000X0*%
%ADD16C,2.000000*%
%ADD17C,0.650000*%
%ADD18O,2.100000X1.000000*%
%ADD19O,1.600000X1.000000*%
G04 APERTURE END LIST*
D10*
X164273800Y-50205860D03*
X161733800Y-50205860D03*
X159193800Y-50205860D03*
X156653800Y-50205860D03*
X154113800Y-50205860D03*
X151573800Y-50205860D03*
X149033800Y-50205860D03*
X146493800Y-50205860D03*
X143953800Y-50205860D03*
X141413800Y-50205860D03*
X138873800Y-50205860D03*
X136333800Y-50205860D03*
X133793800Y-50205860D03*
X131253800Y-50205860D03*
X128713800Y-50205860D03*
X126173800Y-50205860D03*
%LPC*%
D11*
X78232000Y-105156000D03*
X171704000Y-50292000D03*
X131191000Y-103822000D03*
X138811000Y-103822000D03*
D12*
X89372000Y-102108000D03*
X93572000Y-102108000D03*
X97772000Y-102108000D03*
X101972000Y-102108000D03*
X106172000Y-102108000D03*
D11*
X78232000Y-50292000D03*
X171704000Y-105156000D03*
D13*
X170688000Y-79756000D03*
D14*
X170688000Y-82296000D03*
X170688000Y-84836000D03*
X170688000Y-87376000D03*
X170688000Y-89916000D03*
D11*
X130046000Y-81796000D03*
X145246000Y-72896000D03*
X155386000Y-90696000D03*
X147786000Y-90696000D03*
D15*
X132586000Y-76696000D03*
D16*
X132586000Y-86896000D03*
D17*
X168142000Y-67914000D03*
X168142000Y-62134000D03*
D18*
X167612000Y-69344000D03*
D19*
X171792000Y-69344000D03*
D18*
X167612000Y-60704000D03*
D19*
X171792000Y-60704000D03*
D10*
X164273800Y-50205860D03*
X161733800Y-50205860D03*
X159193800Y-50205860D03*
X156653800Y-50205860D03*
X154113800Y-50205860D03*
X151573800Y-50205860D03*
X149033800Y-50205860D03*
X146493800Y-50205860D03*
X143953800Y-50205860D03*
X141413800Y-50205860D03*
X138873800Y-50205860D03*
X136333800Y-50205860D03*
X133793800Y-50205860D03*
X131253800Y-50205860D03*
X128713800Y-50205860D03*
X126173800Y-50205860D03*
%LPD*%
M02*
