G04 #@! TF.GenerationSoftware,KiCad,Pcbnew,9.0.2*
G04 #@! TF.CreationDate,2025-07-11T13:16:32+02:00*
G04 #@! TF.ProjectId,TeslaBMBCheck,5465736c-6142-44d4-9243-6865636b2e6b,1.0*
G04 #@! TF.SameCoordinates,Original*
G04 #@! TF.FileFunction,Copper,L2,Bot*
G04 #@! TF.FilePolarity,Positive*
%FSLAX46Y46*%
G04 Gerber Fmt 4.6, Leading zero omitted, Abs format (unit mm)*
G04 Created by KiCad (PCBNEW 9.0.2) date 2025-07-11 13:16:32*
%MOMM*%
%LPD*%
G01*
G04 APERTURE LIST*
G04 #@! TA.AperFunction,ComponentPad*
%ADD10O,2.700000X3.300000*%
G04 #@! TD*
G04 #@! TA.AperFunction,ComponentPad*
%ADD11R,1.700000X1.700000*%
G04 #@! TD*
G04 #@! TA.AperFunction,ComponentPad*
%ADD12C,1.700000*%
G04 #@! TD*
G04 #@! TA.AperFunction,ComponentPad*
%ADD13O,2.100000X1.000000*%
G04 #@! TD*
G04 #@! TA.AperFunction,ComponentPad*
%ADD14O,1.600000X1.000000*%
G04 #@! TD*
G04 #@! TA.AperFunction,ComponentPad*
%ADD15O,1.501140X4.000500*%
G04 #@! TD*
G04 #@! TA.AperFunction,ViaPad*
%ADD16C,0.450000*%
G04 #@! TD*
G04 #@! TA.AperFunction,ViaPad*
%ADD17C,0.600000*%
G04 #@! TD*
G04 #@! TA.AperFunction,Conductor*
%ADD18C,0.500000*%
G04 #@! TD*
G04 #@! TA.AperFunction,Conductor*
%ADD19C,0.250000*%
G04 #@! TD*
G04 APERTURE END LIST*
D10*
X89372000Y-102108000D03*
X93572000Y-102108000D03*
X97772000Y-102108000D03*
X101972000Y-102108000D03*
X106172000Y-102108000D03*
D11*
X170688000Y-79756000D03*
D12*
X170688000Y-82296000D03*
X170688000Y-84836000D03*
X170688000Y-87376000D03*
X170688000Y-89916000D03*
D13*
X167612000Y-69344000D03*
X167612000Y-69344000D03*
D14*
X171792000Y-69344000D03*
X171792000Y-69344000D03*
D13*
X167612000Y-60704000D03*
X167612000Y-60704000D03*
D14*
X171792000Y-60704000D03*
X171792000Y-60704000D03*
D15*
X164273800Y-50205860D03*
X161733800Y-50205860D03*
X159193800Y-50205860D03*
X156653800Y-50205860D03*
X154113800Y-50205860D03*
X151573800Y-50205860D03*
X149033800Y-50205860D03*
X146493800Y-50205860D03*
X143953800Y-50205860D03*
X141413800Y-50205860D03*
X138873800Y-50205860D03*
X136333800Y-50205860D03*
X133793800Y-50205860D03*
X131253800Y-50205860D03*
X128713800Y-50205860D03*
X126173800Y-50205860D03*
D16*
X161544000Y-61214000D03*
X114554000Y-103759000D03*
X86360000Y-81915000D03*
D17*
X120777000Y-66675000D03*
X83693000Y-99060000D03*
D16*
X80772000Y-61722000D03*
D17*
X165735000Y-71628000D03*
D16*
X129413000Y-87249000D03*
X128016000Y-60706000D03*
D17*
X142240000Y-62484000D03*
X165481000Y-61722000D03*
D16*
X149606000Y-87884000D03*
X161544000Y-65151000D03*
X128016000Y-56896000D03*
D17*
X156972000Y-59182000D03*
D16*
X140462000Y-87884000D03*
D17*
X165354000Y-68326000D03*
D16*
X86360000Y-67818000D03*
X80772000Y-77978000D03*
D17*
X139700000Y-75438000D03*
X155575000Y-77343000D03*
X161671000Y-54737000D03*
X135255000Y-59563000D03*
X139719000Y-77343000D03*
X124430450Y-64232450D03*
X127965200Y-63296800D03*
X139827000Y-59596000D03*
X156083000Y-54737000D03*
D16*
X135890000Y-66167000D03*
X127762000Y-66277000D03*
X136349621Y-66717000D03*
X127000000Y-66802000D03*
D18*
X125213700Y-63449200D02*
X127812800Y-63449200D01*
X124430450Y-64232450D02*
X125213700Y-63449200D01*
X127812800Y-63449200D02*
X127965200Y-63296800D01*
X156083000Y-54737000D02*
X161671000Y-54737000D01*
X135288000Y-59596000D02*
X135255000Y-59563000D01*
X139719000Y-77343000D02*
X155575000Y-77343000D01*
X139827000Y-59596000D02*
X135288000Y-59596000D01*
D19*
X135890000Y-66167000D02*
X127872000Y-66167000D01*
X127872000Y-66167000D02*
X127762000Y-66277000D01*
X128143000Y-66802000D02*
X128228000Y-66717000D01*
X127000000Y-66802000D02*
X128143000Y-66802000D01*
X128228000Y-66717000D02*
X136349621Y-66717000D01*
G04 #@! TA.AperFunction,Conductor*
G36*
X125909281Y-47771685D02*
G01*
X125955036Y-47824489D01*
X125964980Y-47893647D01*
X125935955Y-47957203D01*
X125886593Y-47989237D01*
X125887427Y-47991249D01*
X125699617Y-48069041D01*
X125699608Y-48069046D01*
X125535655Y-48178597D01*
X125535651Y-48178600D01*
X125396220Y-48318031D01*
X125396217Y-48318035D01*
X125286666Y-48481988D01*
X125286661Y-48481997D01*
X125211200Y-48664178D01*
X125211198Y-48664186D01*
X125172730Y-48857578D01*
X125172730Y-51554141D01*
X125211198Y-51747533D01*
X125211200Y-51747541D01*
X125286661Y-51929722D01*
X125286666Y-51929731D01*
X125396217Y-52093684D01*
X125396220Y-52093688D01*
X125535651Y-52233119D01*
X125535655Y-52233122D01*
X125699608Y-52342673D01*
X125699614Y-52342676D01*
X125699615Y-52342677D01*
X125881799Y-52418140D01*
X126075198Y-52456609D01*
X126075202Y-52456610D01*
X126075203Y-52456610D01*
X126272398Y-52456610D01*
X126272399Y-52456609D01*
X126465801Y-52418140D01*
X126647985Y-52342677D01*
X126811945Y-52233122D01*
X126951382Y-52093685D01*
X127060937Y-51929725D01*
X127136400Y-51747541D01*
X127174870Y-51554137D01*
X127174870Y-48857583D01*
X127136400Y-48664179D01*
X127078033Y-48523268D01*
X127060938Y-48481997D01*
X127060933Y-48481988D01*
X126951382Y-48318035D01*
X126951379Y-48318031D01*
X126811948Y-48178600D01*
X126811944Y-48178597D01*
X126647991Y-48069046D01*
X126647982Y-48069041D01*
X126460173Y-47991249D01*
X126461023Y-47989195D01*
X126410924Y-47956363D01*
X126382467Y-47892550D01*
X126393028Y-47823483D01*
X126439253Y-47771090D01*
X126505358Y-47752000D01*
X128382242Y-47752000D01*
X128449281Y-47771685D01*
X128495036Y-47824489D01*
X128504980Y-47893647D01*
X128475955Y-47957203D01*
X128426593Y-47989237D01*
X128427427Y-47991249D01*
X128239617Y-48069041D01*
X128239608Y-48069046D01*
X128075655Y-48178597D01*
X128075651Y-48178600D01*
X127936220Y-48318031D01*
X127936217Y-48318035D01*
X127826666Y-48481988D01*
X127826661Y-48481997D01*
X127751200Y-48664178D01*
X127751198Y-48664186D01*
X127712730Y-48857578D01*
X127712730Y-51554141D01*
X127751198Y-51747533D01*
X127751200Y-51747541D01*
X127826661Y-51929722D01*
X127826666Y-51929731D01*
X127936217Y-52093684D01*
X127936220Y-52093688D01*
X128075651Y-52233119D01*
X128075655Y-52233122D01*
X128239608Y-52342673D01*
X128239614Y-52342676D01*
X128239615Y-52342677D01*
X128421799Y-52418140D01*
X128615198Y-52456609D01*
X128615202Y-52456610D01*
X128615203Y-52456610D01*
X128812398Y-52456610D01*
X128812399Y-52456609D01*
X129005801Y-52418140D01*
X129187985Y-52342677D01*
X129351945Y-52233122D01*
X129491382Y-52093685D01*
X129600937Y-51929725D01*
X129676400Y-51747541D01*
X129714870Y-51554137D01*
X129714870Y-48857583D01*
X129676400Y-48664179D01*
X129618033Y-48523268D01*
X129600938Y-48481997D01*
X129600933Y-48481988D01*
X129491382Y-48318035D01*
X129491379Y-48318031D01*
X129351948Y-48178600D01*
X129351944Y-48178597D01*
X129187991Y-48069046D01*
X129187982Y-48069041D01*
X129000173Y-47991249D01*
X129001023Y-47989195D01*
X128950924Y-47956363D01*
X128922467Y-47892550D01*
X128933028Y-47823483D01*
X128979253Y-47771090D01*
X129045358Y-47752000D01*
X130922242Y-47752000D01*
X130989281Y-47771685D01*
X131035036Y-47824489D01*
X131044980Y-47893647D01*
X131015955Y-47957203D01*
X130966593Y-47989237D01*
X130967427Y-47991249D01*
X130779617Y-48069041D01*
X130779608Y-48069046D01*
X130615655Y-48178597D01*
X130615651Y-48178600D01*
X130476220Y-48318031D01*
X130476217Y-48318035D01*
X130366666Y-48481988D01*
X130366661Y-48481997D01*
X130291200Y-48664178D01*
X130291198Y-48664186D01*
X130252730Y-48857578D01*
X130252730Y-51554141D01*
X130291198Y-51747533D01*
X130291200Y-51747541D01*
X130366661Y-51929722D01*
X130366666Y-51929731D01*
X130476217Y-52093684D01*
X130476220Y-52093688D01*
X130615651Y-52233119D01*
X130615655Y-52233122D01*
X130779608Y-52342673D01*
X130779614Y-52342676D01*
X130779615Y-52342677D01*
X130961799Y-52418140D01*
X131155198Y-52456609D01*
X131155202Y-52456610D01*
X131155203Y-52456610D01*
X131352398Y-52456610D01*
X131352399Y-52456609D01*
X131545801Y-52418140D01*
X131727985Y-52342677D01*
X131891945Y-52233122D01*
X132031382Y-52093685D01*
X132140937Y-51929725D01*
X132216400Y-51747541D01*
X132254870Y-51554137D01*
X132254870Y-48857583D01*
X132216400Y-48664179D01*
X132158033Y-48523268D01*
X132140938Y-48481997D01*
X132140933Y-48481988D01*
X132031382Y-48318035D01*
X132031379Y-48318031D01*
X131891948Y-48178600D01*
X131891944Y-48178597D01*
X131727991Y-48069046D01*
X131727982Y-48069041D01*
X131540173Y-47991249D01*
X131541023Y-47989195D01*
X131490924Y-47956363D01*
X131462467Y-47892550D01*
X131473028Y-47823483D01*
X131519253Y-47771090D01*
X131585358Y-47752000D01*
X133462242Y-47752000D01*
X133529281Y-47771685D01*
X133575036Y-47824489D01*
X133584980Y-47893647D01*
X133555955Y-47957203D01*
X133506593Y-47989237D01*
X133507427Y-47991249D01*
X133319617Y-48069041D01*
X133319608Y-48069046D01*
X133155655Y-48178597D01*
X133155651Y-48178600D01*
X133016220Y-48318031D01*
X133016217Y-48318035D01*
X132906666Y-48481988D01*
X132906661Y-48481997D01*
X132831200Y-48664178D01*
X132831198Y-48664186D01*
X132792730Y-48857578D01*
X132792730Y-51554141D01*
X132831198Y-51747533D01*
X132831200Y-51747541D01*
X132906661Y-51929722D01*
X132906666Y-51929731D01*
X133016217Y-52093684D01*
X133016220Y-52093688D01*
X133155651Y-52233119D01*
X133155655Y-52233122D01*
X133319608Y-52342673D01*
X133319614Y-52342676D01*
X133319615Y-52342677D01*
X133501799Y-52418140D01*
X133695198Y-52456609D01*
X133695202Y-52456610D01*
X133695203Y-52456610D01*
X133892398Y-52456610D01*
X133892399Y-52456609D01*
X134085801Y-52418140D01*
X134267985Y-52342677D01*
X134431945Y-52233122D01*
X134571382Y-52093685D01*
X134680937Y-51929725D01*
X134756400Y-51747541D01*
X134794870Y-51554137D01*
X134794870Y-48857583D01*
X134756400Y-48664179D01*
X134698033Y-48523268D01*
X134680938Y-48481997D01*
X134680933Y-48481988D01*
X134571382Y-48318035D01*
X134571379Y-48318031D01*
X134431948Y-48178600D01*
X134431944Y-48178597D01*
X134267991Y-48069046D01*
X134267982Y-48069041D01*
X134080173Y-47991249D01*
X134081023Y-47989195D01*
X134030924Y-47956363D01*
X134002467Y-47892550D01*
X134013028Y-47823483D01*
X134059253Y-47771090D01*
X134125358Y-47752000D01*
X136002242Y-47752000D01*
X136069281Y-47771685D01*
X136115036Y-47824489D01*
X136124980Y-47893647D01*
X136095955Y-47957203D01*
X136046593Y-47989237D01*
X136047427Y-47991249D01*
X135859617Y-48069041D01*
X135859608Y-48069046D01*
X135695655Y-48178597D01*
X135695651Y-48178600D01*
X135556220Y-48318031D01*
X135556217Y-48318035D01*
X135446666Y-48481988D01*
X135446661Y-48481997D01*
X135371200Y-48664178D01*
X135371198Y-48664186D01*
X135332730Y-48857578D01*
X135332730Y-51554141D01*
X135371198Y-51747533D01*
X135371200Y-51747541D01*
X135446661Y-51929722D01*
X135446666Y-51929731D01*
X135556217Y-52093684D01*
X135556220Y-52093688D01*
X135695651Y-52233119D01*
X135695655Y-52233122D01*
X135859608Y-52342673D01*
X135859614Y-52342676D01*
X135859615Y-52342677D01*
X136041799Y-52418140D01*
X136235198Y-52456609D01*
X136235202Y-52456610D01*
X136235203Y-52456610D01*
X136432398Y-52456610D01*
X136432399Y-52456609D01*
X136625801Y-52418140D01*
X136807985Y-52342677D01*
X136971945Y-52233122D01*
X137111382Y-52093685D01*
X137220937Y-51929725D01*
X137296400Y-51747541D01*
X137334870Y-51554137D01*
X137334870Y-48857583D01*
X137296400Y-48664179D01*
X137238033Y-48523268D01*
X137220938Y-48481997D01*
X137220933Y-48481988D01*
X137111382Y-48318035D01*
X137111379Y-48318031D01*
X136971948Y-48178600D01*
X136971944Y-48178597D01*
X136807991Y-48069046D01*
X136807982Y-48069041D01*
X136620173Y-47991249D01*
X136621023Y-47989195D01*
X136570924Y-47956363D01*
X136542467Y-47892550D01*
X136553028Y-47823483D01*
X136599253Y-47771090D01*
X136665358Y-47752000D01*
X138542242Y-47752000D01*
X138609281Y-47771685D01*
X138655036Y-47824489D01*
X138664980Y-47893647D01*
X138635955Y-47957203D01*
X138586593Y-47989237D01*
X138587427Y-47991249D01*
X138399617Y-48069041D01*
X138399608Y-48069046D01*
X138235655Y-48178597D01*
X138235651Y-48178600D01*
X138096220Y-48318031D01*
X138096217Y-48318035D01*
X137986666Y-48481988D01*
X137986661Y-48481997D01*
X137911200Y-48664178D01*
X137911198Y-48664186D01*
X137872730Y-48857578D01*
X137872730Y-51554141D01*
X137911198Y-51747533D01*
X137911200Y-51747541D01*
X137986661Y-51929722D01*
X137986666Y-51929731D01*
X138096217Y-52093684D01*
X138096220Y-52093688D01*
X138235651Y-52233119D01*
X138235655Y-52233122D01*
X138399608Y-52342673D01*
X138399614Y-52342676D01*
X138399615Y-52342677D01*
X138581799Y-52418140D01*
X138775198Y-52456609D01*
X138775202Y-52456610D01*
X138775203Y-52456610D01*
X138972398Y-52456610D01*
X138972399Y-52456609D01*
X139165801Y-52418140D01*
X139347985Y-52342677D01*
X139511945Y-52233122D01*
X139651382Y-52093685D01*
X139760937Y-51929725D01*
X139836400Y-51747541D01*
X139874870Y-51554137D01*
X139874870Y-48857583D01*
X139836400Y-48664179D01*
X139778033Y-48523268D01*
X139760938Y-48481997D01*
X139760933Y-48481988D01*
X139651382Y-48318035D01*
X139651379Y-48318031D01*
X139511948Y-48178600D01*
X139511944Y-48178597D01*
X139347991Y-48069046D01*
X139347982Y-48069041D01*
X139160173Y-47991249D01*
X139161023Y-47989195D01*
X139110924Y-47956363D01*
X139082467Y-47892550D01*
X139093028Y-47823483D01*
X139139253Y-47771090D01*
X139205358Y-47752000D01*
X141083977Y-47752000D01*
X141151016Y-47771685D01*
X141196771Y-47824489D01*
X141206715Y-47893647D01*
X141177690Y-47957203D01*
X141126919Y-47990152D01*
X141127573Y-47991731D01*
X140939850Y-48069487D01*
X140775978Y-48178983D01*
X140775970Y-48178989D01*
X140636609Y-48318350D01*
X140636603Y-48318358D01*
X140527107Y-48482230D01*
X140451682Y-48664324D01*
X140451680Y-48664330D01*
X140413230Y-48857629D01*
X140413230Y-49955860D01*
X140980348Y-49955860D01*
X140947520Y-50012720D01*
X140913420Y-50139984D01*
X140913420Y-50271736D01*
X140947520Y-50399000D01*
X140980348Y-50455860D01*
X140413230Y-50455860D01*
X140413230Y-51554090D01*
X140413229Y-51554090D01*
X140451680Y-51747389D01*
X140451682Y-51747395D01*
X140527107Y-51929489D01*
X140636603Y-52093361D01*
X140636609Y-52093369D01*
X140775970Y-52232730D01*
X140775978Y-52232736D01*
X140939851Y-52342232D01*
X140939854Y-52342234D01*
X141121942Y-52417656D01*
X141163800Y-52425982D01*
X141163800Y-50639311D01*
X141220660Y-50672140D01*
X141347924Y-50706240D01*
X141479676Y-50706240D01*
X141606940Y-50672140D01*
X141663800Y-50639311D01*
X141663800Y-52425982D01*
X141705656Y-52417656D01*
X141705658Y-52417656D01*
X141887745Y-52342234D01*
X141887748Y-52342232D01*
X142051621Y-52232736D01*
X142051629Y-52232730D01*
X142190990Y-52093369D01*
X142190996Y-52093361D01*
X142300492Y-51929489D01*
X142375917Y-51747395D01*
X142375919Y-51747389D01*
X142414370Y-51554090D01*
X142414370Y-50455860D01*
X141847252Y-50455860D01*
X141880080Y-50399000D01*
X141914180Y-50271736D01*
X141914180Y-50139984D01*
X141880080Y-50012720D01*
X141847252Y-49955860D01*
X142414370Y-49955860D01*
X142414370Y-48857629D01*
X142375919Y-48664330D01*
X142375917Y-48664324D01*
X142300492Y-48482230D01*
X142190996Y-48318358D01*
X142190990Y-48318350D01*
X142051629Y-48178989D01*
X142051621Y-48178983D01*
X141887748Y-48069487D01*
X141887749Y-48069487D01*
X141700027Y-47991731D01*
X141700695Y-47990117D01*
X141649189Y-47956363D01*
X141620733Y-47892551D01*
X141631293Y-47823484D01*
X141677517Y-47771091D01*
X141743623Y-47752000D01*
X143623977Y-47752000D01*
X143691016Y-47771685D01*
X143736771Y-47824489D01*
X143746715Y-47893647D01*
X143717690Y-47957203D01*
X143666919Y-47990152D01*
X143667573Y-47991731D01*
X143479850Y-48069487D01*
X143315978Y-48178983D01*
X143315970Y-48178989D01*
X143176609Y-48318350D01*
X143176603Y-48318358D01*
X143067107Y-48482230D01*
X142991682Y-48664324D01*
X142991680Y-48664330D01*
X142953230Y-48857629D01*
X142953230Y-49955860D01*
X143520348Y-49955860D01*
X143487520Y-50012720D01*
X143453420Y-50139984D01*
X143453420Y-50271736D01*
X143487520Y-50399000D01*
X143520348Y-50455860D01*
X142953230Y-50455860D01*
X142953230Y-51554090D01*
X142953229Y-51554090D01*
X142991680Y-51747389D01*
X142991682Y-51747395D01*
X143067107Y-51929489D01*
X143176603Y-52093361D01*
X143176609Y-52093369D01*
X143315970Y-52232730D01*
X143315978Y-52232736D01*
X143479851Y-52342232D01*
X143479854Y-52342234D01*
X143661942Y-52417656D01*
X143703800Y-52425982D01*
X143703800Y-50639311D01*
X143760660Y-50672140D01*
X143887924Y-50706240D01*
X144019676Y-50706240D01*
X144146940Y-50672140D01*
X144203800Y-50639311D01*
X144203800Y-52425982D01*
X144245656Y-52417656D01*
X144245658Y-52417656D01*
X144427745Y-52342234D01*
X144427748Y-52342232D01*
X144591621Y-52232736D01*
X144591629Y-52232730D01*
X144730990Y-52093369D01*
X144730996Y-52093361D01*
X144840492Y-51929489D01*
X144915917Y-51747395D01*
X144915919Y-51747389D01*
X144954370Y-51554090D01*
X144954370Y-50455860D01*
X144387252Y-50455860D01*
X144420080Y-50399000D01*
X144454180Y-50271736D01*
X144454180Y-50139984D01*
X144420080Y-50012720D01*
X144387252Y-49955860D01*
X144954370Y-49955860D01*
X144954370Y-48857629D01*
X144915919Y-48664330D01*
X144915917Y-48664324D01*
X144840492Y-48482230D01*
X144730996Y-48318358D01*
X144730990Y-48318350D01*
X144591629Y-48178989D01*
X144591621Y-48178983D01*
X144427748Y-48069487D01*
X144427749Y-48069487D01*
X144240027Y-47991731D01*
X144240695Y-47990117D01*
X144189189Y-47956363D01*
X144160733Y-47892551D01*
X144171293Y-47823484D01*
X144217517Y-47771091D01*
X144283623Y-47752000D01*
X146163977Y-47752000D01*
X146231016Y-47771685D01*
X146276771Y-47824489D01*
X146286715Y-47893647D01*
X146257690Y-47957203D01*
X146206919Y-47990152D01*
X146207573Y-47991731D01*
X146019850Y-48069487D01*
X145855978Y-48178983D01*
X145855970Y-48178989D01*
X145716609Y-48318350D01*
X145716603Y-48318358D01*
X145607107Y-48482230D01*
X145531682Y-48664324D01*
X145531680Y-48664330D01*
X145493230Y-48857629D01*
X145493230Y-49955860D01*
X146060348Y-49955860D01*
X146027520Y-50012720D01*
X145993420Y-50139984D01*
X145993420Y-50271736D01*
X146027520Y-50399000D01*
X146060348Y-50455860D01*
X145493230Y-50455860D01*
X145493230Y-51554090D01*
X145493229Y-51554090D01*
X145531680Y-51747389D01*
X145531682Y-51747395D01*
X145607107Y-51929489D01*
X145716603Y-52093361D01*
X145716609Y-52093369D01*
X145855970Y-52232730D01*
X145855978Y-52232736D01*
X146019851Y-52342232D01*
X146019854Y-52342234D01*
X146201942Y-52417656D01*
X146243800Y-52425982D01*
X146243800Y-50639311D01*
X146300660Y-50672140D01*
X146427924Y-50706240D01*
X146559676Y-50706240D01*
X146686940Y-50672140D01*
X146743800Y-50639311D01*
X146743800Y-52425982D01*
X146785656Y-52417656D01*
X146785658Y-52417656D01*
X146967745Y-52342234D01*
X146967748Y-52342232D01*
X147131621Y-52232736D01*
X147131629Y-52232730D01*
X147270990Y-52093369D01*
X147270996Y-52093361D01*
X147380492Y-51929489D01*
X147455917Y-51747395D01*
X147455919Y-51747389D01*
X147494370Y-51554090D01*
X147494370Y-50455860D01*
X146927252Y-50455860D01*
X146960080Y-50399000D01*
X146994180Y-50271736D01*
X146994180Y-50139984D01*
X146960080Y-50012720D01*
X146927252Y-49955860D01*
X147494370Y-49955860D01*
X147494370Y-48857629D01*
X147455919Y-48664330D01*
X147455917Y-48664324D01*
X147380492Y-48482230D01*
X147270996Y-48318358D01*
X147270990Y-48318350D01*
X147131629Y-48178989D01*
X147131621Y-48178983D01*
X146967748Y-48069487D01*
X146967749Y-48069487D01*
X146780027Y-47991731D01*
X146780695Y-47990117D01*
X146729189Y-47956363D01*
X146700733Y-47892551D01*
X146711293Y-47823484D01*
X146757517Y-47771091D01*
X146823623Y-47752000D01*
X148703977Y-47752000D01*
X148771016Y-47771685D01*
X148816771Y-47824489D01*
X148826715Y-47893647D01*
X148797690Y-47957203D01*
X148746919Y-47990152D01*
X148747573Y-47991731D01*
X148559850Y-48069487D01*
X148395978Y-48178983D01*
X148395970Y-48178989D01*
X148256609Y-48318350D01*
X148256603Y-48318358D01*
X148147107Y-48482230D01*
X148071682Y-48664324D01*
X148071680Y-48664330D01*
X148033230Y-48857629D01*
X148033230Y-49955860D01*
X148600348Y-49955860D01*
X148567520Y-50012720D01*
X148533420Y-50139984D01*
X148533420Y-50271736D01*
X148567520Y-50399000D01*
X148600348Y-50455860D01*
X148033230Y-50455860D01*
X148033230Y-51554090D01*
X148033229Y-51554090D01*
X148071680Y-51747389D01*
X148071682Y-51747395D01*
X148147107Y-51929489D01*
X148256603Y-52093361D01*
X148256609Y-52093369D01*
X148395970Y-52232730D01*
X148395978Y-52232736D01*
X148559851Y-52342232D01*
X148559854Y-52342234D01*
X148741942Y-52417656D01*
X148783800Y-52425982D01*
X148783800Y-50639311D01*
X148840660Y-50672140D01*
X148967924Y-50706240D01*
X149099676Y-50706240D01*
X149226940Y-50672140D01*
X149283800Y-50639311D01*
X149283800Y-52425982D01*
X149325656Y-52417656D01*
X149325658Y-52417656D01*
X149507745Y-52342234D01*
X149507748Y-52342232D01*
X149671621Y-52232736D01*
X149671629Y-52232730D01*
X149810990Y-52093369D01*
X149810996Y-52093361D01*
X149920492Y-51929489D01*
X149995917Y-51747395D01*
X149995919Y-51747389D01*
X150034370Y-51554090D01*
X150034370Y-50455860D01*
X149467252Y-50455860D01*
X149500080Y-50399000D01*
X149534180Y-50271736D01*
X149534180Y-50139984D01*
X149500080Y-50012720D01*
X149467252Y-49955860D01*
X150034370Y-49955860D01*
X150034370Y-48857629D01*
X149995919Y-48664330D01*
X149995917Y-48664324D01*
X149920492Y-48482230D01*
X149810996Y-48318358D01*
X149810990Y-48318350D01*
X149671629Y-48178989D01*
X149671621Y-48178983D01*
X149507748Y-48069487D01*
X149507749Y-48069487D01*
X149320027Y-47991731D01*
X149320695Y-47990117D01*
X149269189Y-47956363D01*
X149240733Y-47892551D01*
X149251293Y-47823484D01*
X149297517Y-47771091D01*
X149363623Y-47752000D01*
X151242242Y-47752000D01*
X151309281Y-47771685D01*
X151355036Y-47824489D01*
X151364980Y-47893647D01*
X151335955Y-47957203D01*
X151286593Y-47989237D01*
X151287427Y-47991249D01*
X151099617Y-48069041D01*
X151099608Y-48069046D01*
X150935655Y-48178597D01*
X150935651Y-48178600D01*
X150796220Y-48318031D01*
X150796217Y-48318035D01*
X150686666Y-48481988D01*
X150686661Y-48481997D01*
X150611200Y-48664178D01*
X150611198Y-48664186D01*
X150572730Y-48857578D01*
X150572730Y-51554141D01*
X150611198Y-51747533D01*
X150611200Y-51747541D01*
X150686661Y-51929722D01*
X150686666Y-51929731D01*
X150796217Y-52093684D01*
X150796220Y-52093688D01*
X150935651Y-52233119D01*
X150935655Y-52233122D01*
X151099608Y-52342673D01*
X151099614Y-52342676D01*
X151099615Y-52342677D01*
X151281799Y-52418140D01*
X151475198Y-52456609D01*
X151475202Y-52456610D01*
X151475203Y-52456610D01*
X151672398Y-52456610D01*
X151672399Y-52456609D01*
X151865801Y-52418140D01*
X152047985Y-52342677D01*
X152211945Y-52233122D01*
X152351382Y-52093685D01*
X152460937Y-51929725D01*
X152536400Y-51747541D01*
X152574870Y-51554137D01*
X152574870Y-48857583D01*
X152536400Y-48664179D01*
X152478033Y-48523268D01*
X152460938Y-48481997D01*
X152460933Y-48481988D01*
X152351382Y-48318035D01*
X152351379Y-48318031D01*
X152211948Y-48178600D01*
X152211944Y-48178597D01*
X152047991Y-48069046D01*
X152047982Y-48069041D01*
X151860173Y-47991249D01*
X151861023Y-47989195D01*
X151810924Y-47956363D01*
X151782467Y-47892550D01*
X151793028Y-47823483D01*
X151839253Y-47771090D01*
X151905358Y-47752000D01*
X153783977Y-47752000D01*
X153851016Y-47771685D01*
X153896771Y-47824489D01*
X153906715Y-47893647D01*
X153877690Y-47957203D01*
X153826919Y-47990152D01*
X153827573Y-47991731D01*
X153639850Y-48069487D01*
X153475978Y-48178983D01*
X153475970Y-48178989D01*
X153336609Y-48318350D01*
X153336603Y-48318358D01*
X153227107Y-48482230D01*
X153151682Y-48664324D01*
X153151680Y-48664330D01*
X153113230Y-48857629D01*
X153113230Y-49955860D01*
X153680348Y-49955860D01*
X153647520Y-50012720D01*
X153613420Y-50139984D01*
X153613420Y-50271736D01*
X153647520Y-50399000D01*
X153680348Y-50455860D01*
X153113230Y-50455860D01*
X153113230Y-51554090D01*
X153113229Y-51554090D01*
X153151680Y-51747389D01*
X153151682Y-51747395D01*
X153227107Y-51929489D01*
X153336603Y-52093361D01*
X153336609Y-52093369D01*
X153475970Y-52232730D01*
X153475978Y-52232736D01*
X153639851Y-52342232D01*
X153639854Y-52342234D01*
X153821942Y-52417656D01*
X153863800Y-52425982D01*
X153863800Y-50639311D01*
X153920660Y-50672140D01*
X154047924Y-50706240D01*
X154179676Y-50706240D01*
X154306940Y-50672140D01*
X154363800Y-50639311D01*
X154363800Y-52425982D01*
X154405656Y-52417656D01*
X154405658Y-52417656D01*
X154587745Y-52342234D01*
X154587748Y-52342232D01*
X154751621Y-52232736D01*
X154751629Y-52232730D01*
X154890990Y-52093369D01*
X154890996Y-52093361D01*
X155000492Y-51929489D01*
X155075917Y-51747395D01*
X155075919Y-51747389D01*
X155114370Y-51554090D01*
X155114370Y-50455860D01*
X154547252Y-50455860D01*
X154580080Y-50399000D01*
X154614180Y-50271736D01*
X154614180Y-50139984D01*
X154580080Y-50012720D01*
X154547252Y-49955860D01*
X155114370Y-49955860D01*
X155114370Y-48857629D01*
X155075919Y-48664330D01*
X155075917Y-48664324D01*
X155000492Y-48482230D01*
X154890996Y-48318358D01*
X154890990Y-48318350D01*
X154751629Y-48178989D01*
X154751621Y-48178983D01*
X154587748Y-48069487D01*
X154587749Y-48069487D01*
X154400027Y-47991731D01*
X154400695Y-47990117D01*
X154349189Y-47956363D01*
X154320733Y-47892551D01*
X154331293Y-47823484D01*
X154377517Y-47771091D01*
X154443623Y-47752000D01*
X156322242Y-47752000D01*
X156389281Y-47771685D01*
X156435036Y-47824489D01*
X156444980Y-47893647D01*
X156415955Y-47957203D01*
X156366593Y-47989237D01*
X156367427Y-47991249D01*
X156179617Y-48069041D01*
X156179608Y-48069046D01*
X156015655Y-48178597D01*
X156015651Y-48178600D01*
X155876220Y-48318031D01*
X155876217Y-48318035D01*
X155766666Y-48481988D01*
X155766661Y-48481997D01*
X155691200Y-48664178D01*
X155691198Y-48664186D01*
X155652730Y-48857578D01*
X155652730Y-51554141D01*
X155691198Y-51747533D01*
X155691200Y-51747541D01*
X155766661Y-51929722D01*
X155766666Y-51929731D01*
X155876217Y-52093684D01*
X155876220Y-52093688D01*
X156015651Y-52233119D01*
X156015655Y-52233122D01*
X156179608Y-52342673D01*
X156179614Y-52342676D01*
X156179615Y-52342677D01*
X156361799Y-52418140D01*
X156555198Y-52456609D01*
X156555202Y-52456610D01*
X156555203Y-52456610D01*
X156752398Y-52456610D01*
X156752399Y-52456609D01*
X156945801Y-52418140D01*
X157127985Y-52342677D01*
X157291945Y-52233122D01*
X157431382Y-52093685D01*
X157540937Y-51929725D01*
X157616400Y-51747541D01*
X157654870Y-51554137D01*
X157654870Y-48857583D01*
X157616400Y-48664179D01*
X157558033Y-48523268D01*
X157540938Y-48481997D01*
X157540933Y-48481988D01*
X157431382Y-48318035D01*
X157431379Y-48318031D01*
X157291948Y-48178600D01*
X157291944Y-48178597D01*
X157127991Y-48069046D01*
X157127982Y-48069041D01*
X156940173Y-47991249D01*
X156941023Y-47989195D01*
X156890924Y-47956363D01*
X156862467Y-47892550D01*
X156873028Y-47823483D01*
X156919253Y-47771090D01*
X156985358Y-47752000D01*
X158862242Y-47752000D01*
X158929281Y-47771685D01*
X158975036Y-47824489D01*
X158984980Y-47893647D01*
X158955955Y-47957203D01*
X158906593Y-47989237D01*
X158907427Y-47991249D01*
X158719617Y-48069041D01*
X158719608Y-48069046D01*
X158555655Y-48178597D01*
X158555651Y-48178600D01*
X158416220Y-48318031D01*
X158416217Y-48318035D01*
X158306666Y-48481988D01*
X158306661Y-48481997D01*
X158231200Y-48664178D01*
X158231198Y-48664186D01*
X158192730Y-48857578D01*
X158192730Y-51554141D01*
X158231198Y-51747533D01*
X158231200Y-51747541D01*
X158306661Y-51929722D01*
X158306666Y-51929731D01*
X158416217Y-52093684D01*
X158416220Y-52093688D01*
X158555651Y-52233119D01*
X158555655Y-52233122D01*
X158719608Y-52342673D01*
X158719614Y-52342676D01*
X158719615Y-52342677D01*
X158901799Y-52418140D01*
X159095198Y-52456609D01*
X159095202Y-52456610D01*
X159095203Y-52456610D01*
X159292398Y-52456610D01*
X159292399Y-52456609D01*
X159485801Y-52418140D01*
X159667985Y-52342677D01*
X159831945Y-52233122D01*
X159971382Y-52093685D01*
X160080937Y-51929725D01*
X160156400Y-51747541D01*
X160194870Y-51554137D01*
X160194870Y-48857583D01*
X160156400Y-48664179D01*
X160098033Y-48523268D01*
X160080938Y-48481997D01*
X160080933Y-48481988D01*
X159971382Y-48318035D01*
X159971379Y-48318031D01*
X159831948Y-48178600D01*
X159831944Y-48178597D01*
X159667991Y-48069046D01*
X159667982Y-48069041D01*
X159480173Y-47991249D01*
X159481023Y-47989195D01*
X159430924Y-47956363D01*
X159402467Y-47892550D01*
X159413028Y-47823483D01*
X159459253Y-47771090D01*
X159525358Y-47752000D01*
X161402242Y-47752000D01*
X161469281Y-47771685D01*
X161515036Y-47824489D01*
X161524980Y-47893647D01*
X161495955Y-47957203D01*
X161446593Y-47989237D01*
X161447427Y-47991249D01*
X161259617Y-48069041D01*
X161259608Y-48069046D01*
X161095655Y-48178597D01*
X161095651Y-48178600D01*
X160956220Y-48318031D01*
X160956217Y-48318035D01*
X160846666Y-48481988D01*
X160846661Y-48481997D01*
X160771200Y-48664178D01*
X160771198Y-48664186D01*
X160732730Y-48857578D01*
X160732730Y-51554141D01*
X160771198Y-51747533D01*
X160771200Y-51747541D01*
X160846661Y-51929722D01*
X160846666Y-51929731D01*
X160956217Y-52093684D01*
X160956220Y-52093688D01*
X161095651Y-52233119D01*
X161095655Y-52233122D01*
X161259608Y-52342673D01*
X161259614Y-52342676D01*
X161259615Y-52342677D01*
X161441799Y-52418140D01*
X161635198Y-52456609D01*
X161635202Y-52456610D01*
X161635203Y-52456610D01*
X161832398Y-52456610D01*
X161832399Y-52456609D01*
X162025801Y-52418140D01*
X162207985Y-52342677D01*
X162371945Y-52233122D01*
X162511382Y-52093685D01*
X162620937Y-51929725D01*
X162696400Y-51747541D01*
X162734870Y-51554137D01*
X162734870Y-48857583D01*
X162696400Y-48664179D01*
X162638033Y-48523268D01*
X162620938Y-48481997D01*
X162620933Y-48481988D01*
X162511382Y-48318035D01*
X162511379Y-48318031D01*
X162371948Y-48178600D01*
X162371944Y-48178597D01*
X162207991Y-48069046D01*
X162207982Y-48069041D01*
X162020173Y-47991249D01*
X162021023Y-47989195D01*
X161970924Y-47956363D01*
X161942467Y-47892550D01*
X161953028Y-47823483D01*
X161999253Y-47771090D01*
X162065358Y-47752000D01*
X163943977Y-47752000D01*
X164011016Y-47771685D01*
X164056771Y-47824489D01*
X164066715Y-47893647D01*
X164037690Y-47957203D01*
X163986919Y-47990152D01*
X163987573Y-47991731D01*
X163799850Y-48069487D01*
X163635978Y-48178983D01*
X163635970Y-48178989D01*
X163496609Y-48318350D01*
X163496603Y-48318358D01*
X163387107Y-48482230D01*
X163311682Y-48664324D01*
X163311680Y-48664330D01*
X163273230Y-48857629D01*
X163273230Y-49955860D01*
X163840348Y-49955860D01*
X163807520Y-50012720D01*
X163773420Y-50139984D01*
X163773420Y-50271736D01*
X163807520Y-50399000D01*
X163840348Y-50455860D01*
X163273230Y-50455860D01*
X163273230Y-51554090D01*
X163273229Y-51554090D01*
X163311680Y-51747389D01*
X163311682Y-51747395D01*
X163387107Y-51929489D01*
X163496603Y-52093361D01*
X163496609Y-52093369D01*
X163635970Y-52232730D01*
X163635978Y-52232736D01*
X163799851Y-52342232D01*
X163799854Y-52342234D01*
X163981942Y-52417656D01*
X164023800Y-52425982D01*
X164023800Y-50639311D01*
X164080660Y-50672140D01*
X164207924Y-50706240D01*
X164339676Y-50706240D01*
X164466940Y-50672140D01*
X164523800Y-50639311D01*
X164523800Y-52425982D01*
X164565656Y-52417656D01*
X164565658Y-52417656D01*
X164747745Y-52342234D01*
X164747748Y-52342232D01*
X164911621Y-52232736D01*
X164911629Y-52232730D01*
X165050990Y-52093369D01*
X165050996Y-52093361D01*
X165160492Y-51929489D01*
X165235917Y-51747395D01*
X165235919Y-51747389D01*
X165274370Y-51554090D01*
X165274370Y-50455860D01*
X164707252Y-50455860D01*
X164740080Y-50399000D01*
X164774180Y-50271736D01*
X164774180Y-50177258D01*
X169953500Y-50177258D01*
X169953500Y-50406741D01*
X169978446Y-50596215D01*
X169983452Y-50634238D01*
X169983453Y-50634240D01*
X170042842Y-50855887D01*
X170130650Y-51067876D01*
X170130657Y-51067890D01*
X170245392Y-51266617D01*
X170385081Y-51448661D01*
X170385089Y-51448670D01*
X170547330Y-51610911D01*
X170547338Y-51610918D01*
X170729382Y-51750607D01*
X170729385Y-51750608D01*
X170729388Y-51750611D01*
X170928112Y-51865344D01*
X170928117Y-51865346D01*
X170928123Y-51865349D01*
X171019480Y-51903190D01*
X171140113Y-51953158D01*
X171361762Y-52012548D01*
X171589266Y-52042500D01*
X171589273Y-52042500D01*
X171818727Y-52042500D01*
X171818734Y-52042500D01*
X172046238Y-52012548D01*
X172267887Y-51953158D01*
X172479888Y-51865344D01*
X172678612Y-51750611D01*
X172860661Y-51610919D01*
X172860665Y-51610914D01*
X172860670Y-51610911D01*
X173022911Y-51448670D01*
X173022914Y-51448665D01*
X173022919Y-51448661D01*
X173162611Y-51266612D01*
X173277344Y-51067888D01*
X173365158Y-50855887D01*
X173424548Y-50634238D01*
X173454500Y-50406734D01*
X173454500Y-50177266D01*
X173424548Y-49949762D01*
X173365158Y-49728113D01*
X173277344Y-49516112D01*
X173162611Y-49317388D01*
X173162608Y-49317385D01*
X173162607Y-49317382D01*
X173022918Y-49135338D01*
X173022911Y-49135330D01*
X172860670Y-48973089D01*
X172860661Y-48973081D01*
X172678617Y-48833392D01*
X172479890Y-48718657D01*
X172479876Y-48718650D01*
X172267887Y-48630842D01*
X172046238Y-48571452D01*
X172008215Y-48566446D01*
X171818741Y-48541500D01*
X171818734Y-48541500D01*
X171589266Y-48541500D01*
X171589258Y-48541500D01*
X171372715Y-48570009D01*
X171361762Y-48571452D01*
X171268076Y-48596554D01*
X171140112Y-48630842D01*
X170928123Y-48718650D01*
X170928109Y-48718657D01*
X170729382Y-48833392D01*
X170547338Y-48973081D01*
X170385081Y-49135338D01*
X170245392Y-49317382D01*
X170130657Y-49516109D01*
X170130650Y-49516123D01*
X170042842Y-49728112D01*
X169983453Y-49949759D01*
X169983451Y-49949770D01*
X169953500Y-50177258D01*
X164774180Y-50177258D01*
X164774180Y-50139984D01*
X164740080Y-50012720D01*
X164707252Y-49955860D01*
X165274370Y-49955860D01*
X165274370Y-48857629D01*
X165235919Y-48664330D01*
X165235917Y-48664324D01*
X165160492Y-48482230D01*
X165050996Y-48318358D01*
X165050990Y-48318350D01*
X164911629Y-48178989D01*
X164911621Y-48178983D01*
X164747748Y-48069487D01*
X164747749Y-48069487D01*
X164560027Y-47991731D01*
X164560695Y-47990117D01*
X164509189Y-47956363D01*
X164480733Y-47892551D01*
X164491293Y-47823484D01*
X164537517Y-47771091D01*
X164603623Y-47752000D01*
X174120000Y-47752000D01*
X174187039Y-47771685D01*
X174232794Y-47824489D01*
X174244000Y-47876000D01*
X174244000Y-107572000D01*
X174224315Y-107639039D01*
X174171511Y-107684794D01*
X174120000Y-107696000D01*
X75129500Y-107696000D01*
X75062461Y-107676315D01*
X75016706Y-107623511D01*
X75005500Y-107572000D01*
X75005500Y-105041258D01*
X76481500Y-105041258D01*
X76481500Y-105270741D01*
X76506446Y-105460215D01*
X76511452Y-105498238D01*
X76511453Y-105498240D01*
X76570842Y-105719887D01*
X76658650Y-105931876D01*
X76658657Y-105931890D01*
X76773392Y-106130617D01*
X76913081Y-106312661D01*
X76913089Y-106312670D01*
X77075330Y-106474911D01*
X77075338Y-106474918D01*
X77257382Y-106614607D01*
X77257385Y-106614608D01*
X77257388Y-106614611D01*
X77456112Y-106729344D01*
X77456117Y-106729346D01*
X77456123Y-106729349D01*
X77547480Y-106767190D01*
X77668113Y-106817158D01*
X77889762Y-106876548D01*
X78117266Y-106906500D01*
X78117273Y-106906500D01*
X78346727Y-106906500D01*
X78346734Y-106906500D01*
X78574238Y-106876548D01*
X78795887Y-106817158D01*
X79007888Y-106729344D01*
X79206612Y-106614611D01*
X79388661Y-106474919D01*
X79388665Y-106474914D01*
X79388670Y-106474911D01*
X79550911Y-106312670D01*
X79550914Y-106312665D01*
X79550919Y-106312661D01*
X79690611Y-106130612D01*
X79805344Y-105931888D01*
X79893158Y-105719887D01*
X79952548Y-105498238D01*
X79982500Y-105270734D01*
X79982500Y-105041266D01*
X79982499Y-105041258D01*
X169953500Y-105041258D01*
X169953500Y-105270741D01*
X169978446Y-105460215D01*
X169983452Y-105498238D01*
X169983453Y-105498240D01*
X170042842Y-105719887D01*
X170130650Y-105931876D01*
X170130657Y-105931890D01*
X170245392Y-106130617D01*
X170385081Y-106312661D01*
X170385089Y-106312670D01*
X170547330Y-106474911D01*
X170547338Y-106474918D01*
X170729382Y-106614607D01*
X170729385Y-106614608D01*
X170729388Y-106614611D01*
X170928112Y-106729344D01*
X170928117Y-106729346D01*
X170928123Y-106729349D01*
X171019480Y-106767190D01*
X171140113Y-106817158D01*
X171361762Y-106876548D01*
X171589266Y-106906500D01*
X171589273Y-106906500D01*
X171818727Y-106906500D01*
X171818734Y-106906500D01*
X172046238Y-106876548D01*
X172267887Y-106817158D01*
X172479888Y-106729344D01*
X172678612Y-106614611D01*
X172860661Y-106474919D01*
X172860665Y-106474914D01*
X172860670Y-106474911D01*
X173022911Y-106312670D01*
X173022914Y-106312665D01*
X173022919Y-106312661D01*
X173162611Y-106130612D01*
X173277344Y-105931888D01*
X173365158Y-105719887D01*
X173424548Y-105498238D01*
X173454500Y-105270734D01*
X173454500Y-105041266D01*
X173424548Y-104813762D01*
X173365158Y-104592113D01*
X173277344Y-104380112D01*
X173162611Y-104181388D01*
X173162608Y-104181385D01*
X173162607Y-104181382D01*
X173061764Y-104049962D01*
X173022919Y-103999339D01*
X173022918Y-103999338D01*
X173022911Y-103999330D01*
X172860670Y-103837089D01*
X172860661Y-103837081D01*
X172678617Y-103697392D01*
X172479890Y-103582657D01*
X172479876Y-103582650D01*
X172267887Y-103494842D01*
X172046238Y-103435452D01*
X172008215Y-103430446D01*
X171818741Y-103405500D01*
X171818734Y-103405500D01*
X171589266Y-103405500D01*
X171589258Y-103405500D01*
X171372715Y-103434009D01*
X171361762Y-103435452D01*
X171268076Y-103460554D01*
X171140112Y-103494842D01*
X170928123Y-103582650D01*
X170928109Y-103582657D01*
X170729382Y-103697392D01*
X170547338Y-103837081D01*
X170385081Y-103999338D01*
X170245392Y-104181382D01*
X170130657Y-104380109D01*
X170130650Y-104380123D01*
X170042842Y-104592112D01*
X169983453Y-104813759D01*
X169983451Y-104813770D01*
X169953500Y-105041258D01*
X79982499Y-105041258D01*
X79952548Y-104813762D01*
X79893158Y-104592113D01*
X79805344Y-104380112D01*
X79690611Y-104181388D01*
X79690608Y-104181385D01*
X79690607Y-104181382D01*
X79589764Y-104049962D01*
X79550919Y-103999339D01*
X79550918Y-103999338D01*
X79550911Y-103999330D01*
X79388670Y-103837089D01*
X79388661Y-103837081D01*
X79206617Y-103697392D01*
X79007890Y-103582657D01*
X79007876Y-103582650D01*
X78795887Y-103494842D01*
X78574238Y-103435452D01*
X78536215Y-103430446D01*
X78346741Y-103405500D01*
X78346734Y-103405500D01*
X78117266Y-103405500D01*
X78117258Y-103405500D01*
X77900715Y-103434009D01*
X77889762Y-103435452D01*
X77796076Y-103460554D01*
X77668112Y-103494842D01*
X77456123Y-103582650D01*
X77456109Y-103582657D01*
X77257382Y-103697392D01*
X77075338Y-103837081D01*
X76913081Y-103999338D01*
X76773392Y-104181382D01*
X76658657Y-104380109D01*
X76658650Y-104380123D01*
X76570842Y-104592112D01*
X76511453Y-104813759D01*
X76511451Y-104813770D01*
X76481500Y-105041258D01*
X75005500Y-105041258D01*
X75005500Y-101682038D01*
X87771500Y-101682038D01*
X87771500Y-102533961D01*
X87810910Y-102782785D01*
X87888760Y-103022383D01*
X88003132Y-103246848D01*
X88151201Y-103450649D01*
X88151205Y-103450654D01*
X88329345Y-103628794D01*
X88329350Y-103628798D01*
X88507117Y-103757952D01*
X88533155Y-103776870D01*
X88651326Y-103837081D01*
X88757616Y-103891239D01*
X88757618Y-103891239D01*
X88757621Y-103891241D01*
X88997215Y-103969090D01*
X89246038Y-104008500D01*
X89246039Y-104008500D01*
X89497961Y-104008500D01*
X89497962Y-104008500D01*
X89746785Y-103969090D01*
X89986379Y-103891241D01*
X90210845Y-103776870D01*
X90414656Y-103628793D01*
X90592793Y-103450656D01*
X90740870Y-103246845D01*
X90855241Y-103022379D01*
X90933090Y-102782785D01*
X90972500Y-102533962D01*
X90972500Y-101682038D01*
X91971500Y-101682038D01*
X91971500Y-102533961D01*
X92010910Y-102782785D01*
X92088760Y-103022383D01*
X92203132Y-103246848D01*
X92351201Y-103450649D01*
X92351205Y-103450654D01*
X92529345Y-103628794D01*
X92529350Y-103628798D01*
X92707117Y-103757952D01*
X92733155Y-103776870D01*
X92851326Y-103837081D01*
X92957616Y-103891239D01*
X92957618Y-103891239D01*
X92957621Y-103891241D01*
X93197215Y-103969090D01*
X93446038Y-104008500D01*
X93446039Y-104008500D01*
X93697961Y-104008500D01*
X93697962Y-104008500D01*
X93946785Y-103969090D01*
X94186379Y-103891241D01*
X94410845Y-103776870D01*
X94614656Y-103628793D01*
X94792793Y-103450656D01*
X94940870Y-103246845D01*
X95055241Y-103022379D01*
X95133090Y-102782785D01*
X95172500Y-102533962D01*
X95172500Y-101682038D01*
X96171500Y-101682038D01*
X96171500Y-102533961D01*
X96210910Y-102782785D01*
X96288760Y-103022383D01*
X96403132Y-103246848D01*
X96551201Y-103450649D01*
X96551205Y-103450654D01*
X96729345Y-103628794D01*
X96729350Y-103628798D01*
X96907117Y-103757952D01*
X96933155Y-103776870D01*
X97051326Y-103837081D01*
X97157616Y-103891239D01*
X97157618Y-103891239D01*
X97157621Y-103891241D01*
X97397215Y-103969090D01*
X97646038Y-104008500D01*
X97646039Y-104008500D01*
X97897961Y-104008500D01*
X97897962Y-104008500D01*
X98146785Y-103969090D01*
X98386379Y-103891241D01*
X98610845Y-103776870D01*
X98814656Y-103628793D01*
X98992793Y-103450656D01*
X99140870Y-103246845D01*
X99255241Y-103022379D01*
X99333090Y-102782785D01*
X99372500Y-102533962D01*
X99372500Y-101682071D01*
X100372000Y-101682071D01*
X100372000Y-101858000D01*
X101317879Y-101858000D01*
X101298901Y-101903818D01*
X101272000Y-102039056D01*
X101272000Y-102176944D01*
X101298901Y-102312182D01*
X101317879Y-102358000D01*
X100372000Y-102358000D01*
X100372000Y-102533928D01*
X100411397Y-102782669D01*
X100489219Y-103022184D01*
X100603557Y-103246583D01*
X100751590Y-103450331D01*
X100751590Y-103450332D01*
X100929667Y-103628409D01*
X101133416Y-103776442D01*
X101357815Y-103890780D01*
X101597329Y-103968602D01*
X101722000Y-103988348D01*
X101722000Y-102762120D01*
X101767818Y-102781099D01*
X101903056Y-102808000D01*
X102040944Y-102808000D01*
X102176182Y-102781099D01*
X102222000Y-102762120D01*
X102222000Y-103988347D01*
X102346668Y-103968602D01*
X102346671Y-103968602D01*
X102586184Y-103890780D01*
X102810583Y-103776442D01*
X103014331Y-103628409D01*
X103014332Y-103628409D01*
X103192409Y-103450332D01*
X103192409Y-103450331D01*
X103340442Y-103246583D01*
X103454780Y-103022184D01*
X103532602Y-102782669D01*
X103572000Y-102533928D01*
X103572000Y-102358000D01*
X102626121Y-102358000D01*
X102645099Y-102312182D01*
X102672000Y-102176944D01*
X102672000Y-102039056D01*
X102645099Y-101903818D01*
X102626121Y-101858000D01*
X103572000Y-101858000D01*
X103572000Y-101682071D01*
X103571995Y-101682038D01*
X104571500Y-101682038D01*
X104571500Y-102533961D01*
X104610910Y-102782785D01*
X104688760Y-103022383D01*
X104803132Y-103246848D01*
X104951201Y-103450649D01*
X104951205Y-103450654D01*
X105129345Y-103628794D01*
X105129350Y-103628798D01*
X105307117Y-103757952D01*
X105333155Y-103776870D01*
X105451326Y-103837081D01*
X105557616Y-103891239D01*
X105557618Y-103891239D01*
X105557621Y-103891241D01*
X105797215Y-103969090D01*
X106046038Y-104008500D01*
X106046039Y-104008500D01*
X106297961Y-104008500D01*
X106297962Y-104008500D01*
X106546785Y-103969090D01*
X106786379Y-103891241D01*
X107010845Y-103776870D01*
X107214656Y-103628793D01*
X107392793Y-103450656D01*
X107540870Y-103246845D01*
X107655241Y-103022379D01*
X107733090Y-102782785D01*
X107772500Y-102533962D01*
X107772500Y-101682038D01*
X107733090Y-101433215D01*
X107655241Y-101193621D01*
X107655239Y-101193618D01*
X107655239Y-101193616D01*
X107613747Y-101112184D01*
X107540870Y-100969155D01*
X107521952Y-100943117D01*
X107392798Y-100765350D01*
X107392794Y-100765345D01*
X107214654Y-100587205D01*
X107214649Y-100587201D01*
X107010848Y-100439132D01*
X107010847Y-100439131D01*
X107010845Y-100439130D01*
X106940747Y-100403413D01*
X106786383Y-100324760D01*
X106546785Y-100246910D01*
X106425183Y-100227650D01*
X106297962Y-100207500D01*
X106046038Y-100207500D01*
X105921626Y-100227205D01*
X105797214Y-100246910D01*
X105557616Y-100324760D01*
X105333151Y-100439132D01*
X105129350Y-100587201D01*
X105129345Y-100587205D01*
X104951205Y-100765345D01*
X104951201Y-100765350D01*
X104803132Y-100969151D01*
X104688760Y-101193616D01*
X104610910Y-101433214D01*
X104571500Y-101682038D01*
X103571995Y-101682038D01*
X103532602Y-101433330D01*
X103454780Y-101193815D01*
X103340442Y-100969416D01*
X103192409Y-100765668D01*
X103192409Y-100765667D01*
X103014332Y-100587590D01*
X102810583Y-100439557D01*
X102586184Y-100325219D01*
X102346670Y-100247397D01*
X102222000Y-100227650D01*
X102222000Y-101453879D01*
X102176182Y-101434901D01*
X102040944Y-101408000D01*
X101903056Y-101408000D01*
X101767818Y-101434901D01*
X101722000Y-101453879D01*
X101722000Y-100227650D01*
X101597330Y-100247397D01*
X101597327Y-100247397D01*
X101357815Y-100325219D01*
X101133416Y-100439557D01*
X100929668Y-100587590D01*
X100929667Y-100587590D01*
X100751590Y-100765667D01*
X100751590Y-100765668D01*
X100603557Y-100969416D01*
X100489219Y-101193815D01*
X100411397Y-101433330D01*
X100372000Y-101682071D01*
X99372500Y-101682071D01*
X99372500Y-101682038D01*
X99333090Y-101433215D01*
X99255241Y-101193621D01*
X99255239Y-101193618D01*
X99255239Y-101193616D01*
X99213747Y-101112184D01*
X99140870Y-100969155D01*
X99121952Y-100943117D01*
X98992798Y-100765350D01*
X98992794Y-100765345D01*
X98814654Y-100587205D01*
X98814649Y-100587201D01*
X98610848Y-100439132D01*
X98610847Y-100439131D01*
X98610845Y-100439130D01*
X98540747Y-100403413D01*
X98386383Y-100324760D01*
X98146785Y-100246910D01*
X98025183Y-100227650D01*
X97897962Y-100207500D01*
X97646038Y-100207500D01*
X97521626Y-100227205D01*
X97397214Y-100246910D01*
X97157616Y-100324760D01*
X96933151Y-100439132D01*
X96729350Y-100587201D01*
X96729345Y-100587205D01*
X96551205Y-100765345D01*
X96551201Y-100765350D01*
X96403132Y-100969151D01*
X96288760Y-101193616D01*
X96210910Y-101433214D01*
X96171500Y-101682038D01*
X95172500Y-101682038D01*
X95133090Y-101433215D01*
X95055241Y-101193621D01*
X95055239Y-101193618D01*
X95055239Y-101193616D01*
X95013747Y-101112184D01*
X94940870Y-100969155D01*
X94921952Y-100943117D01*
X94792798Y-100765350D01*
X94792794Y-100765345D01*
X94614654Y-100587205D01*
X94614649Y-100587201D01*
X94410848Y-100439132D01*
X94410847Y-100439131D01*
X94410845Y-100439130D01*
X94340747Y-100403413D01*
X94186383Y-100324760D01*
X93946785Y-100246910D01*
X93825183Y-100227650D01*
X93697962Y-100207500D01*
X93446038Y-100207500D01*
X93321626Y-100227205D01*
X93197214Y-100246910D01*
X92957616Y-100324760D01*
X92733151Y-100439132D01*
X92529350Y-100587201D01*
X92529345Y-100587205D01*
X92351205Y-100765345D01*
X92351201Y-100765350D01*
X92203132Y-100969151D01*
X92088760Y-101193616D01*
X92010910Y-101433214D01*
X91971500Y-101682038D01*
X90972500Y-101682038D01*
X90933090Y-101433215D01*
X90855241Y-101193621D01*
X90855239Y-101193618D01*
X90855239Y-101193616D01*
X90813747Y-101112184D01*
X90740870Y-100969155D01*
X90721952Y-100943117D01*
X90592798Y-100765350D01*
X90592794Y-100765345D01*
X90414654Y-100587205D01*
X90414649Y-100587201D01*
X90210848Y-100439132D01*
X90210847Y-100439131D01*
X90210845Y-100439130D01*
X90140747Y-100403413D01*
X89986383Y-100324760D01*
X89746785Y-100246910D01*
X89625183Y-100227650D01*
X89497962Y-100207500D01*
X89246038Y-100207500D01*
X89121626Y-100227205D01*
X88997214Y-100246910D01*
X88757616Y-100324760D01*
X88533151Y-100439132D01*
X88329350Y-100587201D01*
X88329345Y-100587205D01*
X88151205Y-100765345D01*
X88151201Y-100765350D01*
X88003132Y-100969151D01*
X87888760Y-101193616D01*
X87810910Y-101433214D01*
X87771500Y-101682038D01*
X75005500Y-101682038D01*
X75005500Y-89829389D01*
X169587500Y-89829389D01*
X169587500Y-90002611D01*
X169614598Y-90173701D01*
X169668127Y-90338445D01*
X169746768Y-90492788D01*
X169848586Y-90632928D01*
X169971072Y-90755414D01*
X170111212Y-90857232D01*
X170265555Y-90935873D01*
X170430299Y-90989402D01*
X170601389Y-91016500D01*
X170601390Y-91016500D01*
X170774610Y-91016500D01*
X170774611Y-91016500D01*
X170945701Y-90989402D01*
X171110445Y-90935873D01*
X171264788Y-90857232D01*
X171404928Y-90755414D01*
X171527414Y-90632928D01*
X171629232Y-90492788D01*
X171707873Y-90338445D01*
X171761402Y-90173701D01*
X171788500Y-90002611D01*
X171788500Y-89829389D01*
X171761402Y-89658299D01*
X171707873Y-89493555D01*
X171629232Y-89339212D01*
X171527414Y-89199072D01*
X171404928Y-89076586D01*
X171264788Y-88974768D01*
X171110445Y-88896127D01*
X170945701Y-88842598D01*
X170945699Y-88842597D01*
X170945698Y-88842597D01*
X170814271Y-88821781D01*
X170774611Y-88815500D01*
X170601389Y-88815500D01*
X170561728Y-88821781D01*
X170430302Y-88842597D01*
X170265552Y-88896128D01*
X170111211Y-88974768D01*
X170031256Y-89032859D01*
X169971072Y-89076586D01*
X169971070Y-89076588D01*
X169971069Y-89076588D01*
X169848588Y-89199069D01*
X169848588Y-89199070D01*
X169848586Y-89199072D01*
X169804859Y-89259256D01*
X169746768Y-89339211D01*
X169668128Y-89493552D01*
X169614597Y-89658302D01*
X169587500Y-89829389D01*
X75005500Y-89829389D01*
X75005500Y-87289389D01*
X169587500Y-87289389D01*
X169587500Y-87462611D01*
X169614598Y-87633701D01*
X169668127Y-87798445D01*
X169746768Y-87952788D01*
X169848586Y-88092928D01*
X169971072Y-88215414D01*
X170111212Y-88317232D01*
X170265555Y-88395873D01*
X170430299Y-88449402D01*
X170601389Y-88476500D01*
X170601390Y-88476500D01*
X170774610Y-88476500D01*
X170774611Y-88476500D01*
X170945701Y-88449402D01*
X171110445Y-88395873D01*
X171264788Y-88317232D01*
X171404928Y-88215414D01*
X171527414Y-88092928D01*
X171629232Y-87952788D01*
X171707873Y-87798445D01*
X171761402Y-87633701D01*
X171788500Y-87462611D01*
X171788500Y-87289389D01*
X171761402Y-87118299D01*
X171707873Y-86953555D01*
X171629232Y-86799212D01*
X171527414Y-86659072D01*
X171404928Y-86536586D01*
X171264788Y-86434768D01*
X171110445Y-86356127D01*
X170945701Y-86302598D01*
X170945699Y-86302597D01*
X170945698Y-86302597D01*
X170814271Y-86281781D01*
X170774611Y-86275500D01*
X170601389Y-86275500D01*
X170561728Y-86281781D01*
X170430302Y-86302597D01*
X170265552Y-86356128D01*
X170111211Y-86434768D01*
X170031256Y-86492859D01*
X169971072Y-86536586D01*
X169971070Y-86536588D01*
X169971069Y-86536588D01*
X169848588Y-86659069D01*
X169848588Y-86659070D01*
X169848586Y-86659072D01*
X169804859Y-86719256D01*
X169746768Y-86799211D01*
X169668128Y-86953552D01*
X169614597Y-87118302D01*
X169587500Y-87289389D01*
X75005500Y-87289389D01*
X75005500Y-84749428D01*
X169588000Y-84749428D01*
X169588000Y-84922571D01*
X169615085Y-85093584D01*
X169668592Y-85258259D01*
X169747196Y-85412525D01*
X169751709Y-85418736D01*
X169751709Y-85418737D01*
X170205037Y-84965409D01*
X170222075Y-85028993D01*
X170287901Y-85143007D01*
X170380993Y-85236099D01*
X170495007Y-85301925D01*
X170558589Y-85318962D01*
X170105261Y-85772289D01*
X170105262Y-85772290D01*
X170111471Y-85776801D01*
X170265742Y-85855408D01*
X170430415Y-85908914D01*
X170601429Y-85936000D01*
X170774571Y-85936000D01*
X170945584Y-85908914D01*
X171110257Y-85855408D01*
X171264525Y-85776803D01*
X171270736Y-85772289D01*
X171270737Y-85772289D01*
X170817410Y-85318962D01*
X170880993Y-85301925D01*
X170995007Y-85236099D01*
X171088099Y-85143007D01*
X171153925Y-85028993D01*
X171170962Y-84965409D01*
X171624289Y-85418736D01*
X171628803Y-85412525D01*
X171707408Y-85258257D01*
X171760914Y-85093584D01*
X171788000Y-84922571D01*
X171788000Y-84749428D01*
X171760914Y-84578415D01*
X171707408Y-84413742D01*
X171628801Y-84259471D01*
X171624290Y-84253262D01*
X171624289Y-84253261D01*
X171170962Y-84706589D01*
X171153925Y-84643007D01*
X171088099Y-84528993D01*
X170995007Y-84435901D01*
X170880993Y-84370075D01*
X170817409Y-84353037D01*
X171270737Y-83899709D01*
X171264525Y-83895196D01*
X171110259Y-83816592D01*
X170945584Y-83763085D01*
X170774571Y-83736000D01*
X170601429Y-83736000D01*
X170430415Y-83763085D01*
X170265740Y-83816592D01*
X170111480Y-83895193D01*
X170111463Y-83895203D01*
X170105261Y-83899708D01*
X170105261Y-83899709D01*
X170558590Y-84353037D01*
X170495007Y-84370075D01*
X170380993Y-84435901D01*
X170287901Y-84528993D01*
X170222075Y-84643007D01*
X170205037Y-84706590D01*
X169751709Y-84253261D01*
X169751708Y-84253261D01*
X169747203Y-84259463D01*
X169747193Y-84259480D01*
X169668592Y-84413740D01*
X169615085Y-84578415D01*
X169588000Y-84749428D01*
X75005500Y-84749428D01*
X75005500Y-82209389D01*
X169587500Y-82209389D01*
X169587500Y-82382611D01*
X169614598Y-82553701D01*
X169668127Y-82718445D01*
X169746768Y-82872788D01*
X169848586Y-83012928D01*
X169971072Y-83135414D01*
X170111212Y-83237232D01*
X170265555Y-83315873D01*
X170430299Y-83369402D01*
X170601389Y-83396500D01*
X170601390Y-83396500D01*
X170774610Y-83396500D01*
X170774611Y-83396500D01*
X170945701Y-83369402D01*
X171110445Y-83315873D01*
X171264788Y-83237232D01*
X171404928Y-83135414D01*
X171527414Y-83012928D01*
X171629232Y-82872788D01*
X171707873Y-82718445D01*
X171761402Y-82553701D01*
X171788500Y-82382611D01*
X171788500Y-82209389D01*
X171761402Y-82038299D01*
X171707873Y-81873555D01*
X171629232Y-81719212D01*
X171527414Y-81579072D01*
X171404928Y-81456586D01*
X171264788Y-81354768D01*
X171110445Y-81276127D01*
X170945701Y-81222598D01*
X170945699Y-81222597D01*
X170945698Y-81222597D01*
X170814271Y-81201781D01*
X170774611Y-81195500D01*
X170601389Y-81195500D01*
X170561728Y-81201781D01*
X170430302Y-81222597D01*
X170265552Y-81276128D01*
X170111211Y-81354768D01*
X170031256Y-81412859D01*
X169971072Y-81456586D01*
X169971070Y-81456588D01*
X169971069Y-81456588D01*
X169848588Y-81579069D01*
X169848588Y-81579070D01*
X169848586Y-81579072D01*
X169804859Y-81639256D01*
X169746768Y-81719211D01*
X169668128Y-81873552D01*
X169614597Y-82038302D01*
X169587500Y-82209389D01*
X75005500Y-82209389D01*
X75005500Y-78881321D01*
X169587500Y-78881321D01*
X169587500Y-80630678D01*
X169602032Y-80703735D01*
X169602033Y-80703739D01*
X169602034Y-80703740D01*
X169657399Y-80786601D01*
X169740260Y-80841966D01*
X169740264Y-80841967D01*
X169813321Y-80856499D01*
X169813324Y-80856500D01*
X169813326Y-80856500D01*
X171562676Y-80856500D01*
X171562677Y-80856499D01*
X171635740Y-80841966D01*
X171718601Y-80786601D01*
X171773966Y-80703740D01*
X171788500Y-80630674D01*
X171788500Y-78881326D01*
X171788500Y-78881323D01*
X171788499Y-78881321D01*
X171773967Y-78808264D01*
X171773966Y-78808260D01*
X171718601Y-78725399D01*
X171635740Y-78670034D01*
X171635739Y-78670033D01*
X171635735Y-78670032D01*
X171562677Y-78655500D01*
X171562674Y-78655500D01*
X169813326Y-78655500D01*
X169813323Y-78655500D01*
X169740264Y-78670032D01*
X169740260Y-78670033D01*
X169657399Y-78725399D01*
X169602033Y-78808260D01*
X169602032Y-78808264D01*
X169587500Y-78881321D01*
X75005500Y-78881321D01*
X75005500Y-77270525D01*
X139168500Y-77270525D01*
X139168500Y-77415475D01*
X139206016Y-77555485D01*
X139206017Y-77555488D01*
X139278488Y-77681011D01*
X139278490Y-77681013D01*
X139278491Y-77681015D01*
X139380985Y-77783509D01*
X139380986Y-77783510D01*
X139380988Y-77783511D01*
X139506511Y-77855982D01*
X139506512Y-77855982D01*
X139506515Y-77855984D01*
X139646525Y-77893500D01*
X139646528Y-77893500D01*
X139791472Y-77893500D01*
X139791475Y-77893500D01*
X139931485Y-77855984D01*
X139931488Y-77855981D01*
X139938838Y-77852938D01*
X139986289Y-77843500D01*
X155307711Y-77843500D01*
X155355162Y-77852938D01*
X155362513Y-77855983D01*
X155362515Y-77855984D01*
X155502525Y-77893500D01*
X155502528Y-77893500D01*
X155647472Y-77893500D01*
X155647475Y-77893500D01*
X155787485Y-77855984D01*
X155913015Y-77783509D01*
X156015509Y-77681015D01*
X156087984Y-77555485D01*
X156125500Y-77415475D01*
X156125500Y-77270525D01*
X156087984Y-77130515D01*
X156015509Y-77004985D01*
X155913015Y-76902491D01*
X155913013Y-76902490D01*
X155913011Y-76902488D01*
X155787488Y-76830017D01*
X155787489Y-76830017D01*
X155776006Y-76826940D01*
X155647475Y-76792500D01*
X155502525Y-76792500D01*
X155418519Y-76815009D01*
X155362513Y-76830016D01*
X155355162Y-76833062D01*
X155307711Y-76842500D01*
X139986289Y-76842500D01*
X139938838Y-76833062D01*
X139931486Y-76830016D01*
X139896482Y-76820637D01*
X139791475Y-76792500D01*
X139646525Y-76792500D01*
X139517993Y-76826940D01*
X139506511Y-76830017D01*
X139380988Y-76902488D01*
X139380982Y-76902493D01*
X139278493Y-77004982D01*
X139278488Y-77004988D01*
X139206017Y-77130511D01*
X139206016Y-77130515D01*
X139168500Y-77270525D01*
X75005500Y-77270525D01*
X75005500Y-69093999D01*
X166353759Y-69093999D01*
X166353759Y-69094000D01*
X166895012Y-69094000D01*
X166877795Y-69103940D01*
X166821940Y-69159795D01*
X166782444Y-69228204D01*
X166762000Y-69304504D01*
X166762000Y-69383496D01*
X166782444Y-69459796D01*
X166821940Y-69528205D01*
X166877795Y-69584060D01*
X166895012Y-69594000D01*
X166353759Y-69594000D01*
X166397357Y-69699254D01*
X166397362Y-69699264D01*
X166479436Y-69822096D01*
X166479439Y-69822100D01*
X166583899Y-69926560D01*
X166583903Y-69926563D01*
X166706735Y-70008637D01*
X166706745Y-70008642D01*
X166843232Y-70065177D01*
X166843240Y-70065179D01*
X166988126Y-70093999D01*
X166988129Y-70094000D01*
X167362000Y-70094000D01*
X167362000Y-69644000D01*
X167862000Y-69644000D01*
X167862000Y-70094000D01*
X168235871Y-70094000D01*
X168235873Y-70093999D01*
X168380759Y-70065179D01*
X168380767Y-70065177D01*
X168517254Y-70008642D01*
X168517264Y-70008637D01*
X168640096Y-69926563D01*
X168640100Y-69926560D01*
X168744560Y-69822100D01*
X168744563Y-69822096D01*
X168826637Y-69699264D01*
X168826642Y-69699254D01*
X168870241Y-69594000D01*
X168328988Y-69594000D01*
X168346205Y-69584060D01*
X168402060Y-69528205D01*
X168441556Y-69459796D01*
X168462000Y-69383496D01*
X168462000Y-69304504D01*
X168441556Y-69228204D01*
X168402060Y-69159795D01*
X168346205Y-69103940D01*
X168328988Y-69094000D01*
X168870241Y-69094000D01*
X168870240Y-69093999D01*
X170783759Y-69093999D01*
X170783759Y-69094000D01*
X171325012Y-69094000D01*
X171307795Y-69103940D01*
X171251940Y-69159795D01*
X171212444Y-69228204D01*
X171192000Y-69304504D01*
X171192000Y-69383496D01*
X171212444Y-69459796D01*
X171251940Y-69528205D01*
X171307795Y-69584060D01*
X171325012Y-69594000D01*
X170783759Y-69594000D01*
X170827357Y-69699254D01*
X170827362Y-69699264D01*
X170909436Y-69822096D01*
X170909439Y-69822100D01*
X171013899Y-69926560D01*
X171013903Y-69926563D01*
X171136735Y-70008637D01*
X171136745Y-70008642D01*
X171273232Y-70065177D01*
X171273240Y-70065179D01*
X171418126Y-70093999D01*
X171418129Y-70094000D01*
X171542000Y-70094000D01*
X171542000Y-69644000D01*
X172042000Y-69644000D01*
X172042000Y-70094000D01*
X172165871Y-70094000D01*
X172165873Y-70093999D01*
X172310759Y-70065179D01*
X172310767Y-70065177D01*
X172447254Y-70008642D01*
X172447264Y-70008637D01*
X172570096Y-69926563D01*
X172570100Y-69926560D01*
X172674560Y-69822100D01*
X172674563Y-69822096D01*
X172756637Y-69699264D01*
X172756642Y-69699254D01*
X172800241Y-69594000D01*
X172258988Y-69594000D01*
X172276205Y-69584060D01*
X172332060Y-69528205D01*
X172371556Y-69459796D01*
X172392000Y-69383496D01*
X172392000Y-69304504D01*
X172371556Y-69228204D01*
X172332060Y-69159795D01*
X172276205Y-69103940D01*
X172258988Y-69094000D01*
X172800241Y-69094000D01*
X172800240Y-69093999D01*
X172756642Y-68988745D01*
X172756637Y-68988735D01*
X172674563Y-68865903D01*
X172674560Y-68865899D01*
X172570100Y-68761439D01*
X172570096Y-68761436D01*
X172447264Y-68679362D01*
X172447254Y-68679357D01*
X172310767Y-68622822D01*
X172310759Y-68622820D01*
X172165872Y-68594000D01*
X172042000Y-68594000D01*
X172042000Y-69044000D01*
X171542000Y-69044000D01*
X171542000Y-68594000D01*
X171418128Y-68594000D01*
X171273240Y-68622820D01*
X171273232Y-68622822D01*
X171136745Y-68679357D01*
X171136735Y-68679362D01*
X171013903Y-68761436D01*
X171013899Y-68761439D01*
X170909439Y-68865899D01*
X170909436Y-68865903D01*
X170827362Y-68988735D01*
X170827357Y-68988745D01*
X170783759Y-69093999D01*
X168870240Y-69093999D01*
X168826642Y-68988745D01*
X168826637Y-68988735D01*
X168744563Y-68865903D01*
X168744560Y-68865899D01*
X168640100Y-68761439D01*
X168640096Y-68761436D01*
X168517264Y-68679362D01*
X168517254Y-68679357D01*
X168429380Y-68642958D01*
X168374976Y-68599116D01*
X168352912Y-68532822D01*
X168370192Y-68465123D01*
X168414832Y-68421010D01*
X168495365Y-68374515D01*
X168602515Y-68267365D01*
X168678281Y-68136135D01*
X168717500Y-67989766D01*
X168717500Y-67838234D01*
X168678281Y-67691865D01*
X168602515Y-67560635D01*
X168495365Y-67453485D01*
X168429750Y-67415602D01*
X168364136Y-67377719D01*
X168290950Y-67358109D01*
X168217766Y-67338500D01*
X168066234Y-67338500D01*
X167919863Y-67377719D01*
X167788635Y-67453485D01*
X167788632Y-67453487D01*
X167681487Y-67560632D01*
X167681485Y-67560635D01*
X167605719Y-67691863D01*
X167566500Y-67838234D01*
X167566500Y-67989765D01*
X167605719Y-68136136D01*
X167643602Y-68201750D01*
X167681485Y-68267365D01*
X167788635Y-68374515D01*
X167834346Y-68400906D01*
X167882560Y-68451471D01*
X167895784Y-68520078D01*
X167869816Y-68584943D01*
X167862000Y-68593749D01*
X167862000Y-69044000D01*
X167362000Y-69044000D01*
X167362000Y-68594000D01*
X166988128Y-68594000D01*
X166843240Y-68622820D01*
X166843232Y-68622822D01*
X166706745Y-68679357D01*
X166706735Y-68679362D01*
X166583903Y-68761436D01*
X166583899Y-68761439D01*
X166479439Y-68865899D01*
X166479436Y-68865903D01*
X166397362Y-68988735D01*
X166397357Y-68988745D01*
X166353759Y-69093999D01*
X75005500Y-69093999D01*
X75005500Y-66739399D01*
X126524500Y-66739399D01*
X126524500Y-66864601D01*
X126556905Y-66985536D01*
X126619505Y-67093964D01*
X126708036Y-67182495D01*
X126816464Y-67245095D01*
X126937399Y-67277500D01*
X126937401Y-67277500D01*
X127062599Y-67277500D01*
X127062601Y-67277500D01*
X127183536Y-67245095D01*
X127271842Y-67194111D01*
X127333841Y-67177500D01*
X128192435Y-67177500D01*
X128192436Y-67177500D01*
X128257391Y-67160095D01*
X128287938Y-67151910D01*
X128366559Y-67106517D01*
X128371240Y-67104314D01*
X128392087Y-67101068D01*
X128424064Y-67092500D01*
X136015780Y-67092500D01*
X136077778Y-67109111D01*
X136166085Y-67160095D01*
X136287020Y-67192500D01*
X136287022Y-67192500D01*
X136412220Y-67192500D01*
X136412222Y-67192500D01*
X136533157Y-67160095D01*
X136641585Y-67097495D01*
X136730116Y-67008964D01*
X136792716Y-66900536D01*
X136825121Y-66779601D01*
X136825121Y-66654399D01*
X136792716Y-66533464D01*
X136730116Y-66425036D01*
X136641585Y-66336505D01*
X136533157Y-66273905D01*
X136533152Y-66273903D01*
X136457405Y-66253606D01*
X136397745Y-66217241D01*
X136367217Y-66154393D01*
X136365500Y-66133832D01*
X136365500Y-66104400D01*
X136362570Y-66093464D01*
X136333095Y-65983464D01*
X136270495Y-65875036D01*
X136181964Y-65786505D01*
X136073536Y-65723905D01*
X136073537Y-65723905D01*
X136033224Y-65713103D01*
X135952601Y-65691500D01*
X135827399Y-65691500D01*
X135746775Y-65713103D01*
X135706463Y-65723905D01*
X135618158Y-65774888D01*
X135556159Y-65791500D01*
X127822564Y-65791500D01*
X127801012Y-65797275D01*
X127768919Y-65801500D01*
X127699399Y-65801500D01*
X127618775Y-65823103D01*
X127578463Y-65833905D01*
X127470037Y-65896504D01*
X127470034Y-65896506D01*
X127381506Y-65985034D01*
X127381504Y-65985037D01*
X127318905Y-66093463D01*
X127286500Y-66214400D01*
X127286500Y-66224894D01*
X127266815Y-66291933D01*
X127214011Y-66337688D01*
X127144853Y-66347632D01*
X127130412Y-66344670D01*
X127062601Y-66326500D01*
X126937399Y-66326500D01*
X126869593Y-66344669D01*
X126816463Y-66358905D01*
X126708037Y-66421504D01*
X126708034Y-66421506D01*
X126619506Y-66510034D01*
X126619504Y-66510037D01*
X126556905Y-66618463D01*
X126556905Y-66618464D01*
X126524500Y-66739399D01*
X75005500Y-66739399D01*
X75005500Y-64159975D01*
X123879950Y-64159975D01*
X123879950Y-64304925D01*
X123904716Y-64397352D01*
X123917467Y-64444938D01*
X123989938Y-64570461D01*
X123989940Y-64570463D01*
X123989941Y-64570465D01*
X124092435Y-64672959D01*
X124092436Y-64672960D01*
X124092438Y-64672961D01*
X124217961Y-64745432D01*
X124217962Y-64745432D01*
X124217965Y-64745434D01*
X124357975Y-64782950D01*
X124357978Y-64782950D01*
X124502922Y-64782950D01*
X124502925Y-64782950D01*
X124642935Y-64745434D01*
X124768465Y-64672959D01*
X124870959Y-64570465D01*
X124943434Y-64444935D01*
X124943435Y-64444928D01*
X124946479Y-64437583D01*
X124973357Y-64397355D01*
X125384695Y-63986019D01*
X125446018Y-63952534D01*
X125472376Y-63949700D01*
X127878690Y-63949700D01*
X127878692Y-63949700D01*
X128005986Y-63915592D01*
X128120114Y-63849700D01*
X128130103Y-63839710D01*
X128170336Y-63812827D01*
X128177675Y-63809786D01*
X128177685Y-63809784D01*
X128303215Y-63737309D01*
X128405709Y-63634815D01*
X128478184Y-63509285D01*
X128515700Y-63369275D01*
X128515700Y-63224325D01*
X128478184Y-63084315D01*
X128405709Y-62958785D01*
X128303215Y-62856291D01*
X128303213Y-62856290D01*
X128303211Y-62856288D01*
X128177688Y-62783817D01*
X128177689Y-62783817D01*
X128166206Y-62780740D01*
X128037675Y-62746300D01*
X127892725Y-62746300D01*
X127764193Y-62780740D01*
X127752711Y-62783817D01*
X127627188Y-62856288D01*
X127627182Y-62856293D01*
X127571095Y-62912381D01*
X127509772Y-62945866D01*
X127483414Y-62948700D01*
X125147808Y-62948700D01*
X125020512Y-62982808D01*
X124906386Y-63048700D01*
X124906383Y-63048702D01*
X124265543Y-63689541D01*
X124225323Y-63716418D01*
X124217965Y-63719466D01*
X124092438Y-63791939D01*
X124092432Y-63791943D01*
X123989943Y-63894432D01*
X123989938Y-63894438D01*
X123917467Y-64019961D01*
X123917466Y-64019965D01*
X123879950Y-64159975D01*
X75005500Y-64159975D01*
X75005500Y-60453999D01*
X166353759Y-60453999D01*
X166353759Y-60454000D01*
X166895012Y-60454000D01*
X166877795Y-60463940D01*
X166821940Y-60519795D01*
X166782444Y-60588204D01*
X166762000Y-60664504D01*
X166762000Y-60743496D01*
X166782444Y-60819796D01*
X166821940Y-60888205D01*
X166877795Y-60944060D01*
X166895012Y-60954000D01*
X166353759Y-60954000D01*
X166397357Y-61059254D01*
X166397362Y-61059264D01*
X166479436Y-61182096D01*
X166479439Y-61182100D01*
X166583899Y-61286560D01*
X166583903Y-61286563D01*
X166706735Y-61368637D01*
X166706745Y-61368642D01*
X166843232Y-61425177D01*
X166843240Y-61425179D01*
X166988126Y-61453999D01*
X166988129Y-61454000D01*
X167362000Y-61454000D01*
X167362000Y-61004000D01*
X167862000Y-61004000D01*
X167862000Y-61455641D01*
X167893511Y-61513349D01*
X167888527Y-61583041D01*
X167846655Y-61638974D01*
X167834350Y-61647091D01*
X167788635Y-61673485D01*
X167788632Y-61673487D01*
X167681487Y-61780632D01*
X167681485Y-61780635D01*
X167605719Y-61911863D01*
X167566500Y-62058234D01*
X167566500Y-62209765D01*
X167605719Y-62356136D01*
X167643602Y-62421750D01*
X167681485Y-62487365D01*
X167788635Y-62594515D01*
X167919865Y-62670281D01*
X168066234Y-62709500D01*
X168066236Y-62709500D01*
X168217764Y-62709500D01*
X168217766Y-62709500D01*
X168364135Y-62670281D01*
X168495365Y-62594515D01*
X168602515Y-62487365D01*
X168678281Y-62356135D01*
X168717500Y-62209766D01*
X168717500Y-62058234D01*
X168678281Y-61911865D01*
X168602515Y-61780635D01*
X168495365Y-61673485D01*
X168414832Y-61626989D01*
X168366617Y-61576421D01*
X168353395Y-61507814D01*
X168379363Y-61442950D01*
X168429381Y-61405041D01*
X168517251Y-61368644D01*
X168517264Y-61368637D01*
X168640096Y-61286563D01*
X168640100Y-61286560D01*
X168744560Y-61182100D01*
X168744563Y-61182096D01*
X168826637Y-61059264D01*
X168826642Y-61059254D01*
X168870241Y-60954000D01*
X168328988Y-60954000D01*
X168346205Y-60944060D01*
X168402060Y-60888205D01*
X168441556Y-60819796D01*
X168462000Y-60743496D01*
X168462000Y-60664504D01*
X168441556Y-60588204D01*
X168402060Y-60519795D01*
X168346205Y-60463940D01*
X168328988Y-60454000D01*
X168870241Y-60454000D01*
X168870240Y-60453999D01*
X170783759Y-60453999D01*
X170783759Y-60454000D01*
X171325012Y-60454000D01*
X171307795Y-60463940D01*
X171251940Y-60519795D01*
X171212444Y-60588204D01*
X171192000Y-60664504D01*
X171192000Y-60743496D01*
X171212444Y-60819796D01*
X171251940Y-60888205D01*
X171307795Y-60944060D01*
X171325012Y-60954000D01*
X170783759Y-60954000D01*
X170827357Y-61059254D01*
X170827362Y-61059264D01*
X170909436Y-61182096D01*
X170909439Y-61182100D01*
X171013899Y-61286560D01*
X171013903Y-61286563D01*
X171136735Y-61368637D01*
X171136745Y-61368642D01*
X171273232Y-61425177D01*
X171273240Y-61425179D01*
X171418126Y-61453999D01*
X171418129Y-61454000D01*
X171542000Y-61454000D01*
X171542000Y-61004000D01*
X172042000Y-61004000D01*
X172042000Y-61454000D01*
X172165871Y-61454000D01*
X172165873Y-61453999D01*
X172310759Y-61425179D01*
X172310767Y-61425177D01*
X172447254Y-61368642D01*
X172447264Y-61368637D01*
X172570096Y-61286563D01*
X172570100Y-61286560D01*
X172674560Y-61182100D01*
X172674563Y-61182096D01*
X172756637Y-61059264D01*
X172756642Y-61059254D01*
X172800241Y-60954000D01*
X172258988Y-60954000D01*
X172276205Y-60944060D01*
X172332060Y-60888205D01*
X172371556Y-60819796D01*
X172392000Y-60743496D01*
X172392000Y-60664504D01*
X172371556Y-60588204D01*
X172332060Y-60519795D01*
X172276205Y-60463940D01*
X172258988Y-60454000D01*
X172800241Y-60454000D01*
X172800240Y-60453999D01*
X172756642Y-60348745D01*
X172756637Y-60348735D01*
X172674563Y-60225903D01*
X172674560Y-60225899D01*
X172570100Y-60121439D01*
X172570096Y-60121436D01*
X172447264Y-60039362D01*
X172447254Y-60039357D01*
X172310767Y-59982822D01*
X172310759Y-59982820D01*
X172165872Y-59954000D01*
X172042000Y-59954000D01*
X172042000Y-60404000D01*
X171542000Y-60404000D01*
X171542000Y-59954000D01*
X171418128Y-59954000D01*
X171273240Y-59982820D01*
X171273232Y-59982822D01*
X171136745Y-60039357D01*
X171136735Y-60039362D01*
X171013903Y-60121436D01*
X171013899Y-60121439D01*
X170909439Y-60225899D01*
X170909436Y-60225903D01*
X170827362Y-60348735D01*
X170827357Y-60348745D01*
X170783759Y-60453999D01*
X168870240Y-60453999D01*
X168826642Y-60348745D01*
X168826637Y-60348735D01*
X168744563Y-60225903D01*
X168744560Y-60225899D01*
X168640100Y-60121439D01*
X168640096Y-60121436D01*
X168517264Y-60039362D01*
X168517254Y-60039357D01*
X168380767Y-59982822D01*
X168380759Y-59982820D01*
X168235872Y-59954000D01*
X167862000Y-59954000D01*
X167862000Y-60404000D01*
X167362000Y-60404000D01*
X167362000Y-59954000D01*
X166988128Y-59954000D01*
X166843240Y-59982820D01*
X166843232Y-59982822D01*
X166706745Y-60039357D01*
X166706735Y-60039362D01*
X166583903Y-60121436D01*
X166583899Y-60121439D01*
X166479439Y-60225899D01*
X166479436Y-60225903D01*
X166397362Y-60348735D01*
X166397357Y-60348745D01*
X166353759Y-60453999D01*
X75005500Y-60453999D01*
X75005500Y-59490525D01*
X134704500Y-59490525D01*
X134704500Y-59635475D01*
X134742016Y-59775485D01*
X134742017Y-59775488D01*
X134814488Y-59901011D01*
X134814490Y-59901013D01*
X134814491Y-59901015D01*
X134916985Y-60003509D01*
X134916986Y-60003510D01*
X134916988Y-60003511D01*
X135042511Y-60075982D01*
X135042512Y-60075982D01*
X135042515Y-60075984D01*
X135182525Y-60113500D01*
X135182528Y-60113500D01*
X135327473Y-60113500D01*
X135327475Y-60113500D01*
X135369007Y-60102371D01*
X135375152Y-60100725D01*
X135407245Y-60096500D01*
X139559711Y-60096500D01*
X139607162Y-60105938D01*
X139614513Y-60108983D01*
X139614515Y-60108984D01*
X139754525Y-60146500D01*
X139754528Y-60146500D01*
X139899472Y-60146500D01*
X139899475Y-60146500D01*
X140039485Y-60108984D01*
X140165015Y-60036509D01*
X140267509Y-59934015D01*
X140339984Y-59808485D01*
X140377500Y-59668475D01*
X140377500Y-59523525D01*
X140339984Y-59383515D01*
X140320931Y-59350515D01*
X140267511Y-59257988D01*
X140267506Y-59257982D01*
X140165017Y-59155493D01*
X140165011Y-59155488D01*
X140039488Y-59083017D01*
X140039489Y-59083017D01*
X140028006Y-59079940D01*
X139899475Y-59045500D01*
X139754525Y-59045500D01*
X139670519Y-59068009D01*
X139614513Y-59083016D01*
X139607162Y-59086062D01*
X139559711Y-59095500D01*
X135579491Y-59095500D01*
X135517491Y-59078887D01*
X135467485Y-59050016D01*
X135327475Y-59012500D01*
X135182525Y-59012500D01*
X135059369Y-59045500D01*
X135042511Y-59050017D01*
X134916988Y-59122488D01*
X134916982Y-59122493D01*
X134814493Y-59224982D01*
X134814488Y-59224988D01*
X134742017Y-59350511D01*
X134742016Y-59350515D01*
X134704500Y-59490525D01*
X75005500Y-59490525D01*
X75005500Y-54664525D01*
X155532500Y-54664525D01*
X155532500Y-54809475D01*
X155570016Y-54949485D01*
X155570017Y-54949488D01*
X155642488Y-55075011D01*
X155642490Y-55075013D01*
X155642491Y-55075015D01*
X155744985Y-55177509D01*
X155744986Y-55177510D01*
X155744988Y-55177511D01*
X155870511Y-55249982D01*
X155870512Y-55249982D01*
X155870515Y-55249984D01*
X156010525Y-55287500D01*
X156010528Y-55287500D01*
X156155472Y-55287500D01*
X156155475Y-55287500D01*
X156295485Y-55249984D01*
X156295488Y-55249981D01*
X156302838Y-55246938D01*
X156350289Y-55237500D01*
X161403711Y-55237500D01*
X161451162Y-55246938D01*
X161458513Y-55249983D01*
X161458515Y-55249984D01*
X161598525Y-55287500D01*
X161598528Y-55287500D01*
X161743472Y-55287500D01*
X161743475Y-55287500D01*
X161883485Y-55249984D01*
X162009015Y-55177509D01*
X162111509Y-55075015D01*
X162183984Y-54949485D01*
X162221500Y-54809475D01*
X162221500Y-54664525D01*
X162183984Y-54524515D01*
X162111509Y-54398985D01*
X162009015Y-54296491D01*
X162009013Y-54296490D01*
X162009011Y-54296488D01*
X161883488Y-54224017D01*
X161883489Y-54224017D01*
X161872006Y-54220940D01*
X161743475Y-54186500D01*
X161598525Y-54186500D01*
X161514519Y-54209009D01*
X161458513Y-54224016D01*
X161451162Y-54227062D01*
X161403711Y-54236500D01*
X156350289Y-54236500D01*
X156302838Y-54227062D01*
X156295486Y-54224016D01*
X156260482Y-54214637D01*
X156155475Y-54186500D01*
X156010525Y-54186500D01*
X155881993Y-54220940D01*
X155870511Y-54224017D01*
X155744988Y-54296488D01*
X155744982Y-54296493D01*
X155642493Y-54398982D01*
X155642488Y-54398988D01*
X155570017Y-54524511D01*
X155570016Y-54524515D01*
X155532500Y-54664525D01*
X75005500Y-54664525D01*
X75005500Y-50177258D01*
X76481500Y-50177258D01*
X76481500Y-50406741D01*
X76506446Y-50596215D01*
X76511452Y-50634238D01*
X76511453Y-50634240D01*
X76570842Y-50855887D01*
X76658650Y-51067876D01*
X76658657Y-51067890D01*
X76773392Y-51266617D01*
X76913081Y-51448661D01*
X76913089Y-51448670D01*
X77075330Y-51610911D01*
X77075338Y-51610918D01*
X77257382Y-51750607D01*
X77257385Y-51750608D01*
X77257388Y-51750611D01*
X77456112Y-51865344D01*
X77456117Y-51865346D01*
X77456123Y-51865349D01*
X77547480Y-51903190D01*
X77668113Y-51953158D01*
X77889762Y-52012548D01*
X78117266Y-52042500D01*
X78117273Y-52042500D01*
X78346727Y-52042500D01*
X78346734Y-52042500D01*
X78574238Y-52012548D01*
X78795887Y-51953158D01*
X79007888Y-51865344D01*
X79206612Y-51750611D01*
X79388661Y-51610919D01*
X79388665Y-51610914D01*
X79388670Y-51610911D01*
X79550911Y-51448670D01*
X79550914Y-51448665D01*
X79550919Y-51448661D01*
X79690611Y-51266612D01*
X79805344Y-51067888D01*
X79893158Y-50855887D01*
X79952548Y-50634238D01*
X79982500Y-50406734D01*
X79982500Y-50177266D01*
X79952548Y-49949762D01*
X79893158Y-49728113D01*
X79805344Y-49516112D01*
X79690611Y-49317388D01*
X79690608Y-49317385D01*
X79690607Y-49317382D01*
X79550918Y-49135338D01*
X79550911Y-49135330D01*
X79388670Y-48973089D01*
X79388661Y-48973081D01*
X79206617Y-48833392D01*
X79007890Y-48718657D01*
X79007876Y-48718650D01*
X78795887Y-48630842D01*
X78574238Y-48571452D01*
X78536215Y-48566446D01*
X78346741Y-48541500D01*
X78346734Y-48541500D01*
X78117266Y-48541500D01*
X78117258Y-48541500D01*
X77900715Y-48570009D01*
X77889762Y-48571452D01*
X77796076Y-48596554D01*
X77668112Y-48630842D01*
X77456123Y-48718650D01*
X77456109Y-48718657D01*
X77257382Y-48833392D01*
X77075338Y-48973081D01*
X76913081Y-49135338D01*
X76773392Y-49317382D01*
X76658657Y-49516109D01*
X76658650Y-49516123D01*
X76570842Y-49728112D01*
X76511453Y-49949759D01*
X76511451Y-49949770D01*
X76481500Y-50177258D01*
X75005500Y-50177258D01*
X75005500Y-47876000D01*
X75025185Y-47808961D01*
X75077989Y-47763206D01*
X75129500Y-47752000D01*
X125842242Y-47752000D01*
X125909281Y-47771685D01*
G37*
G04 #@! TD.AperFunction*
M02*
