M48
; DRILL file {KiCad 9.0.2} date 2025-07-11T13:24:08+0200
; FORMAT={-:-/ absolute / metric / decimal}
; #@! TF.CreationDate,2025-07-11T13:24:08+02:00
; #@! TF.GenerationSoftware,Kicad,Pcbnew,9.0.2
; #@! TF.FileFunction,Plated,1,2,PTH
FMAT,2
METRIC
; #@! TA.AperFunction,Plated,PTH,ViaDrill
T1C0.300
; #@! TA.AperFunction,Plated,PTH,ViaDrill
T2C0.400
; #@! TA.AperFunction,Plated,PTH,ComponentDrill
T3C0.600
; #@! TA.AperFunction,Plated,PTH,ComponentDrill
T4C1.000
; #@! TA.AperFunction,Plated,PTH,ComponentDrill
T5C1.001
; #@! TA.AperFunction,Plated,PTH,ComponentDrill
T6C1.400
%
G90
G05
T1
X80.772Y-61.722
X80.772Y-77.978
X86.36Y-67.818
X86.36Y-81.915
X114.554Y-103.759
X127.0Y-66.802
X127.762Y-66.277
X128.016Y-56.896
X128.016Y-60.706
X129.413Y-87.249
X135.89Y-66.167
X136.35Y-66.717
X140.462Y-87.884
X149.606Y-87.884
X161.544Y-61.214
X161.544Y-65.151
T2
X83.693Y-99.06
X120.777Y-66.675
X124.43Y-64.232
X127.965Y-63.297
X135.255Y-59.563
X139.7Y-75.438
X139.719Y-77.343
X139.827Y-59.596
X142.24Y-62.484
X155.575Y-77.343
X156.083Y-54.737
X156.972Y-59.182
X161.671Y-54.737
X165.354Y-68.326
X165.481Y-61.722
X165.735Y-71.628
T4
X170.688Y-79.756
X170.688Y-82.296
X170.688Y-84.836
X170.688Y-87.376
X170.688Y-89.916
T5
X126.174Y-50.206
X128.714Y-50.206
X131.254Y-50.206
X133.794Y-50.206
X136.334Y-50.206
X138.874Y-50.206
X141.414Y-50.206
X143.954Y-50.206
X146.494Y-50.206
X149.034Y-50.206
X151.574Y-50.206
X154.114Y-50.206
X156.654Y-50.206
X159.194Y-50.206
X161.734Y-50.206
X164.274Y-50.206
T6
X89.372Y-102.108
X93.572Y-102.108
X97.772Y-102.108
X101.972Y-102.108
X106.172Y-102.108
T3
G00X168.162Y-60.704
M15
G01X167.062Y-60.704
M16
G05
G00X167.062Y-60.704
M15
G01X168.162Y-60.704
M16
G05
G00X168.162Y-69.344
M15
G01X167.062Y-69.344
M16
G05
G00X167.062Y-69.344
M15
G01X168.162Y-69.344
M16
G05
G00X171.492Y-60.704
M15
G01X172.092Y-60.704
M16
G05
G00X172.092Y-60.704
M15
G01X171.492Y-60.704
M16
G05
G00X172.092Y-69.344
M15
G01X171.492Y-69.344
M16
G05
G00X171.492Y-69.344
M15
G01X172.092Y-69.344
M16
G05
M30
