G04 #@! TF.GenerationSoftware,KiCad,Pcbnew,9.0.2*
G04 #@! TF.CreationDate,2025-07-11T13:16:32+02:00*
G04 #@! TF.ProjectId,TeslaBMBCheck,5465736c-6142-44d4-9243-6865636b2e6b,1.0*
G04 #@! TF.SameCoordinates,Original*
G04 #@! TF.FileFunction,Soldermask,Top*
G04 #@! TF.FilePolarity,Negative*
%FSLAX46Y46*%
G04 Gerber Fmt 4.6, Leading zero omitted, Abs format (unit mm)*
G04 Created by KiCad (PCBNEW 9.0.2) date 2025-07-11 13:16:32*
%MOMM*%
%LPD*%
G01*
G04 APERTURE LIST*
G04 Aperture macros list*
%AMRoundRect*
0 Rectangle with rounded corners*
0 $1 Rounding radius*
0 $2 $3 $4 $5 $6 $7 $8 $9 X,Y pos of 4 corners*
0 Add a 4 corners polygon primitive as box body*
4,1,4,$2,$3,$4,$5,$6,$7,$8,$9,$2,$3,0*
0 Add four circle primitives for the rounded corners*
1,1,$1+$1,$2,$3*
1,1,$1+$1,$4,$5*
1,1,$1+$1,$6,$7*
1,1,$1+$1,$8,$9*
0 Add four rect primitives between the rounded corners*
20,1,$1+$1,$2,$3,$4,$5,0*
20,1,$1+$1,$4,$5,$6,$7,0*
20,1,$1+$1,$6,$7,$8,$9,0*
20,1,$1+$1,$8,$9,$2,$3,0*%
G04 Aperture macros list end*
%ADD10RoundRect,0.150000X0.150000X-0.587500X0.150000X0.587500X-0.150000X0.587500X-0.150000X-0.587500X0*%
%ADD11C,3.000000*%
%ADD12RoundRect,0.250000X0.450000X-0.262500X0.450000X0.262500X-0.450000X0.262500X-0.450000X-0.262500X0*%
%ADD13RoundRect,0.243750X0.456250X-0.243750X0.456250X0.243750X-0.456250X0.243750X-0.456250X-0.243750X0*%
%ADD14RoundRect,0.250000X0.325000X0.650000X-0.325000X0.650000X-0.325000X-0.650000X0.325000X-0.650000X0*%
%ADD15RoundRect,0.250000X-0.250000X-0.475000X0.250000X-0.475000X0.250000X0.475000X-0.250000X0.475000X0*%
%ADD16RoundRect,0.250000X0.475000X-0.250000X0.475000X0.250000X-0.475000X0.250000X-0.475000X-0.250000X0*%
%ADD17RoundRect,0.250000X-0.262500X-0.450000X0.262500X-0.450000X0.262500X0.450000X-0.262500X0.450000X0*%
%ADD18RoundRect,0.150000X-0.587500X-0.150000X0.587500X-0.150000X0.587500X0.150000X-0.587500X0.150000X0*%
%ADD19RoundRect,0.250000X-2.000000X-0.750000X2.000000X-0.750000X2.000000X0.750000X-2.000000X0.750000X0*%
%ADD20RoundRect,0.250000X0.262500X0.450000X-0.262500X0.450000X-0.262500X-0.450000X0.262500X-0.450000X0*%
%ADD21RoundRect,0.250000X-0.450000X0.262500X-0.450000X-0.262500X0.450000X-0.262500X0.450000X0.262500X0*%
%ADD22R,1.500000X1.500000*%
%ADD23RoundRect,0.150000X-0.512500X-0.150000X0.512500X-0.150000X0.512500X0.150000X-0.512500X0.150000X0*%
%ADD24O,2.700000X3.300000*%
%ADD25R,1.200000X1.200000*%
%ADD26R,1.500000X1.600000*%
%ADD27RoundRect,0.250000X-0.475000X0.250000X-0.475000X-0.250000X0.475000X-0.250000X0.475000X0.250000X0*%
%ADD28R,1.700000X1.700000*%
%ADD29C,1.700000*%
%ADD30RoundRect,0.150000X0.150000X-0.875000X0.150000X0.875000X-0.150000X0.875000X-0.150000X-0.875000X0*%
%ADD31C,0.650000*%
%ADD32R,1.450000X0.600000*%
%ADD33R,1.450000X0.300000*%
%ADD34O,2.100000X1.000000*%
%ADD35O,1.600000X1.000000*%
%ADD36O,1.501140X4.000500*%
G04 APERTURE END LIST*
D10*
X125100000Y-56896000D03*
X127000000Y-56896000D03*
X126050000Y-55021000D03*
D11*
X78232000Y-105156000D03*
D12*
X166116000Y-81684500D03*
X166116000Y-79859500D03*
D13*
X114503200Y-102662200D03*
X114503200Y-100787200D03*
D14*
X164543000Y-71628000D03*
X161593000Y-71628000D03*
D12*
X161544000Y-67968500D03*
X161544000Y-66143500D03*
D15*
X140782000Y-60833000D03*
X142682000Y-60833000D03*
D12*
X151892000Y-57808500D03*
X151892000Y-55983500D03*
D16*
X86360000Y-70526000D03*
X86360000Y-68626000D03*
D12*
X128094500Y-82700500D03*
X128094500Y-80875500D03*
D15*
X146490000Y-87884000D03*
X148390000Y-87884000D03*
D17*
X125071500Y-60706000D03*
X126896500Y-60706000D03*
D18*
X131221000Y-80838000D03*
X131221000Y-82738000D03*
X133096000Y-81788000D03*
D19*
X138684000Y-82296000D03*
X147184000Y-82296000D03*
D20*
X148359500Y-91694000D03*
X146534500Y-91694000D03*
D16*
X86360000Y-84897000D03*
X86360000Y-82997000D03*
D11*
X171704000Y-50292000D03*
D21*
X112268000Y-94083500D03*
X112268000Y-95908500D03*
D12*
X161544000Y-63904500D03*
X161544000Y-62079500D03*
X90424000Y-84836000D03*
X90424000Y-83011000D03*
D22*
X80772000Y-87048000D03*
X80772000Y-79248000D03*
D23*
X122179500Y-65725000D03*
X122179500Y-66675000D03*
X122179500Y-67625000D03*
X124454500Y-67625000D03*
X124454500Y-66675000D03*
X124454500Y-65725000D03*
D24*
X89372000Y-102108000D03*
X93572000Y-102108000D03*
X97772000Y-102108000D03*
X101972000Y-102108000D03*
X106172000Y-102108000D03*
D25*
X156918000Y-56270000D03*
D26*
X160168000Y-57270000D03*
D25*
X156918000Y-58270000D03*
D15*
X137478000Y-87884000D03*
X139378000Y-87884000D03*
D11*
X78232000Y-50292000D03*
D21*
X90424000Y-68683500D03*
X90424000Y-70508500D03*
D11*
X171704000Y-105156000D03*
D22*
X80772000Y-70792000D03*
X80772000Y-62992000D03*
D27*
X128094500Y-85410000D03*
X128094500Y-87310000D03*
D16*
X83693000Y-102103000D03*
X83693000Y-100203000D03*
D28*
X170688000Y-79756000D03*
D29*
X170688000Y-82296000D03*
X170688000Y-84836000D03*
X170688000Y-87376000D03*
X170688000Y-89916000D03*
D30*
X130810000Y-73816000D03*
X132080000Y-73816000D03*
X133350000Y-73816000D03*
X134620000Y-73816000D03*
X135890000Y-73816000D03*
X137160000Y-73816000D03*
X138430000Y-73816000D03*
X139700000Y-73816000D03*
X140970000Y-73816000D03*
X142240000Y-73816000D03*
X143510000Y-73816000D03*
X144780000Y-73816000D03*
X146050000Y-73816000D03*
X147320000Y-73816000D03*
X147320000Y-64516000D03*
X146050000Y-64516000D03*
X144780000Y-64516000D03*
X143510000Y-64516000D03*
X142240000Y-64516000D03*
X140970000Y-64516000D03*
X139700000Y-64516000D03*
X138430000Y-64516000D03*
X137160000Y-64516000D03*
X135890000Y-64516000D03*
X134620000Y-64516000D03*
X133350000Y-64516000D03*
X132080000Y-64516000D03*
X130810000Y-64516000D03*
D31*
X168142000Y-67914000D03*
X168142000Y-62134000D03*
D32*
X166697000Y-68249000D03*
X166697000Y-67474000D03*
D33*
X166697000Y-66774000D03*
X166697000Y-66274000D03*
X166697000Y-65774000D03*
X166697000Y-65274000D03*
X166697000Y-64774000D03*
X166697000Y-64274000D03*
X166697000Y-63774000D03*
X166697000Y-63274000D03*
D32*
X166697000Y-62574000D03*
X166697000Y-61799000D03*
D34*
X167612000Y-69344000D03*
D35*
X171792000Y-69344000D03*
D34*
X167612000Y-60704000D03*
D35*
X171792000Y-60704000D03*
D36*
X123633800Y-50205860D03*
X164273800Y-50205860D03*
X161733800Y-50205860D03*
X159193800Y-50205860D03*
X156653800Y-50205860D03*
X154113800Y-50205860D03*
X151573800Y-50205860D03*
X149033800Y-50205860D03*
X146493800Y-50205860D03*
X143953800Y-50205860D03*
X141413800Y-50205860D03*
X138873800Y-50205860D03*
X136333800Y-50205860D03*
X133793800Y-50205860D03*
X131253800Y-50205860D03*
X128713800Y-50205860D03*
X126173800Y-50205860D03*
M02*
